<?xml version="1.0" encoding="utf-8"?>
<!-- Generator: Adobe Illustrator 24.2.0, SVG Export Plug-In . SVG Version: 6.00 Build 0)  -->
<svg version="1.1" id="Layer_1" xmlns="http://www.w3.org/2000/svg" xmlns:xlink="http://www.w3.org/1999/xlink" x="0px" y="0px"
	 width="436.9px" height="358.9px" viewBox="0 0 436.9 358.9" style="enable-background:new 0 0 436.9 358.9;" xml:space="preserve"
	>
<style type="text/css">
	.st0{fill:#072163;}
</style>
<path class="st0" d="M153.8,39.7c4.8-1.2,35.6-12,51.2-18c2.4,5.2,6,11.2,8.8,17.2c-39.6,3.2-77.2,13.2-111.6,28.8
	c4.8,3.2,10.4,5.2,16.4,5.2c6.4,0,12.4-2,17.2-5.6c4.8,3.6,10.8,5.6,17.2,5.6s12.4-2,17.2-5.6c4.8,3.6,10.8,5.6,17.2,5.6
	s12.4-2,17.2-5.6c4.8,3.6,10.8,5.6,17.2,5.6c11.6,0,21.6-7.2,26.4-17.2c0.4-0.8,0.8-1.2,0.8-2c1.2-3.6,0.8-7.6-0.8-10.8
	c-5.2-9.6-28-38.8-34-41.6c-0.4-0.4-1.2-0.4-1.6-0.8c-2-0.8-4-0.4-5.6,0c-3.6,1.2-56,26.8-58,28c-1.2,0.8-2,2-2.4,3.2
	c-0.8,3.2,0.8,6.4,4,7.2C151.8,39.7,153,39.7,153.8,39.7"/>
<path class="st0" d="M301.4,52.1c0,0.4,0,1.2,0,1.6c0,6.8-2.8,13.2-7.2,18c2.4,0.8,4.8,1.2,7.6,1.2c6.4,0,12.4-2,17.2-5.6
	c4.8,3.6,10.8,5.6,17.2,5.6c7.6,0,14.4-2.8,19.6-7.6C338.2,59.3,319.8,54.9,301.4,52.1"/>
<path class="st0" d="M275,34.9c-10.4,0-19.2,8.4-19.2,19.2c0,10.4,8.4,19.2,19.2,19.2c10.4,0,19.2-8.4,19.2-19.2
	C294.2,43.3,285.4,34.9,275,34.9"/>
<path class="st0" d="M389,211.3c1.6,3.2,4.8,5.6,8.4,5.2c2.4-0.4,4.4-1.6,5.6-3.2l32.8-40c1.2-1.6,1.6-4.4,0.4-6.4
	c-1.6-2.4-4.8-3.2-7.2-1.6c-0.4,0.4-0.8,0.4-0.8,0.8c-9.2,8.4-18,16.8-26,24.8c-1.6-8.8-3.6-17.2-5.6-24.4
	c-1.6,11.6-5.2,25.6-9.6,39.6L389,211.3z"/>
<path class="st0" d="M365.4,147.7c-11.2,6-24.4,13.6-36.4,20c-1.6,0.8-2.4,2.4-3.2,4c-0.4,0.8-0.4,1.6-0.8,2.4l-4.8,51.2
	c-0.4,2.4,1.2,5.2,3.6,6c2.8,1.2,6.4-0.4,7.2-3.2c0-0.4,0-0.4,0.4-0.8c3.6-17.2,6.8-32.4,9.6-45.2c12-3.6,24-7.6,34.4-11.2
	c5.6-2,8.8-8,8-14c-1.2-6.8-8-11.2-14.8-10C367.4,146.9,366.2,147.3,365.4,147.7"/>
<path class="st0" d="M419.4,249.7c-2.4-1.2-46.4-26-50.4-27.6c-2-0.8-4.4-1.6-6.4-1.6c-6,0-11.2,3.2-14,8l-67.2,121.6
	c-0.4,0.8-0.8,1.6-0.8,2.4c0,3.2,2,5.6,5.2,6c2,0,3.6-0.8,4.8-2l75.2-99.6c9.2,3.2,19.6,6.8,29.2,9.6c-13.2,19.6-31.6,49.2-33.6,52
	c-0.4,0.8-0.8,2-1.2,2.8c-0.4,3.2,2.4,6,5.6,6.4c2,0,3.6-0.8,4.8-2c0.8-0.8,50.8-58,51.2-58.8c1.6-1.6,2.4-3.6,2.8-6
	C425.8,256.5,423.4,252.1,419.4,249.7"/>
<path class="st0" d="M395.8,148.1c9.6,0.4,18-6.8,18.4-16.4c0.4-9.6-6.8-18-16.4-18.4s-18,6.8-18.4,16.4S386.2,147.7,395.8,148.1"/>
<path class="st0" d="M83.2,195.6c1,3.2,47.9,130.5,48.9,133.1c0.6,1.9,2.9,3.6,5.2,3.6c3.2,0,5.5-2.6,5.5-5.5c0-0.3,0-0.6,0-1
	c0-0.6-5.8-28.5-12.3-58.9c12.6-15.9,29.8-37.6,30.1-37.9c1.3-1.6,2.3-3.9,2.3-6.2c0-2.9-1.3-5.8-3.6-7.4
	c-1.6-1.3-43.4-35.6-48.3-39.2c-2.9-2.3-6.8-3.6-10.7-3.6c-10,0-18.1,8.1-18.1,18.1C82.3,192.1,82.6,193.7,83.2,195.6 M119.8,216.1
	c5.8,3.2,12.3,6.8,18.5,10c-3.9,6.2-8.1,13-12.3,19.4C124,235.2,121.8,224.8,119.8,216.1"/>
<path class="st0" d="M205,215.7c-2.6-2.3-25.3-19.1-34.3-25.9c-1-11-3.6-37.9-3.9-41.1c0-1-0.3-2.3-0.6-3.2
	c-2.6-7.4-10.7-11-18.1-8.4c-7.1,2.6-10.7,10.4-8.7,17.2c1.3,5.2,12.3,38.5,14.2,43.4c1,2.6,2.6,4.5,4.9,5.5l26.9,13v20.7
	c0,0.6,0,1.3,0.3,1.9l7.1,16.2c-17.2,9.4-28.8,27.5-28.8,48.6c0,30.4,24.9,55.4,55.4,55.4s55.4-24.9,55.4-55.4
	c0-30.4-24.9-55.4-55.4-55.4c-6.5,0-12.6,1-18.1,3.2l-6.8-15.2v-13h17.8c5.2,0,7.1,1.9,7.1,4.5s-1.6,4.9-7.1,4.9h-2.3
	c-2.3,0-4.2,1.6-4.2,3.9s1.9,4.2,4.2,4.2h3.2c11,0,14.6-6.8,14.6-12c0-6.8-4.9-13-15.5-13H205L205,215.7z M219.2,349.5
	c-25.6,0-46.3-20.7-46.3-46.3c0-17.5,9.4-32.4,23.6-40.5l18.8,42.1c0.6,1.6,2.3,2.6,4.2,2.6c0.6,0,1.3,0,1.9-0.3
	c2.3-1,3.2-3.6,2.3-5.8l-19.4-42.4c4.5-1.6,9.4-2.3,14.6-2.3c25.6,0,46.3,20.7,46.3,46.3C265.5,328.7,244.8,349.5,219.2,349.5"/>
<path class="st0" d="M55.4,247.8C24.9,247.8,0,272.7,0,303.2c0,30.4,24.9,55.4,55.4,55.4s55.4-24.9,55.4-55.4
	C110.8,272.4,85.8,247.8,55.4,247.8 M55.4,349.5c-25.6,0-46.3-20.7-46.3-46.3s20.7-46.3,46.3-46.3s46.3,20.7,46.3,46.3
	S81,349.5,55.4,349.5"/>
<path class="st0" d="M192.7,151.3c9.7,0,17.8-7.8,17.8-17.8c0-9.7-7.8-17.8-17.8-17.8c-9.7,0-17.8,7.8-17.8,17.8
	C174.9,143.5,183,151.3,192.7,151.3"/>
</svg>
