<?xml version="1.0" encoding="utf-8"?>
<!-- Generator: Adobe Illustrator 24.2.0, SVG Export Plug-In . SVG Version: 6.00 Build 0)  -->
<svg version="1.1" id="Layer_1" xmlns="http://www.w3.org/2000/svg" xmlns:xlink="http://www.w3.org/1999/xlink" x="0px" y="0px"
	 width="302.4px" height="324.7px" viewBox="0 0 302.4 324.7" style="enable-background:new 0 0 302.4 324.7;" xml:space="preserve"
	>
<style type="text/css">
	.st0{fill:#072163;}
</style>
<path class="st0" d="M280.4,21.1c-12,0-22,9.6-22,22c0,12,9.6,22,22,22c12,0,22-9.6,22-22C302,31.1,292.4,21.1,280.4,21.1"/>
<path class="st0" d="M199.6,89.9c-5.2-21.6-12.8-52-18.4-74C178.8,5.5,168-1.7,156.8,0.3c-8.8,1.6-15.2,9.2-16.4,17.6
	c-2.8,20.8-5.2,45.2-7.2,70.8c-1.2,0.8-2.4,2-3.6,3.2c-11.2-22.4-34.4-38-61.2-38C30.8,53.9,0,84.7,0,122.3s30.8,68.4,68.4,68.4
	s68.4-30.8,68.4-68.4c0-0.8,0-2,0-2.8c6.4-4,12.8-8,18-11.2c2.8-2,5.2-4.8,6.4-8.4l5.2-18.4c2,4.4,3.6,8.8,5.6,13.2
	c-5.6,20.8-20.8,88.4-20.8,88.4c-0.4,1.2-0.4,2.4,0,4c1.2,3.6,5.2,6,9.2,4.8c2.4-0.8,4-2.8,4.8-4.8l33.6-88
	C200,95.9,200.4,92.7,199.6,89.9 M67.2,143.5c-2,1.6-2.8,4.4-2.4,7.2c0.8,4,4.8,6.8,8.8,6.4c0.8,0,1.6-0.4,2.4-0.8c0,0,0,0,0.4-0.4
	l0,0c3.6-2.4,26.8-16,49.2-29.6c-2,30-26.8,53.6-57.2,53.6c-31.6,0-57.2-25.6-57.2-57.2s25.6-57.2,57.2-57.2c23.2,0,43.6,14,52.4,34
	C97.6,117.5,67.2,143.5,67.2,143.5"/>
<path class="st0" d="M222,104.3c0.8,1.2,34.4,38.4,34.4,38.4l-13.6-2.8c-2.8-0.8-5.6,1.2-6.4,4l-11.6,45.2
	c-3.6-0.8-7.6-1.2-11.6-1.2c-37.6,0-68.4,30.8-68.4,68.4s30.8,68.4,68.4,68.4s68.4-30.8,68.4-68.4c0-30-19.2-55.6-46-64.8l10.4-40
	l25.2,5.6c0.4,0,1.2,0.4,1.6,0.4c3.6,0,6.8-3.2,6.8-6.8c0-1.6-0.4-2.8-1.2-4c0,0-34-49.2-36-52c1.2-11.6,3.6-40.8,4.8-53.2
	c0-2.4,0-4.4-0.8-6.8c-3.2-9.2-12.8-14-21.6-10.8c-7.6,2.4-12.4,10-11.6,17.6c0.8,8.8,3.2,32,8,58.4
	C220.4,101.1,220.8,103.1,222,104.3 M212.8,313.9c-31.6,0-57.2-25.6-57.2-57.2s25.6-57.2,57.2-57.2c3.2,0,6,0.4,8.8,0.8l-14,54.8
	c-0.8,2.8,1.2,6,4,6.8c0.4,0,0.8,0,1.2,0c2.4,0,4.8-1.6,5.2-4l14-55.2c22,8,38,29.2,38,54C270.4,288.3,244.4,313.9,212.8,313.9"/>
<path class="st0" d="M222,104.3c0.8,1.2,34.4,38.4,34.4,38.4l-13.6-2.8c-2.8-0.8-5.6,1.2-6.4,4l-11.6,45.2
	c-3.6-0.8-7.6-1.2-11.6-1.2c-37.6,0-68.4,30.8-68.4,68.4s30.8,68.4,68.4,68.4s68.4-30.8,68.4-68.4c0-30-19.2-55.6-46-64.8l10.4-40
	l25.2,5.6c0.4,0,1.2,0.4,1.6,0.4c3.6,0,6.8-3.2,6.8-6.8c0-1.6-0.4-2.8-1.2-4c0,0-16.4-23.6-29.2-41.6c-2-3.2-5.2-7.6-7.2-10.4
	c1.2-11.6,3.6-40.8,4.8-53.2c0-2.4,0-4.4-0.8-6.8c-3.2-9.2-12.8-14-21.6-10.8c-7.6,2.4-12.4,10-11.6,17.6c0.8,8.8,3.2,32,8,58.4
	C220.4,101.1,220.8,103.1,222,104.3 M212.8,313.9c-31.6,0-57.2-25.6-57.2-57.2s25.6-57.2,57.2-57.2c3.2,0,6,0.4,8.8,0.8l-14,54.8
	c-0.8,2.8,1.2,6,4,6.8c0.4,0,0.8,0,1.2,0c2.4,0,4.8-1.6,5.2-4l14-55.2c22,8,38,29.2,38,54C270.4,288.3,244.4,313.9,212.8,313.9"/>
</svg>
