<?xml version="1.0" encoding="utf-8"?>
<!-- Generator: Adobe Illustrator 24.2.0, SVG Export Plug-In . SVG Version: 6.00 Build 0)  -->
<svg version="1.1" id="Layer_1" xmlns="http://www.w3.org/2000/svg" xmlns:xlink="http://www.w3.org/1999/xlink" x="0px" y="0px"
	 width="424.8px" height="122px" viewBox="0 0 424.8 122" style="enable-background:new 0 0 424.8 122;" xml:space="preserve">
<style type="text/css">
	.st0{fill:#072163;}
</style>
<path class="st0" d="M333.2,87.2c0,0.8,0,2,0,2.8c0,11.6-4.8,22.4-12,30.4c4,1.2,8.4,1.6,12.8,1.6c10.8,0,20.8-3.6,28.8-9.6
	c8,6,18,9.6,28.8,9.6c12.8,0,24.4-4.8,33.2-13.2C395.2,99.2,364.8,91.6,333.2,87.2"/>
<path class="st0" d="M85.2,66c5.2-1.2,60.4-20,86.8-30.4c4.4,8.4,9.6,19.2,15.2,29.2C120.8,70,57.6,86.8,0,113.2
	c8,5.6,17.2,8.8,27.6,8.8c10.8,0,20.8-3.6,28.8-9.6c8,6,18,9.6,28.8,9.6s20.8-3.6,28.8-9.6c8,6,18,9.6,28.8,9.6s20.8-3.6,28.8-9.6
	c8,6,18,9.6,28.8,9.6c19.6,0,36-12,44.4-28.8c0.4-1.2,1.2-2.4,1.6-3.6c2-6.4,1.6-12.8-1.6-18C236,55.6,197.6,6.8,188,2
	c-0.8-0.4-2-0.8-2.8-1.2c-3.2-1.2-6.4-0.8-9.6,0c-6.4,2-94,44.8-97.2,47.2c-2,1.2-3.6,3.2-4,5.6C72.8,58.8,76,64.4,81.2,66
	C82.4,66,84,66.4,85.2,66"/>
<path class="st0" d="M289.2,57.6c-17.6,0-32,14.4-32,32s14.4,32,32,32s32-14.4,32-32S306.8,57.6,289.2,57.6"/>
</svg>
