<?xml version="1.0" encoding="utf-8"?>
<!-- Generator: Adobe Illustrator 24.2.0, SVG Export Plug-In . SVG Version: 6.00 Build 0)  -->
<svg version="1.1" id="Layer_1" xmlns="http://www.w3.org/2000/svg" xmlns:xlink="http://www.w3.org/1999/xlink" x="0px" y="0px"
	 width="324.4px" height="402.2px" viewBox="0 0 324.4 402.2" style="enable-background:new 0 0 324.4 402.2;" xml:space="preserve"
	>
<style type="text/css">
	.st0{fill:#072163;}
</style>
<path class="st0" d="M234.8,284.8l-9.2-96.8c0-1.6-0.8-2.8-1.6-4L130.4,72.8L107.3,0L93.6,4.4L116,74.8c-3.2,4.8-32.8,51.6-38,60
	c-4,4.4-16.8,16.8-26.8,27.2c13.2-5.2,31.2-11.6,43.2-15.6c1.6-2.8,8.4-21.6,13.6-36c-2.8,15.2-6,31.6-7.6,41.6
	c-15.2,4.8-44.8,15.6-57.2,21.2c-3.6,1.6-6.8,4.8-8.4,8.8c-4,8.8,0,18.8,8.8,22.8c4.4,2,9.2,2,13.6,0c4-1.6,52.4-30,58.4-33.6
	c4-2.4,6-5.6,6.4-9.2c0.4-2.8,4-46.4,6-69.6l83.2,98.8l4.8,51.2c-0.4-0.4-0.8-0.8-1.2-1.2c-2-1.6-74-50.4-76.8-52
	c-1.6-1.2-4.4-2-6.8-2c-5.6-0.4-10.4,2.8-12.8,7.2c-1.6,4-36.8,70.4-38.8,74.4c-2,3.6-2.8,7.2-2.8,11.6c0,10.8,7.2,20,17.6,22.8
	c11.6,3.2,65.6,15.6,86.4,19.6c26.8,14.4,71.6,36.4,84.8,42c1.2,0.4,2,0.8,3.2,0.8c4,0,7.6-3.2,8-7.2l36.4,43.8l11.2-9.2
	L234.8,284.8z M193.2,296.8c-0.4-0.4-1.2-0.8-1.6-0.8l-66-29.2c5.2-15.2,10-29.6,14.4-44.8c26.8,13.6,62,31.2,67.6,33.6
	c1.2,0.4,2,0.8,2.8,0.8c2.8,0,5.6-1.2,6.8-3.6l3.6,36c0,1.6,0.8,2.8,1.6,4l44.4,52.8L193.2,296.8z"/>
<path class="st0" d="M50.4,138.4c0-14-11.2-25.2-25.2-25.2S0,124.4,0,138.4s11.2,25.2,25.2,25.2C39.2,163.6,50.4,152.4,50.4,138.4"
	/>
</svg>
