<?xml version="1.0" encoding="utf-8"?>
<!-- Generator: Adobe Illustrator 24.2.0, SVG Export Plug-In . SVG Version: 6.00 Build 0)  -->
<svg version="1.1" id="Layer_1" xmlns="http://www.w3.org/2000/svg" xmlns:xlink="http://www.w3.org/1999/xlink" x="0px" y="0px"
	 width="357.8px" height="265px" viewBox="0 0 357.8 265" style="enable-background:new 0 0 357.8 265;" xml:space="preserve">
<style type="text/css">
	.st0{fill:#072163;}
</style>
<path class="st0" d="M137.3,58.6c13.2-3.6,46.4-15.2,65.2-22.4c4.8,5.2,11.2,11.6,17.6,18.4c10.4-8.8,20.8-17.2,30-18.8
	c1.2-0.4,2.8-0.4,4-0.4c-14.8-8-41.2-22-43.6-23.2s-4.8-1.6-7.2-0.8c-0.8,0-2.4,0.8-2.4,0.8c-8.8,4-66,34-68,35.2
	c-2.4,1.2-4,4-3.2,6.8C130.5,57,134.1,59.4,137.3,58.6"/>
<path class="st0" d="M294.1,45.8c11.6,8,27.2,5.2,35.2-6c8-11.6,5.2-27.2-6-35.2c-11.6-8-27.2-5.2-35.2,6
	C279.7,21.8,282.5,37.4,294.1,45.8"/>
<path class="st0" d="M291.7,137.4c1.2-0.4,62.4-37.2,63.6-38.4c2-1.6,2.8-4,2.4-6.8c-0.8-4-4.8-6.4-8.4-5.6c-0.4,0-0.8,0.4-1.2,0.4
	c-1.6,0.4-34.4,14.4-53.6,22.4c-4.4-18-11.2-41.2-14.8-50.8c-0.4-0.8-0.8-1.6-1.2-2.4c0-0.4-0.4-0.8-0.4-0.8
	c-4.4-8-14-12.8-23.2-10.8c-11.6,2.4-19.2,14-16.8,25.6c0.4,1.2,0.8,2.4,1.2,3.6c2.8,8,31.2,53.6,36.4,60c2.8,4,7.6,6,12.4,4.8
	C289.3,138.6,290.5,137.8,291.7,137.4"/>
<path class="st0" d="M242.5,182.6c-4.8-9.2-36-57.6-46-71.6c-1.2-1.6-2.4-2.8-3.6-3.6c-4.8-4.4-11.6-6.4-18.4-5.6
	c-5.6,0.8-10.8,3.2-14.8,6.8C154.5,113,4.1,248.6,2.9,249.8c-2,1.6-3.2,4.4-2.8,7.2c0.4,4.8,4.8,8.4,9.6,8c1.6,0,2.8-0.8,4-1.2
	c0.8-0.4,46.8-30.8,91.6-60.4c20.8,0.4,120.4,1.6,124.4,1.2c1.2,0,2.4-0.4,3.6-0.4c8-2,12.8-10.4,10.8-18.4
	C243.3,184.2,242.9,183.4,242.5,182.6 M174.1,157.8c6,5.6,11.6,11.6,14.4,14c1.6,1.6,3.6,3.2,5.2,4.8c-17.6,1.6-37.6,3.2-55.2,4.8
	C152.1,172.2,164.5,163.8,174.1,157.8"/>
</svg>
