<?xml version="1.0" encoding="utf-8"?>
<!-- Generator: Adobe Illustrator 24.2.0, SVG Export Plug-In . SVG Version: 6.00 Build 0)  -->
<svg version="1.1" id="Layer_1" xmlns="http://www.w3.org/2000/svg" xmlns:xlink="http://www.w3.org/1999/xlink" x="0px" y="0px"
	 width="349.3px" height="206.8px" viewBox="0 0 349.3 206.8" style="enable-background:new 0 0 349.3 206.8;" xml:space="preserve"
	>
<style type="text/css">
	.st0{fill:#072163;}
</style>
<path class="st0" d="M280,86.4c-26-2.4-112.8-8-139.2-9.2c0.8,12.4,0.8,24-3.6,42.4c27.2-2,57.6-4,71.6-5.2
	c8.8-0.4,59.2-2.4,82.8-4.4c2,10,7.6,18,21.6,20.8c18.8,3.6,31.6-2.8,34.4-14.8c2.4-8.8,2.4-16.4-1.2-22.4
	c-3.6-5.6-10-9.2-19.2-10.8C314.8,80.4,295.2,84.4,280,86.4"/>
<path class="st0" d="M110.4,96.4c-6-5.2-14.4-10.8-22-9.6C81.6,87.6,77.6,92,74,95.6c-9.2,10-9.6,26-9.6,27.6
	c-8.4,7.6-18.8,18.4-28.8,27.6c8.8-22.8,16.8-50,17.6-56.4c0.4-1.6,0.4-3.6,0-5.2C52,74,40,63.2,25.2,64.4c-4,0.4-7.2,1.2-10.4,2.8
	C8.4,70.4,3.6,76.8,1.6,83.6C-0.4,90.4,0,104,0,117.2c0.4,27.6,1.6,64.8,3.2,74.4s9.6,15.6,19.6,15.2c5.2-0.4,10-2.8,13.6-6.4
	c3.6-4,40-50,48-61.2c0,0,10.8-0.4,16.8-4c3.6-2,11.6-7.2,15.2-13.6C122.4,112,118.4,102.8,110.4,96.4"/>
<path class="st0" d="M101.6,0C81.2,0,64.8,16.4,64.8,36.8s16.4,36.8,36.8,36.8s36.8-16.4,36.8-36.8C138,16.4,121.6,0,101.6,0"/>
</svg>
