<?xml version="1.0" encoding="utf-8"?>
<!-- Generator: Adobe Illustrator 25.3.1, SVG Export Plug-In . SVG Version: 6.00 Build 0)  -->
<svg version="1.1"
	 id="svg1422" xmlns:cc="http://creativecommons.org/ns#" xmlns:dc="http://purl.org/dc/elements/1.1/" xmlns:inkscape="http://www.inkscape.org/namespaces/inkscape" xmlns:rdf="http://www.w3.org/1999/02/22-rdf-syntax-ns#" xmlns:sodipodi="http://sodipodi.sourceforge.net/DTD/sodipodi-0.dtd" xmlns:svg="http://www.w3.org/2000/svg"
	 xmlns="http://www.w3.org/2000/svg" xmlns:xlink="http://www.w3.org/1999/xlink" x="0px" y="0px" viewBox="0 0 631.9 533.3"
	 style="enable-background:new 0 0 631.9 533.3;" xml:space="preserve">
<style type="text/css">
	.st0{fill:#072163;}
</style>
<sodipodi:namedview  bordercolor="#666666" borderopacity="1.0" id="base" inkscape:current-layer="layer1" inkscape:cx="410.36568" inkscape:cy="51.776597" inkscape:document-units="mm" inkscape:pagecheckerboard="true" inkscape:pageopacity="0.0" inkscape:pageshadow="2" inkscape:window-height="705" inkscape:window-maximized="1" inkscape:window-width="1366" inkscape:window-x="-8" inkscape:window-y="-8" inkscape:zoom="0.87673303" pagecolor="#ffffff" showgrid="false" units="px">
	</sodipodi:namedview>
<g id="g1497" transform="matrix(2.9169974,0,0,-2.9169974,24.794463,242.1371)">
	<path id="path1499" inkscape:connector-curvature="0" class="st0" d="M67.6,70.8l7.6-1.6c-0.3-1.4-0.6-2.7-0.9-3.8
		c-0.4-2-0.4-3.5,0.3-5.2c0.3-0.7,1.5-2.8,2.2-3.7l2.8,1.7c0,0-1.8,2.5-2.2,3.8c-0.2,0.6-0.2,1.6,0.1,2.8c0.3,1.2,0.6,2.5,0.9,3.8
		l13.4-2.7c0.3-0.1,0.4,0.3,0.2,0.5c-1.9,2.1-3.7,4.2-3.7,4.2s1.5,10.6-8.4,12.3c-9.6,1.7-11.9-6-12.6-11.4
		C67.3,71.1,67.4,70.8,67.6,70.8"/>
</g>
<path class="st0" d="M596.8,490.4c-8.8,9.5-21.3,15.2-35.1,15.2s-26.3-5.7-35.1-15.2c-8.8,9.5-21.3,15.2-35.1,15.2
	c-13.4,0-25.6-5.4-34.3-14.4v-0.1c-3.8-9.3-6.3-16.2-8.6-21.5c-2.4-5.4-31.7-66.6-34.5-71.3c-1.1-1.9-2.1-3.8-3.6-5.6
	c-1.4-1.8-3.3-3.5-4.8-4.7c-1.8-1.5-25.1-18.8-49.9-36.3c52.4-39.8,88.4-37.5,108.4-37c6.8,7.7,33.4,39,62.5,74.5
	c1.1,1.4,2.9,2.4,5,1.6c2.3-0.9,13.3-6.6,14.6-7.7c1.5-1.1,1.5-2.4,1.2-4.1l-34.8-151.9c-0.8-3.3-5.4-3.9-6.7-0.6L491.2,258
	c-16.6-11.8-44.9-26.5-84.9-31.3c-16.2-2-31.8-1-45.7,1.3c-12.3-18.5-39.5-57.7-48.6-69.1c-4.8-9-33.1-56.1-37.7-61.7
	c-2.4-2.9-4.8-4.9-8.1-6.4c-12.2-6-26.9-1-32.9,11.1c-4.3,8.6-3.1,17.7,2.4,25.7c5.5,8,25.2,29,38,42.4c5.7,6,10.4,10.8,11.9,12.3
	c5.4,4.9,35.4,33.1,54.2,50.3c-9.5,2.7-17.7,5.8-24.1,8.5c0,0-45.6-55.9-46.2-56.5c-2.1-2.4-4.5-4.1-4.5-4.1
	c-8.3-5.9-21.3-7.4-47.1-11.9c-4.2,8.7-5.8,18.3-1.5,29.8l-103.8-48c-11.2,92.1,24.7,160.1,141.5,211.3
	c5.5,2.4,118.7,51.2,131.5,56.5c10.1,14.8,35.9,50.7,42.5,59.8c0.7,5.9,2.4,17.5,3.7,25.8v0.4c-3.4,0.7-6.8,1.1-10.4,1.1
	c-13.8,0-26.3-5.7-35.1-15.2c-8.8,9.5-21.3,15.2-35.1,15.2s-26.3-5.7-35.1-15.2c-8.8,9.5-21.3,15.2-35.1,15.2s-26.3-5.7-35.1-15.2
	c-8.8,9.5-21.3,15.2-35.1,15.2c-13.8,0-26.3-5.7-35.1-15.2c-8.8,9.5-21.3,15.2-35.1,15.2c-13.8,0-26.3-5.7-35.1-15.2
	c-8.8,9.5-21.3,15.2-35.1,15.2s-26.3-5.7-35.1-15.2c-8.8,9.5-21.3,15.2-35.1,15.2v27.8h70.2h561.7v-27.8
	C618.1,505.5,605.5,499.9,596.8,490.4z"/>
</svg>
