<?xml version="1.0" encoding="utf-8"?>
<!-- Generator: Adobe Illustrator 24.2.0, SVG Export Plug-In . SVG Version: 6.00 Build 0)  -->
<svg version="1.1" id="Layer_1" xmlns="http://www.w3.org/2000/svg" xmlns:xlink="http://www.w3.org/1999/xlink" x="0px" y="0px"
	 width="396.5px" height="306.4px" viewBox="0 0 396.5 306.4" style="enable-background:new 0 0 396.5 306.4;" xml:space="preserve"
	>
<style type="text/css">
	.st0{fill:#072163;}
</style>
<path class="st0" d="M218.8,291.6c0-4.8-8.8-54.8-11.2-66.8l2.8-33.6c-5.2,12-12,26.4-16.8,37.2c0,5.6-0.4,14.4-0.4,24l12.8,39.2
	h-20.4c0-4.8,0.8-52.4,1.2-64.8c6-12.8,23.2-50.4,25.6-58c0.4-1.2,0.4-1.6,0.4-2c2-11.2-5.2-21.6-16-24c-10.8-2-21.2,4.8-23.6,15.2
	c-1.6,6.4-9.2,58.4-8.4,66c0.8,9.6,7.6,62.8,8.8,68H0v14.4h386.8V292h-168V291.6z"/>
<path class="st0" d="M255.2,213.6c10.8-7.6,13.6-22.8,6-33.6c-7.6-10.8-22.8-13.6-33.6-6c-10.8,7.6-13.6,22.8-6,33.6
	S244.4,221.2,255.2,213.6"/>
<path class="st0" d="M394.4,54c-1.2-1.6-3.2-2.4-5.2-2.4c-8.4-0.4-87.6,2-100.4,3.2C258.4,53.6,218,54,208,54
	c-9.6-2.8-52.4-15.6-78.4-21.6c-35.2-13.2-98.8-31.6-100-32C27.2-0.4,24.4,0,22.4,2c-3.2,2.8-3.2,7.6-0.4,10.8
	c0.8,0.8,1.2,1.2,2,1.6C26,15.6,196,94,196,94c3.6,1.6,7.6,2.4,11.6,1.6c2.8,0,179.2-28.8,183.2-30c1.2-0.4,2.4-0.8,3.2-1.6
	C397.2,61.6,397.2,57.2,394.4,54"/>
</svg>
