<?xml version="1.0" encoding="utf-8"?>
<!-- Generator: Adobe Illustrator 24.2.0, SVG Export Plug-In . SVG Version: 6.00 Build 0)  -->
<svg version="1.1" id="Layer_1" xmlns="http://www.w3.org/2000/svg" xmlns:xlink="http://www.w3.org/1999/xlink" x="0px" y="0px"
	 width="342.4px" height="297.2px" viewBox="0 0 342.4 297.2" style="enable-background:new 0 0 342.4 297.2;" xml:space="preserve"
	>
<style type="text/css">
	.st0{fill:#072163;}
</style>
<path class="st0" d="M321.6,35.2c-12-0.4-22,8.8-22.4,20.8S308,78,320,78.4s22-8.8,22.4-20.8C342.8,46,333.6,35.6,321.6,35.2"/>
<path class="st0" d="M246,52.8c-3.2,2.8-4.8,7.2-4,11.6c0.4,3.6,2.4,6.8,4.8,9.2l7.2,7.2L226.8,110l38,43.2l32.4-13.2l14.4,13.6
	c3.2,3.2,8,4.4,12.8,3.2c6.8-1.6,10.8-8,10-14.8c0,0-2.4-25.6-3.6-33.6c-0.8-6.4-4-11.6-7.6-14.4c-0.4-0.4-1.6-1.2-2-1.6
	c0,0-39.2-28-45.6-32.4l21.6-25.6c2.8-1.2,4.4-1.6,7.2-2.8c2.4-1.2,4-2,5.6-3.6c5.2-4.8,3.6-9.2,0.8-12.8c-2.4-2.4-4.8-3.2-7.6-2.8
	c-3.6,0.4-6.8,3.2-15.6,14.8l-6,6l-6.4-7.6L246,52.8z"/>
<path class="st0" d="M59.2,74.8c-4.4,3.6-7.2,9.6-6,16c0.8,3.6,2.4,6.8,5.2,9.2c1.6,1.6,12.4,9.6,12.4,9.6l-9.2,28.8h59.2l13.6-28.4
	l44.8,32.8c11.2,8.4,17.6,13.2,22.4,19.6c4.8,6.4,7.6,12.8,11.2,22.8l34,96.4l12-2.8l5.2,16c0,0.4,0.4,0.8,0.4,0.8
	c0.4,0.8,1.2,1.2,2,1.2c0.4,0,0.4,0,0.8,0h30h0.4c0.4,0,0.8-0.4,1.2-0.8c0-0.4,0-0.4,0-0.8v-2c0-3.6-1.6-6-5.2-6.8
	c-4-1.2-15.6-4.4-20.8-6l-17.6-100.8l2-18.8L216.8,116l-61.6-32.4l44.4-6.4l-1.2-12l12.4-1.6c2.8,1.2,4.4,1.6,7.2,2.8
	c2.8,0.8,4.4,0.8,6.4,0.8c7.2,0,9.2-4.8,9.2-9.2c0-3.2-1.2-5.6-4-7.2c-3.2-2-7.2-2-22,0.8h-98.8C103.2,45.6,98,40,96.4,38
	c-3.2-3.2-6.4-2.8-9.2-1.2c-0.4,0-1.2,0.8-1.6,0.8c-0.4,0-0.4,0.4-0.8,0.4c-0.4,0.4-0.8,0.8-0.4,1.2c0,0.4,0,0.4,0.4,1.2
	c0.4,0.4,7.6,13.2,7.6,13.2s-1.6,0.8-2,1.2C82.4,58.8,64.8,70.4,59.2,74.8"/>
<path class="st0" d="M1.2,281.2c0,0,0,0.4-0.4,0.4c-0.8,1.6,0,3.2,1.2,4c0,0,0.4,0.4,0.8,0.4l27.6,11.2h0.4c0.4,0,1.2,0,1.2-0.4
	c0.4-0.4,0.4-0.4,0.4-0.8c0.4-0.4,0.8-1.6,0.8-1.6c1.2-3.2,0.8-6-2.4-8.4c-2-1.6-7.6-6-12-9.6l71.6-88l32.4,32.4l-12,48.8l14,4.8
	c0,0-4.4,17.6-4.4,18s0,0.8,0,1.2c0,1.6,1.2,3.2,2.4,3.6c0.4,0,0.8,0,1.6,0h32.4c0.4,0,0.8,0,0.8,0c0.4,0,0.8-0.4,1.2-0.8
	c0-0.4,0.4-0.4,0.4-1.2v-2c0-4-2-6.4-6-7.6c-2.8-0.8-15.2-4.4-15.2-4.4s22.4-56.8,23.6-60.8c0.8-2.4,0.8-4.8,0.4-7.2
	c-0.4-2.8-1.2-5.2-2.8-7.6c-1.2-2.4-40.8-56-40.8-56H58L30.4,178h16L0,259.6l10,7.2L1.2,281.2z"/>
<path class="st0" d="M127.6,43.6c12-0.4,21.2-10.8,20.8-22.8S137.6-0.4,125.6,0c-12,0.4-21.2,10.8-20.8,22.8S115.6,44,127.6,43.6"/>
</svg>
