<?xml version="1.0" encoding="utf-8"?>
<!-- Generator: Adobe Illustrator 24.2.0, SVG Export Plug-In . SVG Version: 6.00 Build 0)  -->
<svg version="1.1" id="Layer_1" xmlns="http://www.w3.org/2000/svg" xmlns:xlink="http://www.w3.org/1999/xlink" x="0px" y="0px"
	 width="388px" height="389.2px" viewBox="0 0 388 389.2" style="enable-background:new 0 0 388 389.2;" xml:space="preserve">
<style type="text/css">
	.st0{fill:#072163;}
</style>
<path class="st0" d="M326.8,240.8c2.8-3.2,2.4-8.4-0.8-11.2c-1.6-1.6-3.6-2-5.6-2c-6,0.4-88,16.8-97.6,18.8
	c-11.6-0.4-62.4-2.4-79.6-1.6c-1.2,0-2,0-3.2,0.4c-2.4,0.4-4.8,1.2-7.2,2.4c-10,6-73.2,62.8-73.2,62.8c-6.4,5.6-6.8,15.2-1.6,21.6
	c1.6,1.6,3.2,2.8,4.8,3.6c0,0,95.6,49.2,103.6,52.8c1.2,0.4,2.8,0.8,4.4,0.8c4.8-0.4,8-4.8,7.6-9.2c-0.4-2.4-1.6-4.8-3.6-6
	c-7.2-5.6-48.4-32.8-76.8-51.6c17.6-10.8,41.6-26,53.6-34c18.8-3.2,71.6-12.8,71.6-12.8c2.8-0.4,5.2-1.2,7.2-2c0,0,86-28,93.2-30.8
	C325.6,242.4,326,242,326.8,240.8"/>
<path class="st0" d="M356,84c-28-42.4-71.2-63.2-102.4-72.8c-34-10.4-54-10.4-64.4-11.2c0,0-58.4,96-62.8,104c-2,3.2-2.4,6-2.4,8.4
	c0,7.6-0.4,32-0.8,47.6c1.6-0.4,3.6-1.2,5.6-1.2c10-1.6,18-1.6,24.4,0c-2.4-13.2-7.6-36.4-9.6-46.4c4.8-10.8,21.2-47.6,24-54.8
	c0.4-1.2,0.4-2.4,0-3.6c0-0.4-0.4-0.8-0.4-1.2l26.4-44c16.4,0.8,108.8,9.2,154.8,80c29.2,44.4,38,100,24.8,152.8
	c-11.6,46.8-38.8,85.2-74.8,104.8c-2,1.2-2.8,3.6-1.6,6c0.8,1.6,2.4,2.4,3.6,2.4c0.8,0,1.6,0,2-0.4c38-20.8,66.8-61.2,79.2-110.4
	C395.6,188.4,386.4,130,356,84"/>
<path class="st0" d="M210,168.8c1.6-12.8-7.2-24.8-20-26.4c-12.8-1.6-24.8,7.2-26.4,20c-1.6,12.8,7.2,24.8,20,26.4
	C196.4,190.4,208.4,181.6,210,168.8"/>
<path class="st0" d="M137.2,206.4c2.8,0,5.6-0.4,8.4-1.6c8.4-4,11.6-14,7.6-22.4c-2.8-6-8.8-9.2-15.2-9.2c-10,0-38,3.2-62.8,6
	l-68.8-2.8c-1.6,0-3.2,0.4-4.4,1.6c-2.4,2-2.8,6-0.4,8.4c0.8,0.8,2,1.6,3.6,2c2,0.4,68.4,10.4,68.4,10.4S131.6,206.4,137.2,206.4"/>
</svg>
