<?xml version="1.0" encoding="utf-8"?>
<!-- Generator: Adobe Illustrator 24.2.0, SVG Export Plug-In . SVG Version: 6.00 Build 0)  -->
<svg version="1.1" id="Layer_1" xmlns="http://www.w3.org/2000/svg" xmlns:xlink="http://www.w3.org/1999/xlink" x="0px" y="0px"
	 width="254.4px" height="311.7px" viewBox="0 0 254.4 311.7" style="enable-background:new 0 0 254.4 311.7;" xml:space="preserve"
	>
<style type="text/css">
	.st0{fill:#072163;}
</style>
<path class="st0" d="M137.4,213.3c4.4,4,10.4,6.4,16.8,6.4c13.6,0,24.8-8.4,24.8-26l55.2-0.4l-0.4-7.2l-18.8-5.6c0-1.2,0-2,0-3.2
	c-2-26.4-24-47.2-50.8-47.2c-28,0-51.2,22.8-51.2,51.2c0,4.4,0.4,8.8,1.6,12.8L137.4,213.3z"/>
<path class="st0" d="M224.2,311.7c15.2,0,28-11.2,30-26.8c2-16.4-10-31.2-26.4-33.2c-1.6,0-2.8-0.4-4.4,0
	c-8.8,0.4-55.2,5.6-81.2,10.8c-24.4-21.6-82-68-96.8-78.8L201,32.9c7.6-7.6,8-20,0.4-28c-8-7.2-20.4-6.4-28,1.6L30.6,169.3
	c-6-2.4-13.2,0.4-16,6.4c-0.8,1.2-1.2,2.8-1.2,4.4L0.2,276.9c-1.6,11.2,7.2,21.2,20.4,21.2h77.2l-44-49.2c-4,0.8-8,1.6-11.6,2.4
	c0-10.4-0.4-21.2-0.8-32.4l76,84.8c4,4.4,12.8,7.6,20.8,7.6C145.4,311.7,224.2,311.7,224.2,311.7"/>
</svg>
