<?xml version="1.0" encoding="utf-8"?>
<!-- Generator: Adobe Illustrator 24.2.0, SVG Export Plug-In . SVG Version: 6.00 Build 0)  -->
<svg version="1.1" id="Layer_1" xmlns="http://www.w3.org/2000/svg" xmlns:xlink="http://www.w3.org/1999/xlink" x="0px" y="0px"
	 width="285.1px" height="252.3px" viewBox="0 0 285.1 252.3" style="enable-background:new 0 0 285.1 252.3;" xml:space="preserve"
	>
<style type="text/css">
	.st0{fill:#072163;}
</style>
<path class="st0" d="M153.5,144.3c-4,19.2-23.2,31.6-42.4,27.6s-31.6-23.2-27.6-42.4s23.2-31.6,42.4-27.6
	C145.5,106.3,157.5,125.1,153.5,144.3"/>
<path class="st0" d="M143.1,251.9c-1.2,0-2.4,0-3.2,0c-17.6-0.8-36-10-36-30c0-22,20.4-28,32.4-26c17.6,2.4,100.8,28.4,148.8,46
	c-8.4,6.4-19.2,10.4-30.8,10.4c-10.4,0-19.6-3.2-27.6-8c-8,5.2-17.6,8-27.6,8c-10.4,0-19.6-3.2-27.6-8
	C162.7,248.7,153.5,251.9,143.1,251.9"/>
<path class="st0" d="M35.9,136.3c-2.4-18.4-7.2-50.8-11.2-73.2c0.4,0,0.4,0,0.8,0.4c17.2,3.6,34.4-7.2,38-24.8
	c3.6-17.2-7.2-34.4-24.8-38C21.5-2.9,4.3,7.9,0.7,25.5c-1.6,7.2-0.4,14,2.4,20l2.4,94.8c0.4,6.8,2.8,14,6.4,18.8l54.8,62
	c0.4-18.8,6.8-37.2,16.4-49.2C66.7,158.3,51.1,145.9,35.9,136.3"/>
</svg>
