<?xml version="1.0" encoding="utf-8"?>
<!-- Generator: Adobe Illustrator 24.2.0, SVG Export Plug-In . SVG Version: 6.00 Build 0)  -->
<svg version="1.1" id="Layer_1" xmlns="http://www.w3.org/2000/svg" xmlns:xlink="http://www.w3.org/1999/xlink" x="0px" y="0px"
	 width="319px" height="332px" viewBox="0 0 319 332" style="enable-background:new 0 0 319 332;" xml:space="preserve">
<style type="text/css">
	.st0{fill:#072163;}
</style>
<path class="st0" d="M314.3,122.8c-4.4-1.2-56.8-18.4-66.8-21.6c-5.6-4.8-27.6-22.8-41.6-34c0,11.2-1.6,25.6-5.6,37.2
	c15.2,7.6,31.6,15.2,38,17.2h0.4c9.2,2.8,68.8,12.8,72.8,13.6c1.6,0,2.8,0,4.4-0.8c3.2-2,4-6,2-9.2
	C317.1,124,315.9,123.2,314.3,122.8"/>
<path class="st0" d="M192.3,50.8c13.6,4.4,28.4-3.6,32.4-17.2c4.4-13.6-3.6-28.4-17.2-32.4c-13.6-4.4-28.4,3.6-32.4,17.2
	C170.7,32,178.7,46.8,192.3,50.8"/>
<path class="st0" d="M207.9,280c-14.4,0-26,11.6-26,26s11.6,26,26,26s26-11.6,26-26S222.3,280,207.9,280"/>
<path class="st0" d="M25.1,130.8c1.6,0.4,3.2,0,4.8-0.4c7.6-3.2,66.4-32,66.4-32s54.4-8,62.8-10c8.4-2,15.2-7.6,16.8-16
	c2.4-11.2-4.8-22-15.6-24.4c-4.4-0.8-8.4,0-12.4,1.2S87.5,74.8,87.5,74.8c-0.8,0.4-1.6,0.8-2,1.2l-62.4,42.4c-1.2,0.8-2.4,2.4-2.8,4
	C19.1,126,21.5,129.6,25.1,130.8"/>
<path class="st0" d="M165.1,138.4c-8.8-2-18.4,0.8-24.4,8.4c-1.2,1.6-2.4,3.6-3.6,5.6c-6.4,12.4-21.6,47.2-27.6,64.4
	C104.3,216,12.3,202,9.9,202s-4,0-6,1.2c-4,2.8-5.2,8-2.4,12c1.2,2,3.2,3.2,4.8,3.6L114.7,248c6,1.6,12.4-0.8,16.4-6l35.2-49.2
	c11.6,10.8,25.6,22,41.2,33.2l59.6,96.4c1.2,2,3.2,3.2,5.6,3.6c4.4,0.4,8.4-2.4,8.8-6.8c0.4-1.6,0-3.2-0.8-4.4l-50-103.6
	c-0.4-1.2-1.2-2-2-2.8c0,0-46.8-58.4-51.2-62C173.1,141.6,169.5,139.6,165.1,138.4"/>
</svg>
