<?xml version="1.0" encoding="utf-8"?>
<!-- Generator: Adobe Illustrator 24.2.0, SVG Export Plug-In . SVG Version: 6.00 Build 0)  -->
<svg version="1.1" id="Layer_1" xmlns="http://www.w3.org/2000/svg" xmlns:xlink="http://www.w3.org/1999/xlink" x="0px" y="0px"
	 width="410.2px" height="426.1px" viewBox="0 0 410.2 426.1" style="enable-background:new 0 0 410.2 426.1;" xml:space="preserve"
	>
<style type="text/css">
	.st0{fill:#072163;}
</style>
<path class="st0" d="M142.2,36.3c4.4-1.2,33.2-10.8,47.6-16.4c2.4,4.8,5.2,10.4,8.4,16c-36.8,2.8-71.6,12-103.2,26.8
	c4.4,2.8,9.6,4.8,15.2,4.8c6,0,11.6-2,16-5.2c4.4,3.2,10,5.2,16,5.2s11.6-2,16-5.2c4.4,3.2,10,5.2,16,5.2s11.6-2,16-5.2
	c4.4,3.2,10,5.2,16,5.2c10.8,0,20-6.8,24.4-15.6c0.4-0.8,0.8-1.2,0.8-2c1.2-3.6,0.8-7.2-0.8-10c-5.6-9.2-26.8-36-32-38.8
	c-0.4-0.4-1.2-0.4-1.6-0.8c-1.6-0.4-3.6-0.4-5.2,0c-3.6,1.2-52,24.8-53.6,26c-1.2,0.8-2,1.6-2.4,3.2c-0.8,2.8,0.8,6,3.6,6.8
	C140.2,36.3,141.4,36.7,142.2,36.3"/>
<path class="st0" d="M279.3,47.9c0,0.4,0,0.8,0,1.6c0,6.4-2.4,12.4-6.8,16.8c2,0.4,4.4,0.8,6.4,0.8c6,0,11.6-2,16-5.2
	c4.4,3.2,10,5.2,16,5.2c7.2,0,13.6-2.8,18.4-7.2C312.9,54.7,296.5,50.7,279.3,47.9"/>
<path class="st0" d="M254.6,31.9c-9.6,0-17.6,8-17.6,17.6s8,17.6,17.6,17.6c9.6,0,17.6-8,17.6-17.6S264.1,31.9,254.6,31.9"/>
<path class="st0" d="M100.6,396.3c4.8,0.8,18.4,2.8,30.8,4.4c2.4-10.8,6-19.6,9.6-25.6c-7.6,0.4-16.8,1.2-24,2
	c6.4-14.8,16.4-37.6,18-41.6c0.4-1.2,0.8-2.4,0.4-4c-0.8-2.8-4-4.8-7.2-3.6c-1.6,0.4-2.4,1.6-3.2,2.8c-3.2,5.2-26.8,45.6-30.8,53.2
	c-1.2,2.4-1.2,5.6,0,8.4C95.8,394.3,98.2,395.9,100.6,396.3"/>
<path class="st0" d="M174.9,379.1c-4.8-2.4-11.2-2-16,1.2c-7.2,5.2-8.8,14.8-3.6,22c2,2.8,5.2,5.2,8,6c0.8,0.4,47.6,16,52,17.2
	c1.6,0.4,3.6,0.8,5.2,0.4c0.8,0,1.2-0.4,2-0.8c6.4-3.2,48-25.6,52.4-28l2.8,5.6c3.6-1.6,6.4-5.2,6.8-9.2c0-1.2,0-2.4-0.4-3.6
	l78.8-35.6c1.2-0.4,1.6-2,1.2-3.2s-2-1.6-3.2-1.2l-78.8,35.6c-2-2.4-4.8-4-8-4.4c-2-0.4-4,0-5.6,0.8l2.4,5.6
	c-4.8,1.6-38.4,14-51.2,18.8C209.4,399.9,181.8,382.3,174.9,379.1"/>
<path class="st0" d="M176.6,332.3v39.2c12.4-1.6,15.6-9.6,15.6-19.6S188.9,333.9,176.6,332.3"/>
<path class="st0" d="M169.4,370.7v-38.8c-8.4,0-15.2,2-15.2,2v30.8L169.4,370.7z"/>
<path class="st0" d="M367.3,193.9c1.6,2.8,4.8,4.8,8.4,4.4c2-0.4,4-1.6,5.2-3.2l28.4-39.2c1.2-1.6,1.2-4,0-6
	c-1.6-2.4-4.8-2.8-6.8-1.2c-0.4,0.4-0.4,0.4-0.8,0.8c-8,8.4-15.6,16.8-22.8,24.8c-2-8-4.4-15.6-6.4-22.4c-0.8,10.8-3.6,24-6.8,37.2
	L367.3,193.9z"/>
<path class="st0" d="M341.3,136.3c-10,6.4-22,14-32.4,20.4c-1.2,0.8-2.4,2.4-2.8,4c-0.4,0.8-0.4,1.6-0.4,2.4l-1.6,48
	c0,2.4,1.6,4.4,3.6,5.2c2.8,0.8,5.6-0.8,6.8-3.6c0-0.4,0-0.4,0-0.8c2.4-16,4.4-30.8,6.4-42.8c11.2-4,22-8.4,31.6-12.4
	c5.2-2.4,8-8,6.4-13.6c-1.6-6.4-8-10-14.4-8.4C343.3,135.1,342.5,135.5,341.3,136.3"/>
<path class="st0" d="M397.8,227.9c-2-1.2-44.8-21.6-48.8-22.8c-2-0.8-4-1.2-6.4-1.2c-5.6,0.4-10.4,3.6-12.4,8.4L275,329.5
	c-0.4,0.8-0.4,1.6-0.4,2.4c0,2.8,2.4,5.2,5.2,5.2c2,0,3.2-0.8,4.4-2.4l64.4-96.8c8.8,2.4,18.8,5.2,27.6,7.2
	c-11.2,19.2-26.8,48-28,50.8c-0.4,0.8-0.8,2-0.8,2.8c0,3.2,2.4,5.6,5.6,5.6c1.6,0,3.2-0.8,4.4-2c0.8-0.8,44-56.8,44.4-57.6
	c1.2-1.6,2-3.6,2.4-6C404.1,233.9,401.8,229.9,397.8,227.9"/>
<path class="st0" d="M370.1,134.7c9.2,0,16.4-7.2,16.4-16.4s-7.2-16.4-16.4-16.4c-9.2,0-16.4,7.2-16.4,16.4S361.3,134.7,370.1,134.7
	"/>
<path class="st0" d="M159.8,124.7c1.6-0.4,2.8-0.8,3.6-2l6.4-8.4c1.6-2.4,3.6-3.6,6.8-3.6h34c1.2,0,2-0.8,2-2v-4.8c0-1.2-0.8-2-2-2
	h-38.4c-4,0-7.6,1.6-10.4,4.8l-6.8,8.4H65c4,4.4,7.2,14.4,8,22.4c14.4-2.8,37.6-6.8,37.6-6.8L159.8,124.7z"/>
<path class="st0" d="M69.4,94.7c0-9.2-7.6-16.8-16.8-16.8s-16.8,7.6-16.8,16.8s7.6,16.8,16.8,16.8C62.1,111.5,69.4,103.9,69.4,94.7"
	/>
<path class="st0" d="M21.4,126.3c-1.6,3.2-18.4,34-20,37.2c-1.2,1.6-1.6,4-1.2,6c0,0.8,0.4,1.6,0.8,2.4l23.6,48.8
	c1.2,2.4,4,4,6.8,3.2c3.2-0.8,5.6-4,4.8-7.2c0-0.4,0-0.8-0.4-0.8c-6.4-18-11.6-32.8-16-46c6.4-7.6,18.8-22,24-28.8
	c4-5.2,3.6-12.4-0.8-17.2c-5.2-5.6-13.6-6-19.2-0.8C23,123.9,22.1,125.1,21.4,126.3"/>
<path class="st0" d="M156.6,159.1h11.6c0,2,0,4,0,6c0,3.2,0.4,5.2,2,7.6c0.8,0.8,3.2,3.6,4.4,4.8l3.6-3.2c0,0-3.2-3.2-4.4-4.8
	c-0.4-0.8-0.8-2.4-0.8-4s0-4,0.4-6l20.4,0.4c0.4,0,0.4-0.4,0.4-0.8c-3.2-2.8-6.8-5.2-6.8-5.2s-0.8-16-15.6-15.6
	c-14.4,0-16,12-15.6,20.4C155.8,158.7,156.2,159.1,156.6,159.1"/>
<path class="st0" d="M272.5,229.1l-26.4-75.6c-0.4-1.6-2.8-1.6-3.6,0l-6.4,19.2c-10.8-1.2-32.8,1.2-52.8,17.6
	c-8.8,7.2-15.6,16.4-20.4,24.8c-6.8-2.8-16.4-6.4-24-9.6c6-6.4,14-15.6,15.6-18c1.2-1.6,1.6-3.2,2-5.2c1.2-6.8-3.6-13.2-10.4-14.4
	c-4.8-0.8-8.8,0.8-12.4,5.2c-3.2,4-18.4,29.6-19.6,32.8c-0.4,1.2-0.8,2.4-0.4,3.6c0,4,2.8,7.2,6.8,8.4c4,0.8,23.2,4,37.6,6.4
	c-1.6,3.6-3.2,6.4-4,8.8l-28.8,12.4l-25.6-38.4c0,0-9.6,3.2-14.4,11.6c-2,3.2-3.2,7.2-2.4,12.4c0.4,3.2,1.6,6,3.6,8.4
	s8.8,8.4,17.2,15.6l-61.2,26.4c17.6,20,40.4,26.4,65.2,28c22.8,1.6,39.6-2,67.2-12.4c2.8-1.2,40.8-16.8,57.6-24.4
	c-1.2,7.6-2.4,15.6-3.2,20.4l-15.6,2.8c-0.4,0-0.4,0-0.8,0.4c-1.2,0.4-1.6,1.2-2.4,2c0,0.4-0.4,0.8-0.4,0.8l-4.8,14.8v0.4
	c0,0.8,0.8,1.6,2,1.6h0.4c0,0,26-10.8,28.4-12c0.8-0.4,1.6-0.8,2-1.2c0.4-0.4,0.8-1.2,1.2-2c2-4.4,12.4-34.4,13.6-38.8
	c0.4-1.2,0.8-3.2,0.4-4.8c-0.4-4.8-4-7.2-7.6-8c0,0-1.2-0.4-3.2,0c-6.8,0.8-23.2,3.6-34.4,6c4.4-28,14.4-40,24.8-47.6
	c6.8,6.4,17.6,16.4,29.2,28c0.8,0.8,1.6,1.2,2.8,0.4c1.2-0.8,6.4-4,7.2-4.8C272.9,230.7,272.5,229.9,272.5,229.1"/>
</svg>
