<?xml version="1.0" encoding="utf-8"?>
<!-- Generator: Adobe Illustrator 24.2.0, SVG Export Plug-In . SVG Version: 6.00 Build 0)  -->
<svg version="1.1" id="Layer_1" xmlns="http://www.w3.org/2000/svg" xmlns:xlink="http://www.w3.org/1999/xlink" x="0px" y="0px"
	 width="339.2px" height="300.4px" viewBox="0 0 339.2 300.4" style="enable-background:new 0 0 339.2 300.4;" xml:space="preserve"
	>
<style type="text/css">
	.st0{fill:#072163;}
</style>
<path class="st0" d="M102.8,98.8c1.2,4,59.2,161.2,60.4,164.4c0.8,2.4,3.6,4.4,6.4,4.4c4,0,6.8-3.2,6.8-6.8c0-0.4,0-0.8,0-1.2
	c0-0.8-7.2-35.2-15.2-72.8c15.6-19.6,36.8-46.4,37.2-46.8c1.6-2,2.8-4.8,2.8-7.6c0-3.6-1.6-7.2-4.4-9.2c-2-1.6-53.6-44-59.6-48.4
	c-3.6-2.8-8.4-4.4-13.2-4.4c-12.4,0-22.4,10-22.4,22.4C101.6,94.4,102,96.4,102.8,98.8 M148,124c7.2,4,15.2,8.4,22.8,12.4
	c-4.8,7.6-10,16-15.2,24C153.2,147.6,150.4,134.8,148,124"/>
<path class="st0" d="M253.2,123.6c-3.2-2.8-31.2-23.6-42.4-32c-1.2-13.6-4.4-46.8-4.8-50.8c0-1.2-0.4-2.8-0.8-4
	c-3.2-9.2-13.2-13.6-22.4-10.4c-8.8,3.2-13.2,12.8-10.8,21.2c1.6,6.4,15.2,47.6,17.6,53.6c1.2,3.2,3.2,5.6,6,6.8l33.2,16v25.6
	c0,0.8,0,1.6,0.4,2.4l8.8,20c-21.2,11.6-35.6,34-35.6,60c0,37.6,30.8,68.4,68.4,68.4s68.4-30.8,68.4-68.4s-30.8-68.4-68.4-68.4
	c-8,0-15.6,1.2-22.4,4l-8.4-18.8v-16h22c6.4,0,8.8,2.4,8.8,5.6c0,3.2-2,6-8.8,6h-2.8c-2.8,0-5.2,2-5.2,4.8s2.4,5.2,5.2,5.2h4
	c13.6,0,18-8.4,18-14.8c0-8.4-6-16-19.2-16L253.2,123.6L253.2,123.6z M270.8,288.8c-31.6,0-57.2-25.6-57.2-57.2
	c0-21.6,11.6-40,29.2-50l23.2,52c0.8,2,2.8,3.2,5.2,3.2c0.8,0,1.6,0,2.4-0.4c2.8-1.2,4-4.4,2.8-7.2l-24-52.4c5.6-2,11.6-2.8,18-2.8
	c31.6,0,57.2,25.6,57.2,57.2C328,263.2,302.4,288.8,270.8,288.8"/>
<path class="st0" d="M68.4,163.2C30.8,163.2,0,194,0,231.6S30.8,300,68.4,300s68.4-30.8,68.4-68.4C136.8,193.6,106,163.2,68.4,163.2
	 M68.4,288.8c-31.6,0-57.2-25.6-57.2-57.2s25.6-57.2,57.2-57.2s57.2,25.6,57.2,57.2S100,288.8,68.4,288.8"/>
<path class="st0" d="M238,44c12,0,22-9.6,22-22c0-12-9.6-22-22-22c-12,0-22,9.6-22,22S226,44,238,44"/>
</svg>
