<?xml version="1.0" encoding="utf-8"?>
<!-- Generator: Adobe Illustrator 24.2.0, SVG Export Plug-In . SVG Version: 6.00 Build 0)  -->
<svg version="1.1" id="Layer_1" xmlns="http://www.w3.org/2000/svg" xmlns:xlink="http://www.w3.org/1999/xlink" x="0px" y="0px"
	 width="294.8px" height="384.8px" viewBox="0 0 294.8 384.8" style="enable-background:new 0 0 294.8 384.8;" xml:space="preserve"
	>
<style type="text/css">
	.st0{fill:#072163;}
</style>
<path class="st0" d="M156.8,39.6c2.4,3.2,26.8,31.2,26.8,31.2l9.6-16.4l-3.2-9.2l8.8-15.2l15.2,8.8l2.8-5.6L199.2,12
	c-1.2-1.6-2.8-2.8-4.4-4c-4.4-2.8-7.6-4.4-8-4.8c-11.2-6.4-26-2.8-32.4,8.4C148.8,20.8,150.4,32,156.8,39.6"/>
<path class="st0" d="M160,154.4c2.4,1.6,5.2,1.2,6.4,0.8l10.4-4.8l36,69.2c-14.4,9.6-23.6,25.6-23.6,44c0,29.2,23.6,52.8,52.8,52.8
	c29.2,0,52.8-23.6,52.8-52.8c0-29.2-23.6-52.8-52.8-52.8c-6.8,0-13.2,1.2-19.2,3.6l-38.4-74c-1.2-2.8-4.4-3.6-7.2-2.4l-10.4,4.8
	c-5.6-6.4-22.4-26-33.2-37.6C138,94.4,147.2,72,150.8,58c0.8-3.2,0.8-6.8-0.4-10c-3.2-8.8-12.8-13.2-21.6-10c-6,2-10,7.6-10.8,13.2
	c-2.8,15.6-8.4,54.8-8.4,54.8c0,1.2,0,2.4,0,3.6c0.4,2.4,2,4.8,3.6,6.4C113.2,116,158.4,153.2,160,154.4 M241.2,304.8
	c-23.2,0-41.6-18.8-41.6-41.6c0-14,7.2-26.8,18-34l19.2,36.8c0.8,2,2.8,2.8,4.8,2.8c0.8,0,1.6-0.4,2.4-0.8c2.8-1.6,3.6-4.8,2.4-7.6
	l-19.2-36.8c4.4-1.6,9.2-2.4,14-2.4c23.2,0,41.6,18.8,41.6,41.6C283.2,286,264.4,304.8,241.2,304.8"/>
<path class="st0" d="M48.4,134.4c-0.8,3.2-0.8,6.4,0.4,10c0.4,1.6,0.8,3.2,1.6,4.8c3.2,7.2,32.4,51.2,41.6,64.4
	c-1.6,14.4-6.4,56-8.8,75.2c-8.4-6-18.8-9.6-30.4-9.6C23.6,279.2,0,302.8,0,332c0,29.2,23.6,52.8,52.8,52.8s52.8-23.6,52.8-52.8
	c0-11.2-3.6-21.2-9.2-29.6c0.4-0.4,0.4-0.8,0.4-1.6c0,0,19.6-87.6,20-88c0-0.8,0.4-1.6,0.4-2.4c0-1.2,0-2.8-0.4-4
	c0-0.4-4-10.4-8.8-23.2c9.6,4.4,18,8.4,23.6,10.8c6.4,30,20,86.4,21.2,92c1.2,4.4,5.6,6.8,9.6,5.6c3.6-1.2,5.6-4.4,5.2-8
	c0,0-11.2-99.6-11.2-100.4c-0.4-3.6-2-6.4-4.4-8.8l0,0c-4-3.2-57.2-46.8-66-53.6c-0.8-0.4-0.8-0.8-1.2-0.8c-4-2.8-8.4-4.4-13.6-4.4
	C60.4,115.6,50.8,123.2,48.4,134.4 M53.2,373.2c-23.2,0-41.6-18.8-41.6-41.6c0-23.2,18.8-41.6,41.6-41.6c23.2,0,41.6,18.8,41.6,41.6
	C94.8,354.8,76,373.2,53.2,373.2"/>
</svg>
