<?xml version="1.0" encoding="utf-8"?>
<!-- Generator: Adobe Illustrator 24.2.0, SVG Export Plug-In . SVG Version: 6.00 Build 0)  -->
<svg version="1.1" id="Layer_1" xmlns="http://www.w3.org/2000/svg" xmlns:xlink="http://www.w3.org/1999/xlink" x="0px" y="0px"
	 width="392.8px" height="323.8px" viewBox="0 0 392.8 323.8" style="enable-background:new 0 0 392.8 323.8;" xml:space="preserve"
	>
<style type="text/css">
	.st0{fill:#072163;}
</style>
<path class="st0" d="M190,181.6c-3.6-5.6-10-9.2-16.8-9.2c-10.4,0-19.2,8-20.4,18.4c0,0.8,0,1.2,0,2c0,5.2,5.6,80.4,6,83.6
	c0,1.6,0.4,2.8,1.2,4.4c1.6,3.6,4.4,6,7.6,7.2c14,5.6,85.2,32,95.2,35.2c0.4,0,1.2,0.4,1.2,0.4c1.6,0.4,3.2,0,4.8-0.4
	c4-1.6,5.6-6.4,3.6-10c-0.8-1.2-1.6-2.4-2.8-3.2c-1.6-1.2-59.2-31.6-82.4-43.6c0.4-7.6,0.8-18.4,1.2-29.2
	c8.4,12.4,15.6,22.8,16.4,23.6l0.4,0.4c2.4,2.4,5.2,3.6,8.4,4c7.6,0.8,81.2,3.2,84.8,2.8c1.6,0,3.2-0.8,4.4-1.6
	c2.8-2.4,2.8-6.8,0.4-9.6c-0.8-0.8-2-1.6-3.2-2c-1.6-0.4-56.8-10.4-77.2-13.6C214.4,224.4,192.8,185.6,190,181.6"/>
<path class="st0" d="M240.4,92.4c5.2-9.6,20.4-52,21.2-56.8c0-0.4,0-0.8,0-1.2c0-2.8-2.4-5.2-5.2-5.6c0-12.8-10.4-23.2-23.6-23.2
	c-12.8,0-23.6,10.4-23.6,23.6s10.4,23.6,23.6,23.6c2.4,0,4.8-0.4,6.8-0.8c-0.4,0.8-1.2,2-1.6,2.8c-2.8,5.2-9.6,17.6-13.2,25.2
	c-5.6,1.2-32,8-38,9.6c2.8,6,5.6,16.8,3.6,30.8c13.6-6,41.2-20.8,46.4-24C238.4,94.8,239.6,93.6,240.4,92.4"/>
<path class="st0" d="M166,84.8c12,0,21.6-9.6,21.6-21.6S178,41.6,166,41.6s-21.6,9.6-21.6,21.6S154,84.8,166,84.8"/>
<path class="st0" d="M70,205.6c7.2-2.8,58.4-28,62.8-30.8c1.2-0.8,2.4-1.6,3.2-2.8c3.6-4,30.8-46.8,32.4-51.6c0.8-2,1.2-4,1.2-6.4
	c0-9.6-7.6-17.2-17.2-17.2c-6.4,0-12.4,3.6-15.2,9.2c-2.4,3.6-14.8,38.4-19.2,52c-14.4,8.4-52.8,32.8-55.6,36.4
	c-1.2,1.2-2,2.8-2,4.8c0,3.6,3.2,6.8,6.8,6.8C68.4,206,69.2,206,70,205.6"/>
<path class="st0" d="M76.4,26.4L61.6,72c-0.4,1.6,0.4,3.6,2,4c0.4,0,0.8,0,0.8,0c1.2,0,2.4-0.8,2.8-2c0,0,18.4-50,18.4-58.4
	C85.6,3.2,58.4,0,42.8,0C26.8,0,0,3.2,0,15.6C0,23.6,18.4,74,18.4,74c0.4,1.2,1.6,2,2.8,2c0.4,0,0.8,0,0.8,0c1.6-0.4,2.4-2.4,2-4
	L10.4,26.4c9.2,4,23.2,5.2,33.2,5.2C53.2,31.6,67.2,30.4,76.4,26.4 M43.6,25.6c-19.2,0-35.2-4-35.2-9.6s16-9.6,35.2-9.6
	s35.2,4,35.2,9.6S62.8,25.6,43.6,25.6"/>
<polygon class="st0" points="251.2,197.6 274,197.6 292.8,180.8 280.8,162.4 262,179.2 255.6,179.2 "/>
<polygon class="st0" points="340.4,137.6 348,137.6 352,119.6 328.8,119.6 309.6,136.4 321.6,154.8 "/>
<polygon class="st0" points="292.4,119.6 268.8,119.6 264.4,137.6 271.6,137.6 310.4,197.6 334,197.6 338,179.2 330.8,179.2 "/>
<polygon class="st0" points="223.6,130.8 219.2,148.4 227.2,158 215.2,167.6 210.8,186 220.4,197.6 245.6,197.6 250,179.6 
	240.4,179.6 243.2,168 255.2,168 260,148.4 247.6,148.4 250.4,138 258.4,138 262.8,119.6 238.4,119.6 "/>
<polygon class="st0" points="392.8,130.8 383.2,119.6 358,119.6 353.6,137.6 363.2,137.6 360.4,148 348.4,148 344,167.6 356,167.6 
	353.2,179.2 344,179.2 339.6,197.6 365.2,197.6 380,186.4 384.4,167.6 376.8,158 388.8,148.4 "/>
</svg>
