<?xml version="1.0" encoding="utf-8"?>
<!-- Generator: Adobe Illustrator 24.2.0, SVG Export Plug-In . SVG Version: 6.00 Build 0)  -->
<svg version="1.1" id="Layer_1" xmlns="http://www.w3.org/2000/svg" xmlns:xlink="http://www.w3.org/1999/xlink" x="0px" y="0px"
	 width="320.5px" height="374.5px" viewBox="0 0 320.5 374.5" style="enable-background:new 0 0 320.5 374.5;" xml:space="preserve"
	>
<style type="text/css">
	.st0{fill:#072163;}
</style>
<path class="st0" d="M315.3,155.1c2.8-0.8,5.2-3.2,5.2-6.4c0-4-2.8-7.6-7.6-7.2c-12.4,0.4-50,2.8-64.8,4
	c-6.8-2.8-27.6-11.2-48.4-20.8c2,9.2,2.4,21.2,0,34.4c20,4.8,44.4,8.8,44.8,8.8s0.8,0,1.6,0c0.8,0,1.6,0,2.4,0
	C267.3,165.1,308.1,156.7,315.3,155.1"/>
<path class="st0" d="M128.5,145.9c8,2,16.8-1.2,21.2-8.8c5.6-9.2,2.8-21.2-6.4-26.8c-2.8-1.6-6-2.8-9.2-2.8
	c-15.6-0.8-36.8-1.6-50.4-1.6c-3.2-20.4-8-46.8-10.8-61.6c10.8,0.4,20.4-7.6,22-18.4c2-12-6.4-23.6-18.4-25.6s-23.6,6-25.6,18
	c-0.8,6,0.4,11.6,3.6,16c0,0.4,0,0.8,0,1.2c0,0,3.2,62,5.2,83.6c0.4,5.2,4,9.2,9.2,10.8C75.7,132.3,108.9,141.5,128.5,145.9"/>
<path class="st0" d="M171.7,106.3c14,1.2,26.4-9.2,27.2-23.2c1.2-14-9.2-26.4-23.2-27.2c-14-1.2-26,9.2-27.2,23.2
	C147.3,92.7,157.7,105.1,171.7,106.3"/>
<path class="st0" d="M136.1,214.7c-12,26.8-27.6,72-33.2,88.4c-30,15.6-96.8,53.6-98.4,54.8c-2.4,1.6-4,3.6-4.4,6.4
	c-0.8,4.8,2.8,9.2,7.6,10c1.6,0.4,3.2,0,4.8-0.4c4.4-1.6,83.6-31.6,108-42l101.2-6c7.2-0.4,12.4-4.4,14-10.8
	c0.8-3.2,0.4-6.4-0.8-9.2c-2.4-5.2-44.8-80.4-54-94c-4.8-7.2-12.4-12-22-12C148.9,199.9,140.1,206.3,136.1,214.7 M166.1,263.5
	c10,13.2,18.8,24.8,28,36.4c-17.6,2.8-36.4,5.6-52.8,8C147.7,296.3,156.1,281.1,166.1,263.5"/>
</svg>
