<?xml version="1.0" encoding="utf-8"?>
<!-- Generator: Adobe Illustrator 24.2.0, SVG Export Plug-In . SVG Version: 6.00 Build 0)  -->
<svg version="1.1" id="Layer_1" xmlns="http://www.w3.org/2000/svg" xmlns:xlink="http://www.w3.org/1999/xlink" x="0px" y="0px"
	 width="347.2px" height="272.4px" viewBox="0 0 347.2 272.4" style="enable-background:new 0 0 347.2 272.4;" xml:space="preserve"
	>
<style type="text/css">
	.st0{fill:#072163;}
</style>
<path class="st0" d="M218,11.6c8,3.6,13.2,5.6,23.6,11.2c0,0.8,0,1.6-0.4,2.8c0,12.8,10,23.6,22.4,23.6c12.8,0,23.2-10,23.2-23.2
	c0-0.8,0-1.6,0-2.4c-0.4-2.4-0.8-4.8-1.6-7.6c-2.4-6.4-8.8-12.8-17.6-14.8C252-2.4,228.8,2.8,218,6.4C216,7.2,216,10.8,218,11.6"/>
<path class="st0" d="M213.2,105.6c2-2,3.2-5.2,3.2-8c0-3.6-2-7.2-4.8-9.2C193.6,76,172,62,148.4,47.6c-5.2-3.2-12-4.4-18.8-2.4
	c-10.8,3.6-16.4,15.2-14,25.6c2.4,10.4,46.4,168.4,48,172.8c0.8,2.8,3.6,4.8,6.8,4.8c4,0,6.8-3.2,6.8-6.8v-0.4
	c0-0.8-5.6-41.6-11.2-83.6C185.2,136.4,211.6,107.6,213.2,105.6 M157.2,94.4c10.4,3.6,18.8,6.4,28,9.6c-6.8,8.8-14.4,19.2-22.4,30
	C160.4,118.8,158.8,106,157.2,94.4"/>
<path class="st0" d="M236.4,109.6v11.2c0,0.8,0,1.6,0.4,2.4L246,144c-21.2,11.6-35.6,34-35.6,60c0,37.6,30.8,68.4,68.4,68.4
	s68.4-30.8,68.4-68.4s-30.8-68.4-68.4-68.4c-8,0-15.6,1.2-22.4,4l-8.8-20v-4.8c14.4,0,56.8,0,56.8,0c0.4,0,0.8,0,1.2,0
	c2-0.4,4-2,4.8-3.6c0.8-2,6-14.8,8.8-21.6c0.8-2.4-0.4-5.2-2.8-6.4s-5.2,0.4-6.4,2.8l-6.4,16c-6-0.8-41.2-6.4-48.8-7.6
	C250.4,82,238,48,233.6,38.4c-4-8.8-12.8-12.8-21.2-9.6C204,32,199.6,41.6,202.8,50c0.4,0.8,0.4,1.2,0.8,2
	C211.2,67.2,236.4,109.6,236.4,109.6 M278.8,261.2c-31.6,0-57.2-25.6-57.2-57.2c0-21.2,11.6-40,29.2-50l23.2,52
	c0.8,2,2.8,3.2,5.2,3.2c0.8,0,1.6,0,2.4-0.4c2.8-1.2,4-4.4,2.8-7.2l-23.2-52c5.6-2,11.6-2.8,18-2.8c31.6,0,57.2,25.6,57.2,57.2
	C336.4,235.6,310.4,261.2,278.8,261.2"/>
<path class="st0" d="M68.4,135.6C30.8,135.6,0,166.4,0,204s30.8,68.4,68.4,68.4s68.4-30.8,68.4-68.4S106,135.6,68.4,135.6"/>
</svg>
