<?xml version="1.0" encoding="utf-8"?>
<!-- Generator: Adobe Illustrator 24.2.0, SVG Export Plug-In . SVG Version: 6.00 Build 0)  -->
<svg version="1.1" id="Layer_1" xmlns="http://www.w3.org/2000/svg" xmlns:xlink="http://www.w3.org/1999/xlink" x="0px" y="0px"
	 width="321.7px" height="308.4px" viewBox="0 0 321.7 308.4" style="enable-background:new 0 0 321.7 308.4;" xml:space="preserve"
	>
<style type="text/css">
	.st0{fill:#072163;}
</style>
<path class="st0" d="M321.6,116c-2-26.8-20.8-38.4-27.2-38c-6,0.4-20.8,12-22,34c-3.2,0-6.8,0-10.4,0c-2-9.6-7.2-34.8-11.2-50
	c-2.4,15.2-10.4,28-20,37.6c2.4,4.8,4.4,8.8,6.4,12.4c-6,0-11.6,0.4-16.4,0.8c0.4-12.4,0.8-30.8,0-43.6c-0.4-3.6-1.2-7.6-3.6-10.8
	c-6.4-9.6-19.6-12-29.2-5.6c-7.6,5.2-10.8,14.4-8.4,22.4c5.6,22.4,16.8,56,16.8,56c2,5.6,7.2,9.2,13.2,8.8s40.4-6,64.8-10
	c5.2,18.8,20,27.2,25.2,26.8C306,156.8,323.2,142.8,321.6,116"/>
<path class="st0" d="M225.2,48c11.6,8.8,28.4,6,37.2-5.6c8.8-11.6,6-28.4-5.6-37.2c-11.6-8.8-28.4-6-37.2,5.6
	C210.8,22.8,213.6,39.2,225.2,48"/>
<path class="st0" d="M163.6,134c-8.8-4.8-20-4.4-28,2.4c-0.4,0.4-1.2,1.2-2,1.6C114,156.4,4.4,289.2,0.8,296.8
	c-0.4,0.8-0.8,2-0.8,3.2c-0.4,4.4,3.2,8,7.6,8.4c2,0,3.6-0.4,4.8-1.6c2-1.6,103.6-89.6,141.2-122c10,5.2,20.8,10.4,32,15.2
	c-27.6,24.4-70.8,64.4-75.2,71.6c-2.8,4-1.6,9.6,2.8,12.4c2.8,1.6,6,2,8.4,0.8c10-4.8,97.2-66.8,107.2-77.2c6-6,6.4-16,1.2-22.4
	c0-0.4-1.2-1.2-1.6-1.6C218.8,174,171.2,138,163.6,134"/>
</svg>
