<?xml version="1.0" encoding="utf-8"?>
<!-- Generator: Adobe Illustrator 24.2.0, SVG Export Plug-In . SVG Version: 6.00 Build 0)  -->
<svg version="1.1" id="Layer_1" xmlns="http://www.w3.org/2000/svg" xmlns:xlink="http://www.w3.org/1999/xlink" x="0px" y="0px"
	 width="224px" height="406.8px" viewBox="0 0 224 406.8" style="enable-background:new 0 0 224 406.8;" xml:space="preserve">
<style type="text/css">
	.st0{fill:#072163;}
</style>
<path class="st0" d="M223.2,86.4c-1.2-2.4-4-3.2-6.4-2.4c-2.4,0.4-54,16-64,19.2c-0.8,0.4-1.2,0.4-1.6,0.4s-0.8,0.4-1.6,0.8
	c-6.8,2.8-31.6,14.8-46,22.8c9.6,3.2,16,10,24.4,23.6c12-9.6,28.4-23.2,33.2-27.6c12.4-5.6,57.6-27.2,60.4-28.8
	C224,92.8,224.8,89.2,223.2,86.4"/>
<path class="st0" d="M135.6,21.6l2.8-0.4l26,4l-4-25.2l-23.6,11.6L134,12c-2.8,0.4-4.4,2.8-4,5.6C130.4,20,132.8,22,135.6,21.6"/>
<path class="st0" d="M20,221.6c2.4,0,4.8-0.8,6.8-2c3.2-1.6,29.6-22,44.8-33.2c4-2.8,6.8-5.2,10-8.4s6-8.4,6-13.6
	c0-10.8-8.8-19.2-19.6-19.2c-3.6,0-7.2,1.2-10,2.8c-0.8,0.4-2.4,2-4,3.6c-5.6,5.6-18,20.4-28,32.4c-5.2-20-12-45.2-13.2-49.6
	c0,0-0.4-0.8-0.4-1.6l4.8-16l-0.4-5.2l14.4-48.8c6,0.8,16.8,0.4,23.6-11.2C62,40,60,28.4,58.4,22.4C56,14.4,51.2,9.2,44,6.8
	c-7.2-2-14.4-0.4-20.8,5.2c-4.8,4-12.4,12.8-12.8,26.4C10,52,18.4,58,24,60.4L9.6,109.2l-2.8,4l-6,20.8c-0.4,0.8-0.4,1.6-0.4,1.6
	c-0.4,8,6,67.6,8.4,77.2C10,218,14.4,221.6,20,221.6 M17.6,38.4C18,27.6,24.4,20.8,28,17.6c4.4-3.6,8.8-4.8,13.6-3.6s8,4.8,9.6,10.4
	c1.2,4.8,2.8,14-2.8,23.2s-14,8.4-18.8,6.8C24.8,53.2,17.2,49.2,17.6,38.4"/>
<path class="st0" d="M51.6,107.6c0,12.8,10.4,23.6,23.6,23.6c12.8,0,23.6-10.4,23.6-23.6C98.8,94.8,88.4,84,75.2,84
	C62,84,51.6,94.4,51.6,107.6"/>
<path class="st0" d="M121.2,227.6c-1.6-0.8-3.6-2.4-6.8-3.2c-2.4-0.8-4.8-1.2-7.2-1.2c-11.6,0-21.2,8.4-23.2,20
	c-2,11.2-3.6,63.2-3.6,85.2c-21.2,16.4-69.6,56.4-77.6,64c-1.6,1.6-2.4,3.6-2.8,6c0,4.8,3.6,8.4,8,8.4c1.2,0,2.4-0.4,3.6-0.8
	c8-4,90.4-53.6,94.8-57.6c2.4-2,4-4.4,4.8-7.2c0.4-0.8,0.8-2,1.2-3.6c25.6-12.4,64.8-32,68-34.8c3.2-2.4,5.2-5.6,6-9.6
	c0.8-4.8-0.8-9.2-4-12.4C174,271.2,134,236,121.2,227.6 M120,307.6c2-9.6,4-19.6,6-28.8c6.4,4,12.8,8.4,18.8,12
	C137.2,296,128.4,302,120,307.6"/>
</svg>
