<?xml version="1.0" encoding="utf-8"?>
<!-- Generator: Adobe Illustrator 24.2.0, SVG Export Plug-In . SVG Version: 6.00 Build 0)  -->
<svg version="1.1" id="Layer_1" xmlns="http://www.w3.org/2000/svg" xmlns:xlink="http://www.w3.org/1999/xlink" x="0px" y="0px"
	 width="354.4px" height="311.7px" viewBox="0 0 354.4 311.7" style="enable-background:new 0 0 354.4 311.7;" xml:space="preserve"
	>
<style type="text/css">
	.st0{fill:#072163;}
</style>
<path class="st0" d="M243.2,155.7c2.4,0,4-2,4-4V12.1c0-2.4-2-4-4-4c-2.4,0-4,2-4,4v139.2C239.2,153.7,240.8,155.7,243.2,155.7"/>
<path class="st0" d="M36.4,231.3c0,2.4,2,4,4,4c2.4,0,4-2,4-4v-144c0-2.4-2-4-4-4c-2.4,0-4,2-4,4V231.3z"/>
<path class="st0" d="M160.8,194.1c12.4-3.2,19.2-16,16-28.4s-16-19.2-28.4-16s-19.2,16-16,28.4S148.4,197.7,160.8,194.1"/>
<path class="st0" d="M109.6,118.9c-0.4,0.4-0.8,0.4-1.6,0.8c-1.6,1.2-2.4,2.8-3.2,4.4c-2,3.6-20.4,49.6-21.2,52
	c-1.2,3.6-1.2,7.2-0.4,10.8c2.8,9.6,12.8,15.6,22.4,12.8c6.8-2,12-7.6,13.2-14s4.8-38,6-50.4c10.8-7.2,35.2-24,41.6-28.8l74.4,112.8
	c-7.2,2.4-34,12-46.4,16.4c-10.4-8.4-34.8-28-39.2-30.8c-0.8,3.6-2,8.4-4.4,15.6c-1.6,5.2-3.6,10.4-6,15.6
	c13.6,6.4,40.8,18.8,43.6,19.6c1.6,0.8,3.2,0.8,4.8,0.8c1.6,0,2-0.4,3.2-0.8c3.2-1.2,50.4-26,50.8-26.8c0,0,15.2,23.2,17.6,26.8
	c0.8,1.2,1.2,3.2,2,5.6L0,293.3c8.4,11.2,22,18.4,36.8,18.4c12,0,22.8-4.4,30.8-12c8,7.2,19.2,12,30.8,12c12,0,22.8-4.4,30.8-12
	c8,7.2,19.2,12,30.8,12c12,0,22.8-4.4,30.8-12c8,7.2,19.2,12,30.8,12c14.8,0,28-7.2,36.4-18c0.4,0.4,1.2,0.4,1.6,0.8
	c10.8,4.4,24,6,35.6,5.2c17.6-1.6,32.4-8.4,42.8-18.4c9.2-8.8,14.8-20,16.4-30.8l-70,8.4c-6.4-4-12.4-6.8-14-8.8
	c-0.8-2.8-113.2-173.6-115.6-177.2s-3.6-20.4-9.6-29.6L120,4.9c-3.6-5.6-8-8-16.8,2c-7.6,8.8-5.2,14-2.8,18.4
	c0.8,1.2,20,30.4,20,30.4c1.6,2.4,3.2,4.4,4,5.6c7.2,7.6,22,13.6,24,16.8c2.4,3.6,10.8,16.8,10.8,16.8
	C149.2,99.7,111.2,118.1,109.6,118.9"/>
</svg>
