<?xml version="1.0" encoding="utf-8"?>
<!-- Generator: Adobe Illustrator 24.2.0, SVG Export Plug-In . SVG Version: 6.00 Build 0)  -->
<svg version="1.1" id="Layer_1" xmlns="http://www.w3.org/2000/svg" xmlns:xlink="http://www.w3.org/1999/xlink" x="0px" y="0px"
	 width="286.7px" height="377.1px" viewBox="0 0 286.7 377.1" style="enable-background:new 0 0 286.7 377.1;" xml:space="preserve"
	>
<style type="text/css">
	.st0{fill:#072163;}
</style>
<path class="st0" d="M118.5,320.2c4-3.6,16.4-16,29.2-28.8c-0.4,10.8-0.4,21.2-0.4,29.2c-32,10.8-106.4,37.6-109.2,38.8
	c-2.4,1.2-4,2.8-4.8,5.2c-1.6,4.8,0.8,10,5.6,12c1.6,0.4,2.8,0.8,4.4,0.4c0.4,0,0.8,0,1.2-0.4c14-2.8,113.2-25.6,124.8-28.8
	c4.8-1.2,9.2-5.6,10.8-10.8c0-0.4,0-0.4,0.4-0.8c2-6.8,14.4-78.8,16-92.4c0-0.8,0-1.2,0.4-2c0.8-12.8-8.8-24-22-25.2
	c-7.2-0.4-14.4,2.4-18.8,7.6c-14,16-39.6,48.4-52.4,65.2c-28-10.4-87.2-30-92.4-31.6c-4-1.2-8.4,0.4-10.4,4c-2,4-0.8,8.8,3.6,11.2
	c8,4.4,95.2,48,98.4,49.2C108.1,325,114.1,323.8,118.5,320.2"/>
<path class="st0" d="M142.5,125.8c13.6,1.6,25.6-8.4,26.8-21.6c1.6-13.6-8.4-25.6-21.6-26.8c-13.6-1.6-25.6,8.4-26.8,21.6
	C119.3,112.6,128.9,124.6,142.5,125.8"/>
<path class="st0" d="M237.7,48.6c13.6,1.6,25.6-8.4,26.8-21.6c1.6-13.6-8.4-25.6-21.6-26.8c-13.6-1.6-25.6,8.4-26.8,21.6
	C214.5,35,224.1,47,237.7,48.6"/>
<path class="st0" d="M284.9,62.6c2-2.4,2.4-5.6,0.8-8.4c-2-3.2-6.4-4.4-9.6-2.4l-0.4,0.4c-8.8,6.4-40,29.6-56.4,42.4
	c-6.8,3.6-32.8,19.2-48,28.8c0.8,0.8,2,1.2,2.8,2c8.4,6,15.2,15.2,20,26c12-11.2,36.4-35.6,40.8-40l0.4-0.4c5.6-5.2,40.8-40,49.2-48
	L284.9,62.6"/>
<path class="st0" d="M146.1,179c12-2,20-13.2,18-24.8s-13.2-19.6-24.8-17.2c-1.2,0.4-2.4,0.4-3.6,0.8c-7.2,2.4-24.8,9.6-40.4,15.6
	c6.4-22,14-48.4,16.4-57.6c0.8-3.2,0-6.4-2.4-8c-3.2-2.4-8-2-10.8,1.2c-0.4,0.8-0.8,1.2-1.2,2c0,0-24.4,54.8-34.4,80.4
	c-0.4,0.8-0.4,1.6-0.8,2.4c-1.2,6.8,3.2,13.6,10.4,14.8c1.2,0.4,2.8,0.4,4,0C82.9,187.4,140.1,179.8,146.1,179"/>
</svg>
