<?xml version="1.0" encoding="utf-8"?>
<!-- Generator: Adobe Illustrator 24.2.0, SVG Export Plug-In . SVG Version: 6.00 Build 0)  -->
<svg version="1.1" id="Layer_1" xmlns="http://www.w3.org/2000/svg" xmlns:xlink="http://www.w3.org/1999/xlink" x="0px" y="0px"
	 width="370.4px" height="244.7px" viewBox="0 0 370.4 244.7" style="enable-background:new 0 0 370.4 244.7;" xml:space="preserve"
	>
<style type="text/css">
	.st0{fill:#072163;}
</style>
<path class="st0" d="M231.1,204.8c-3.6,9.6-2.4,21.2,5.2,29.6c10.4,12,29.2,14,40.8,3.2c4.8-4.4,7.6-9.2,9.2-14.8
	c2.8-10,22-89.2,22.8-102.4c1.6-14.4,1.6-39.6,0.4-64.4c8,15.2,16.8,31.6,22.4,42.4c-3.2,2.4-6.8,5.2-10.8,8c0,4.4-0.4,9.6-1.2,15.6
	c-1.6,12.4-5.2,31.6-9.6,51.2c19.2-20.4,49.6-52.8,55.2-58.4c4-4,6-9.6,4.4-15.2c-0.4-2.4-1.6-4.4-2.8-6.4
	c-7.2-11.6-53.6-80.4-63.6-90.4c-3.6-4-10.8-3.6-15.2,0.4c-1.2,1.2-1.6,2-2.4,3.2L12.3,159.6c-10.4,6-14.8,20-10.8,33.2
	c4,14,15.6,24.4,21.6,22.4c10.4-3.2,4.4-27.6-5.2-46.8l266-149.2c-2,23.2-7.2,80-8.4,94.4C266.7,130.8,233.9,196.8,231.1,204.8"/>
<path class="st0" d="M239.9,132.4c-4-20.8-24.4-34.8-45.2-30.4c-20.8,4-34.8,24.4-30.4,45.2c4,20.8,24.4,34.8,45.2,30.4
	C230.3,173.6,244.3,153.2,239.9,132.4"/>
</svg>
