<?xml version="1.0" encoding="utf-8"?>
<!-- Generator: Adobe Illustrator 24.2.0, SVG Export Plug-In . SVG Version: 6.00 Build 0)  -->
<svg version="1.1" id="Layer_1" xmlns="http://www.w3.org/2000/svg" xmlns:xlink="http://www.w3.org/1999/xlink" x="0px" y="0px"
	 width="407.2px" height="447.6px" viewBox="0 0 407.2 447.6" style="enable-background:new 0 0 407.2 447.6;" xml:space="preserve"
	>
<style type="text/css">
	.st0{fill:#072163;}
</style>
<path class="st0" d="M139.2,304l-2.8-4l-12-0.8c-2,0-4-1.2-5.2-2.8l-2-2.4c2.4-2,9.2-7.2,11.6-8.8c4-3.2,6.4-7.6,6.4-13.6v-0.4h-6.8
	v0.4c0,1.6-0.4,5.6-4,8.4c-2.4,2-9.6,7.2-11.6,9.2h-4c-2,0-4-1.2-5.2-2.8l-7.2-9.2c-9.6,9.2-10.8,24-2.8,34.8
	c8.8,11.6,25.2,13.6,36.8,4.8C134.4,313.6,137.6,308.8,139.2,304"/>
<path class="st0" d="M158,216c2.8,2.8,57.6,54,60.4,56c3.2,2.8,8,4.8,12.8,5.2c12,0.8,22.4-8.4,23.2-20.4c0.4-3.6-0.4-7.2-2-10.4
	c0,0-24.8-53.2-33.6-71.2c20.4-16.8,60-54.8,62.8-58.4c2.4-2.8,2-6.8-0.4-9.2c-2-2.4-6-2.8-8.8-1.2c-2.8,2.4-74.8,53.6-76.8,55.2
	c-2.8,2.4-4.8,6-4.8,10c0,0.8,0,2,0.4,2.8c1.2,5.2,4.8,21.6,8.8,38.8l-23.2-14c-2.8-10.4-21.6-73.6-23.6-80
	c-0.4-1.6-2.8-4.8-7.2-4.4c-3.6,0.4-5.6,4-5.6,6.8c0.4,4.4,13.2,85.2,14.4,88.4C155.2,212.4,156.4,214.4,158,216"/>
<path class="st0" d="M230.8,105.6c8,0,16-1.6,23.6-5.6c26-12.8,36.8-44.8,23.6-70.8C268.8,10.8,250,0,230.8,0c-8,0-16,1.6-23.6,5.6
	c-26,12.8-36.8,44.8-23.6,70.8C192.8,94.8,211.6,105.6,230.8,105.6 M212.4,15.2c6-2.8,12-4.4,18.4-4.4c16,0,30.4,8.8,37.6,23.2
	c4.8,10,5.6,21.2,2,32c-3.6,10.4-11.2,19.2-20.8,24c-6,2.8-12,4.4-18.4,4.4c-16,0-30.4-8.8-37.6-23.2
	C183.2,50.4,191.6,25.6,212.4,15.2"/>
<path class="st0" d="M96,215.2c1.2,2.4,4,4,7.2,2.8l9.2-4c6,7.2,27.6,32,39.2,43.6c1.6,10,5.6,40.8,6.8,48.4
	c1.6,9.2,10.4,15.6,20.4,12.8c9.2-2.8,12.8-13.2,10.4-20s-18.8-48-19.2-50c-0.8-1.6-2-2.8-2.8-3.6c-0.8-0.8-46.8-41.6-48-42
	c-2-1.6-4.8-2-7.2-1.2l-8.4,3.6L76,144c22.8-13.2,31.6-42,19.6-66c-8.8-17.6-26.8-28-45.2-28c-7.6,0-15.2,1.6-22.4,5.2
	C3.2,67.6-7.2,98,5.2,122.8c8.8,17.6,26.8,28,45.2,28c5.2,0,10.4-0.8,15.6-2.4L96,215.2z M50.8,140c-15.2,0-28.4-8.4-35.2-22
	C6,98.4,14,74.8,33.2,65.2c5.6-2.8,11.2-4,17.6-4c15.2,0,28.4,8.4,35.2,22c9.2,18.4,2.8,40-14.4,50.8l-16-35.6
	c-1.2-2.8-4.4-4-7.2-2.8c-2.8,1.2-4,4.4-2.8,7.2l16,35.6C58,139.2,54.4,140,50.8,140"/>
<path class="st0" d="M340.8,248v-0.4c-11.6,48.4-38.8,92-73.2,124.4c-29.6,27.6-80,60.8-152,60.8v14.8c26.5,0,52-4.5,75.9-12.8
	c0.8-0.3,1.7-0.6,2.5-0.9c0.9-0.3,1.7-0.6,2.5-0.9c0.7-0.3,1.5-0.6,2.2-0.8c0.8-0.3,1.7-0.6,2.5-1c0.9-0.3,1.8-0.7,2.6-1.1
	c0.2-0.1,0.5-0.2,0.7-0.3c1.8-0.7,3.5-1.5,5.2-2.2c0.1,0,0.1-0.1,0.2-0.1c1.8-0.8,3.6-1.6,5.4-2.5c0.9-0.4,1.9-0.9,2.8-1.3
	c0.9-0.5,1.8-0.9,2.8-1.4c0.9-0.5,1.8-0.9,2.7-1.4c2.2-1.2,4.4-2.3,6.5-3.6c0.8-0.4,1.6-0.9,2.5-1.4c2-1.1,3.9-2.3,5.8-3.5
	c0,0,0,0,0,0c0.9-0.5,1.7-1.1,2.5-1.6c0.1-0.1,0.3-0.2,0.4-0.3c0.7-0.4,1.4-0.9,2.1-1.4c0.2-0.1,0.5-0.3,0.7-0.5
	c0.1-0.1,0.2-0.1,0.3-0.2c0,0,0.1-0.1,0.1-0.1c38.3-25.2,69.8-61.4,90.9-104.4c0.5-0.9,0.9-1.9,1.4-2.8c0.2-0.4,0.4-0.9,0.6-1.3
	c3.7-7.8,7-15.7,9.8-23.7c0.3-0.9,0.6-1.7,0.9-2.6c0.1-0.3,0.2-0.6,0.3-0.9c1.2-3.4,2.3-6.8,3.4-10.3h55.1V248H340.8z"/>
</svg>
