<?xml version="1.0" encoding="utf-8"?>
<!-- Generator: Adobe Illustrator 24.2.0, SVG Export Plug-In . SVG Version: 6.00 Build 0)  -->
<svg version="1.1" id="Layer_1" xmlns="http://www.w3.org/2000/svg" xmlns:xlink="http://www.w3.org/1999/xlink" x="0px" y="0px"
	 width="358.4px" height="349.8px" viewBox="0 0 358.4 349.8" style="enable-background:new 0 0 358.4 349.8;" xml:space="preserve"
	>
<style type="text/css">
	.st0{fill:#072163;}
</style>
<path class="st0" d="M116.4,119.4c0.8,24.4,9.2,123.2,11.6,135.6c1.2,6,7.2,7.6,11.6,6c2.8-1.2,4.4-3.6,4.8-6.4
	c0.4-2.8,3.2-56.8,6.4-112.8c4-2.4,32-18.8,37.2-22c4.8-0.8,14.4-3.2,23.6-5.6c-7.6-6-14.4-13.6-20.8-21.6
	c-6.4,3.6-10.4,5.6-13.2,7.6c0,0-0.4,0-0.4,0.4c-5.2,3.6-24.8,20.8-25.2,21.6c0-0.8,0.8-18.4,1.2-25.6c8.8-7.6,27.2-24,28-24.8
	c16.8,6.8,48.4,18.8,53.2,20.4c5.2,1.6,10.8,1.2,16-1.2c8.4-4,13.2-12.4,13.2-20.8c0-2.8-0.8-6-2-8.8c-2.8-6.4-8.8-11.2-16-12.8
	C233.2,46.2,182,41,178.4,41c-2.4,0-4.4,0.8-5.6,1.2c-1.6,0.8-3.2,2-4.8,3.6c-1.2,1.2-8.4,10.4-12.8,15.6c0.8-20.4,1.2-34.8,0.8-38
	c-0.4-3.6-0.8-6.4-2-9.2c-5.6-12.4-20-17.6-32.4-12c-8.4,4-13.6,11.6-14,22.4c-0.4,9.6,0.8,24.8,2,34.4
	C112,84.2,115.2,111.8,116.4,119.4"/>
<path class="st0" d="M226,118.6c-14.4,4.8-22.4,20.8-17.6,35.6c4.8,14.8,20.8,22.4,35.6,17.6c14.8-4.8,22.4-20.8,17.6-35.6
	C256.4,121.4,240.8,113.4,226,118.6"/>
<g>
	<path class="st0" d="M336,322.6c-5.6,6-13.6,9.6-22.4,9.6s-16.8-3.6-22.4-9.6c-5.6,6-13.6,9.6-22.4,9.6s-16.8-3.6-22.4-9.6
		c-5.6,6-13.6,9.6-22.4,9.6s-16.8-3.6-22.4-9.6c-5.6,6-13.6,9.6-22.4,9.6s-16.8-3.6-22.4-9.6c-5.6,6-13.6,9.6-22.4,9.6
		s-16.8-3.6-22.4-9.6c-5.6,6-13.6,9.6-22.4,9.6s-16.8-3.6-22.4-9.6c-5.6,6-13.6,9.6-22.4,9.6c-8.8,0-16.8-3.6-22.4-9.6
		c-5.6,6-13.6,9.6-22.4,9.6v17.6h358.4v-17.6C349.6,332.2,341.6,328.6,336,322.6z"/>
</g>
</svg>
