<?xml version="1.0" encoding="utf-8"?>
<!-- Generator: Adobe Illustrator 24.2.0, SVG Export Plug-In . SVG Version: 6.00 Build 0)  -->
<svg version="1.1" id="Layer_1" xmlns="http://www.w3.org/2000/svg" xmlns:xlink="http://www.w3.org/1999/xlink" x="0px" y="0px"
	 width="303.1px" height="270.6px" viewBox="0 0 303.1 270.6" style="enable-background:new 0 0 303.1 270.6;" xml:space="preserve"
	>
<style type="text/css">
	.st0{fill:#072163;}
</style>
<path class="st0" d="M86.3,144.6c-12.4-22.4-26.8-48-31.2-55.6c-2.8-8.8-34.8-76-38.8-84c-1.6-3.6-5.6-5.6-10-4.8
	c-4.4,1.2-7.2,5.6-6,10.4c2.4,9.2,57.2,167.2,58,166C65.1,163.4,74.3,151.8,86.3,144.6"/>
<path class="st0" d="M115.9,145c15.6,0,28.4-12.8,28.4-28.4s-12.8-28.4-28.4-28.4S87.5,101,87.5,116.6S100.3,145,115.9,145"/>
<path class="st0" d="M118.3,161c-12.4-1.6-23.6,7.6-25.2,20c0,1.2,0,2.4,0,3.2c0,6.8,8,40.4,12.8,58.8c-27.6,3.6-68.8,12-93.6,17.6
	c6,6.4,14.4,10,24,10c8.4,0,16.4-3.2,22.4-8.8c6,5.2,13.6,8.8,22.4,8.8c8.4,0,16.4-3.2,22.4-8.8c5.2,4.8,12.4,8.4,19.6,8.4
	c8.4,0,16-4.8,16.8-12.8c2.4-18.4,2-69.2-2.4-82C134.3,168.2,127.5,162.2,118.3,161"/>
<path class="st0" d="M245.1,144.6c-12.4-22.4-26.8-48-31.2-55.6c-2.8-8.8-34.8-76-38.8-84c-1.6-3.6-5.6-5.6-10-4.8
	c-4.4,1.2-7.2,5.6-6,10.4c2.4,9.2,57.2,167.2,58,166C223.5,163.4,232.7,151.8,245.1,144.6"/>
<path class="st0" d="M274.7,145c15.6,0,28.4-12.8,28.4-28.4s-12.8-28.4-28.4-28.4s-28.4,12.8-28.4,28.4S258.7,145,274.7,145"/>
<path class="st0" d="M277.1,161c-12.4-1.6-23.6,7.6-25.2,20c0,1.2,0,2.4,0,3.2c0,6.8,8,40.4,12.8,58.8c-27.6,3.6-68.8,12-93.6,17.6
	c6,6.4,14.4,10,24,10c8.4,0,16.4-3.2,22.4-8.8c6,5.2,13.6,8.8,22.4,8.8c8.4,0,16.4-3.2,22.4-8.8c5.2,4.8,12.4,8.4,19.6,8.4
	c8.4,0,16-4.8,16.8-12.8c2.4-18.4,2-69.2-2.4-82C293.1,168.2,285.9,162.2,277.1,161"/>
</svg>
