<?xml version="1.0" encoding="utf-8"?>
<!-- Generator: Adobe Illustrator 24.2.0, SVG Export Plug-In . SVG Version: 6.00 Build 0)  -->
<svg version="1.1" id="Layer_1" xmlns="http://www.w3.org/2000/svg" xmlns:xlink="http://www.w3.org/1999/xlink" x="0px" y="0px"
	 width="434.2px" height="250.7px" viewBox="0 0 434.2 250.7" style="enable-background:new 0 0 434.2 250.7;" xml:space="preserve"
	>
<style type="text/css">
	.st0{fill:#072163;}
</style>
<path class="st0" d="M116.8,110.3C84.4,115.1,9.6,126.7,6.4,127.1c-3.6,0.4-6.4,3.6-6.4,7.6s3.6,8,8,7.6c2,0,113.2-6.4,160.8-9.2
	C153.6,126.3,129.6,115.9,116.8,110.3"/>
<path class="st0" d="M182.8,215.5c-3.6,0-6.4,2.8-6.4,6.4s2.8,6.4,6.4,6.4c3.6,0,6.4-2.8,6.4-6.4
	C189.2,218.3,186.4,215.5,182.8,215.5"/>
<path class="st0" d="M215.6,215.5c-3.6,0-6.4,2.8-6.4,6.4s2.8,6.4,6.4,6.4c3.6,0,6.4-2.8,6.4-6.4C222,218.3,219.2,215.5,215.6,215.5
	"/>
<path class="st0" d="M248.4,215.5c-3.6,0-6.4,2.8-6.4,6.4s2.8,6.4,6.4,6.4s6.4-2.8,6.4-6.4C254.8,218.3,251.6,215.5,248.4,215.5"/>
<path class="st0" d="M280.8,215.5c-3.6,0-6.4,2.8-6.4,6.4s2.8,6.4,6.4,6.4s6.4-2.8,6.4-6.4C287.2,218.3,284.4,215.5,280.8,215.5"/>
<path class="st0" d="M313.6,215.5c-3.6,0-6.4,2.8-6.4,6.4s2.8,6.4,6.4,6.4s6.4-2.8,6.4-6.4C320,218.3,317.2,215.5,313.6,215.5"/>
<path class="st0" d="M346,215.5c-3.6,0-6.4,2.8-6.4,6.4s2.8,6.4,6.4,6.4s6.4-2.8,6.4-6.4C352.4,218.3,349.6,215.5,346,215.5"/>
<path class="st0" d="M378.8,215.5c-3.6,0-6.4,2.8-6.4,6.4s2.8,6.4,6.4,6.4s6.4-2.8,6.4-6.4C385.2,218.3,382.4,215.5,378.8,215.5"/>
<path class="st0" d="M150.4,215.5c-3.6,0-6.4,2.8-6.4,6.4s2.8,6.4,6.4,6.4c3.6,0,6.4-2.8,6.4-6.4C156.8,218.3,154,215.5,150.4,215.5
	"/>
<path class="st0" d="M117.6,215.5c-3.6,0-6.4,2.8-6.4,6.4s2.8,6.4,6.4,6.4c3.6,0,6.4-2.8,6.4-6.4C124,218.3,121.2,215.5,117.6,215.5
	"/>
<path class="st0" d="M85.2,215.5c-3.6,0-6.4,2.8-6.4,6.4s2.8,6.4,6.4,6.4s6.4-2.8,6.4-6.4C91.6,218.3,88.4,215.5,85.2,215.5"/>
<path class="st0" d="M52.4,215.5c-3.6,0-6.4,2.8-6.4,6.4s2.8,6.4,6.4,6.4s6.4-2.8,6.4-6.4C58.8,218.3,56,215.5,52.4,215.5"/>
<path class="st0" d="M199.2,237.9c-3.6,0-6.4,2.8-6.4,6.4s2.8,6.4,6.4,6.4c3.6,0,6.4-2.8,6.4-6.4
	C205.6,241.1,202.8,237.9,199.2,237.9"/>
<path class="st0" d="M232,237.9c-3.6,0-6.4,2.8-6.4,6.4s2.8,6.4,6.4,6.4c3.6,0,6.4-2.8,6.4-6.4C238.4,241.1,235.6,237.9,232,237.9"
	/>
<path class="st0" d="M264.4,237.9c-3.6,0-6.4,2.8-6.4,6.4s2.8,6.4,6.4,6.4s6.4-2.8,6.4-6.4C270.8,241.1,268,237.9,264.4,237.9"/>
<path class="st0" d="M297.2,237.9c-3.6,0-6.4,2.8-6.4,6.4s2.8,6.4,6.4,6.4s6.4-2.8,6.4-6.4C303.6,241.1,300.8,237.9,297.2,237.9"/>
<path class="st0" d="M330,237.9c-3.6,0-6.4,2.8-6.4,6.4s2.8,6.4,6.4,6.4s6.4-2.8,6.4-6.4C336.4,241.1,333.6,237.9,330,237.9"/>
<path class="st0" d="M362.4,237.9c-3.6,0-6.4,2.8-6.4,6.4s2.8,6.4,6.4,6.4s6.4-2.8,6.4-6.4C368.8,241.1,366,237.9,362.4,237.9"/>
<path class="st0" d="M166.8,237.9c-3.6,0-6.4,2.8-6.4,6.4s2.8,6.4,6.4,6.4c3.6,0,6.4-2.8,6.4-6.4C173.2,241.1,170,237.9,166.8,237.9
	"/>
<path class="st0" d="M134,237.9c-3.6,0-6.4,2.8-6.4,6.4s2.8,6.4,6.4,6.4c3.6,0,6.4-2.8,6.4-6.4C140.4,241.1,137.6,237.9,134,237.9"
	/>
<path class="st0" d="M101.2,237.9c-3.6,0-6.4,2.8-6.4,6.4s2.8,6.4,6.4,6.4s6.4-2.8,6.4-6.4C107.6,241.1,104.8,237.9,101.2,237.9"/>
<path class="st0" d="M68.8,237.9c-3.6,0-6.4,2.8-6.4,6.4s2.8,6.4,6.4,6.4s6.4-2.8,6.4-6.4C75.2,241.1,72.4,237.9,68.8,237.9"/>
<path class="st0" d="M414.4,102.7c-12.4-1.6-24,7.2-26,19.6c-1.6,12.4,7.2,24,19.6,26c12.4,1.6,24-7.2,26-19.6
	C435.6,115.9,426.8,104.3,414.4,102.7"/>
<path class="st0" d="M287.2,95.1c-2-5.6-6.8-10-12.8-11.2c-10-2.4-20,3.6-22.8,13.6c-1.2,4.4-0.4,8.8,1.2,12.8
	c10.4,18.8,22.8,40.4,34.4,60c2,2.8,4.8,5.2,8.4,5.6c30.8,4,65.6,7.2,81.2,8.8c0.4,0,0.4,0,0.8,0c3.2,0,6.4-3.2,6.4-6.8
	c0-2-1.2-4-2.8-5.2l-0.4-0.4c-16-10.4-41.6-27.2-58.8-38c-8.8-12.8-16.8-24-26-35.6c6.4,17.2,11.2,34,15.6,49.6
	c0.4,0.4,0.8,0.4,1.2,0.8c10,4.4,25.2,10,39.6,15.6c-15.2-3.6-32.4-7.2-46.4-10C300.4,134.7,294.4,114.7,287.2,95.1"/>
<path class="st0" d="M319.6,105.9c12.4,2,24.4-6.8,26-19.2c2-12.4-6.8-24.4-19.2-26c-12.4-2-24.4,6.8-26,19.2
	C298.4,92.3,307.2,103.9,319.6,105.9"/>
<path class="st0" d="M49.6,1.9c-2.4-2-5.6-2.4-8.4-1.2c-4,1.6-6,6.4-4,10.4c0.4,0.8,0.8,1.2,1.2,2c8.4,10.8,62.4,76.4,68,82.8
	c1.6,2,3.2,3.2,6,4.4c6.8,2.8,51.6,22.8,68.4,29.6c1.2,0.4,2.4,0.8,4,1.2c11.6,2.4,23.6-4.8,26-16.8c2.4-11.2-4.4-22.4-15.6-25.6
	c-10.4-2.8-46.8-10.8-70.4-15.6C107.6,55.1,74.8,24.7,49.6,1.9"/>
</svg>
