<?xml version="1.0" encoding="utf-8"?>
<!-- Generator: Adobe Illustrator 24.2.0, SVG Export Plug-In . SVG Version: 6.00 Build 0)  -->
<svg version="1.1" id="Layer_1" xmlns="http://www.w3.org/2000/svg" xmlns:xlink="http://www.w3.org/1999/xlink" x="0px" y="0px"
	 width="229.6px" height="417.9px" viewBox="0 0 229.6 417.9" style="enable-background:new 0 0 229.6 417.9;" xml:space="preserve"
	>
<style type="text/css">
	.st0{fill:#072163;}
</style>
<path class="st0" d="M149.6,102.8c-4.4,0-9.2-0.8-13.2-1.6c-0.8,8-1.2,14.4-1.6,16.8c-1.2,6.8-9.6,53.6-10,58
	c-0.8,8.4,3.6,16.4,11.6,20c10,4.4,21.2,0,25.6-10c1.2-2.8,1.6-5.6,1.6-8.4c0-6-3.6-52.8-4-58.4c0-2,0-8.4,0-16.8
	C156.4,102.4,153.2,102.8,149.6,102.8"/>
<path class="st0" d="M172.4,158.8c0,12.4,10,22.4,22.4,22.4s22.4-10,22.4-22.4s-10-22.4-22.4-22.4
	C182,136.4,172.4,146.4,172.4,158.8"/>
<path class="st0" d="M197.6,407.6c0,4.8,4,8.8,8.4,8.8s8-3.2,8.4-7.2l15.2-95.6c0-0.8,0-1.2,0-2c0-5.2-2.8-10-7.2-12.4
	c-20-11.2-70.8-41.2-76-43.6c-3.2-1.6-6.8-2.4-10.4-2.4c-7.6,0-13.6,3.6-19.2,10c-4.4,5.6-34,57.2-43.6,74
	c-15.6,14-68.8,63.6-70.8,65.6c-3.2,3.6-3.2,9.2,0,12.4c3.2,3.2,8,3.6,11.6,0.8l80-57.6c0.4-0.4,0.8-0.8,1.6-1.2
	c0.4-0.4,0.8-0.8,0.8-0.8c11.6-12.4,36-39.6,49.2-55.2c16,6,39.6,14.8,54.8,20.4C199.6,346.4,197.6,398.4,197.6,407.6"/>
<path class="st0" d="M149.6,95.6c26.4,0.4,48-21.2,48-47.6C198,21.6,176.4,0,150,0c-26.4-0.4-48,21.2-48,47.6
	C102,73.6,123.6,95.2,149.6,95.6 M150.4,40.4c4,0,7.6,3.2,7.2,7.6c0,4-3.2,7.6-7.6,7.2c-4,0-7.6-3.2-7.2-7.6
	C142.8,43.6,146,40.4,150.4,40.4"/>
</svg>
