<?xml version="1.0" encoding="utf-8"?>
<!-- Generator: Adobe Illustrator 24.2.0, SVG Export Plug-In . SVG Version: 6.00 Build 0)  -->
<svg version="1.1" id="Layer_1" xmlns="http://www.w3.org/2000/svg" xmlns:xlink="http://www.w3.org/1999/xlink" x="0px" y="0px"
	 width="333.8px" height="361.1px" viewBox="0 0 333.8 361.1" style="enable-background:new 0 0 333.8 361.1;" xml:space="preserve"
	>
<style type="text/css">
	.st0{fill:#072163;}
</style>
<path class="st0" d="M319.6,139c-16.4,0.4-51.2,2.4-62.8,3.2c-18-17.2-41.6-38.4-46.4-42c-0.8-0.4-1.2-0.8-1.2-0.8
	c-2.8-2-6.8-2.8-10-2.8c-3.6,0-9.6,0.8-14.4,6.4c-4.8,5.2-5.2,12-4.8,15.2c0.8,5.2,3.2,8.8,5.2,10.8c1.2,1.2,3.2,2.4,4,3.2
	c9.2,6,50.8,29.2,56.4,32c4,2,7.6,2,11.6,1.6c10.4-1.2,64-12,71.6-14.4c2-0.8,3.2-1.6,4.4-3.2c0.8-1.6,0.8-3.6,0-6
	c-2-5.6-12.8-33.6-14-36c-10.4-27.2,11.2-42.4-1.6-76c-11.2-30-32-33.2-44.4-28.4s-25.6,21.2-14,50.8c8,21.2,21.2,27.6,32.8,36.4
	c-12,6.8-27.2,15.6-34.4,20c-7.6-2-24.4-6.8-37.2-10c8.8,7.6,23.6,21.2,34,30.8c2.4,0,4,0,5.2-0.4c2-0.4,3.2-0.8,5.2-1.6
	c4-2.4,24-18,37.2-28.8c2.4,3.2,4.8,6.8,6.4,11.6L319.6,139z M266.4,47.8c-8-20.8,0-35.2,9.6-38.8c9.6-3.6,25.2,1.6,33.2,22.4
	c6.4,16.8,5.6,28,2,37.2c-2.4,6-5.6,8.8-8.8,9.6c-2.8,1.2-7.2,1.6-12.8-1.6C280.8,72.2,272.8,64.6,266.4,47.8"/>
<path class="st0" d="M213.6,85.8c13.2,0,24-10.8,24-24s-10.8-24-24-24s-24,10.8-24,24S200.4,85.8,213.6,85.8"/>
<path class="st0" d="M12.8,210.6c-7.2,0-12.8,5.6-12.8,12.8s5.6,12.8,12.8,12.8s12.8-5.6,12.8-12.8S20,210.6,12.8,210.6"/>
<path class="st0" d="M313.2,356.6c-2.8-3.2-41.6-70.8-52.4-91.2c-12-5.2-36.4-16.8-55.2-26c-6.4,20.8-12.4,38.8-16,48.4
	c-0.8,2.4-2.4,6.4-5.2,9.6c-2.8,3.2-6.8,6-8.4,7.6c-2.8,2.4-68.4,51.2-74.8,54.8c-1.2,0.8-2.4,1.2-3.6,1.2c-4.8,0.4-8.8-3.2-9.2-8
	c0-2.4,0.4-4.4,2.4-6.4c2.8-3.2,53.2-52,68.8-66.4c2-20.8,8.8-64.8,11.2-75.6c1.2-5.6,2.4-8.4,4.4-11.2c6-9.2,18-12.8,28.8-8
	c0.8,0.4,1.6,0.8,2.4,1.2c14.4,7.6,60.8,40.4,74.8,52.4c1.6,1.2,3.6,3.2,4.4,4.4c1.2,1.6,2.4,3.2,3.2,5.2
	c1.6,3.6,39.2,92.4,41.2,100c0.4,1.6,0.4,3.2,0.4,4.8c-0.8,5.2-6,8.4-10.8,7.6C316.8,360.2,314.8,359,313.2,356.6"/>
</svg>
