<?xml version="1.0" encoding="utf-8"?>
<!-- Generator: Adobe Illustrator 24.2.0, SVG Export Plug-In . SVG Version: 6.00 Build 0)  -->
<svg version="1.1" id="Layer_1" xmlns="http://www.w3.org/2000/svg" xmlns:xlink="http://www.w3.org/1999/xlink" x="0px" y="0px"
	 width="424.8px" height="206.4px" viewBox="0 0 424.8 206.4" style="enable-background:new 0 0 424.8 206.4;" xml:space="preserve"
	>
<style type="text/css">
	.st0{fill:#072163;}
</style>
<path class="st0" d="M333.2,171.6c0,0.8,0,2,0,2.8c0,11.6-4.8,22.4-12,30.4c4,1.2,8.4,1.6,12.8,1.6c10.8,0,20.8-3.6,28.8-9.6
	c8,6,18,9.6,28.8,9.6c12.8,0,24.4-4.8,33.2-13.2C395.2,183.6,364.8,176.4,333.2,171.6"/>
<path class="st0" d="M85.2,150.4c5.2-1.2,60.4-20,86.8-30.4c4.4,8.4,9.6,19.2,15.2,29.2c-66.4,5.2-129.6,22-187.2,48.4
	c8,5.6,17.2,8.8,27.6,8.8c10.8,0,20.8-3.6,28.8-9.6c8,6,18,9.6,28.8,9.6s20.8-3.6,28.8-9.6c8,6,18,9.6,28.8,9.6s20.8-3.6,28.8-9.6
	c8,6,18,9.6,28.8,9.6c19.6,0,36-12,44.4-28.8c0.4-1.2,1.2-2.4,1.6-3.6c2-6.4,1.6-12.8-1.6-18c-8.8-16-47.2-64.8-56.8-69.6
	c-0.8-0.4-2-0.8-2.8-1.2c-3.2-1.2-6.4-0.8-9.6,0c-6.4,2-94,45.2-97.2,47.2c-2,1.2-3.6,3.2-4,5.6c-1.6,5.2,1.6,10.8,6.8,12.4
	C82.4,150.8,84,150.8,85.2,150.4"/>
<path class="st0" d="M328.8,82c10.8,0,20.8-3.6,28.8-9.6c6.8,4.8,14.8,8.4,23.6,9.2L338.4,6.8C336,2,333.2,0,328.4,0
	c-4.4,0-7.2,2.4-10,6.8l-42,75.2c8.8-0.8,16.8-4.4,23.6-9.2C308,78.8,318,82,328.8,82"/>
<path class="st0" d="M289.2,142.4c-17.6,0-32,14.4-32,32s14.4,32,32,32s32-14.4,32-32S306.8,142.4,289.2,142.4"/>
</svg>
