<?xml version="1.0" encoding="utf-8"?>
<!-- Generator: Adobe Illustrator 24.2.0, SVG Export Plug-In . SVG Version: 6.00 Build 0)  -->
<svg version="1.1" id="Layer_1" xmlns="http://www.w3.org/2000/svg" xmlns:xlink="http://www.w3.org/1999/xlink" x="0px" y="0px"
	 width="317px" height="391.8px" viewBox="0 0 317 391.8" style="enable-background:new 0 0 317 391.8;" xml:space="preserve">
<style type="text/css">
	.st0{fill:#072163;}
</style>
<path class="st0" d="M49.8,255.8c4,4.8,8,11.2,9.6,20l54.8-0.4h0.8l39.6,32.4L43.4,280.2c-1.2-0.4-2-0.4-3.2,0.4L27,287.4
	c2-3.2,3.6-5.6,4.8-8.4c2.8-6-0.4-13.2-6.4-15.6c-6-2.8-13.2,0.4-15.6,6.4c-1.6,4-8.8,30-9.6,35.2c-0.4,2,0,3.2,0.8,4.8
	c2,3.6,6.8,4.8,10.4,3.2c5.2-2.4,35.2-25.6,35.2-25.6l55.2,14c-6.4,23.2-4.4,48,4.4,79.6c3.6,6.8,12,10.8,21.6,10.8
	c8.8,0,16.8-4.4,21.6-10.8c4.8,6.4,12.8,10.8,21.6,10.8s16.8-4.4,21.6-10.8c4.8,6.4,12.8,10.8,21.6,10.8c8.8,0,16.8-4.4,21.6-10.8
	c4.8,6.4,12.8,10.8,21.6,10.8s16.8-4.4,21.6-10.8c4.8,6.4,12.8,10.8,21.6,10.8c6,0,12-2,16.4-5.6c-29.6-27.6-83.2-56-144.4-73.6
	h135.2c2.4,0,4.4-2,4.8-4.4c12-107.2-12.8-238-56-307.2c-1.2-1.6-3.6-1.2-4.4,0.8l-88.8,305.6L116.6,269l-0.4-0.4
	c-0.4,0-0.8-0.4-1.2-0.4l-32-4.8l-32-7.6C51.4,255.8,50.6,255.8,49.8,255.8"/>
<path class="st0" d="M24.6,255.4c8.4-1.2,14.8-8.8,13.6-17.2c-1.2-8.4-8.8-14.8-17.2-13.6c-8.4,1.2-14.8,8.8-13.6,17.2
	C8.2,250.6,16.2,256.6,24.6,255.4"/>
<path class="st0" d="M45,323.4c-2.8,8.4,2,17.6,10.4,20.4c3.2,1.2,6,1.2,9.6,0c6.4-2,15.6-6.4,25.2-11.2c-0.4-8.8,0.4-17.6,2-26
	c-24.8,3.2-35.6,6-35.6,6C51.4,314.2,46.6,317.8,45,323.4"/>
</svg>
