<?xml version="1.0" encoding="utf-8"?>
<!-- Generator: Adobe Illustrator 24.2.0, SVG Export Plug-In . SVG Version: 6.00 Build 0)  -->
<svg version="1.1" id="Layer_1" xmlns="http://www.w3.org/2000/svg" xmlns:xlink="http://www.w3.org/1999/xlink" x="0px" y="0px"
	 width="333px" height="353.8px" viewBox="0 0 333 353.8" style="enable-background:new 0 0 333 353.8;" xml:space="preserve">
<style type="text/css">
	.st0{fill:#072163;}
</style>
<path class="st0" d="M206.5,198.4c-4-6-10.8-10-18.4-10c-11.6,0-21.2,8.8-22,20c0,0.8,0,1.2,0,2c0,5.6,6.4,88,6.8,91.2
	c0,1.6,0.8,3.2,1.2,4.8c1.6,3.6,4.8,6.4,8.4,8c15.6,6,93.2,35.2,104,38.8c0.4,0,1.2,0.4,1.2,0.4c1.6,0.4,3.6,0,5.2-0.8
	c4-2,6-6.8,4-11.2c-0.8-1.6-1.6-2.4-2.8-3.2c-2-1.2-64.8-34.4-90-47.6c0.4-8.4,0.8-20,1.2-32c9.2,13.2,17.2,24.8,18,25.6
	c0,0.4,0.4,0.4,0.4,0.8c2.4,2.8,5.6,4,9.2,4.4c8.4,0.8,88.8,3.6,92.8,3.2c1.6,0,3.2-0.8,4.8-2c3.2-2.8,3.2-7.6,0.4-10.4
	c-0.8-1.2-2-1.6-3.6-2s-62-11.2-84-14.8C232.9,244.8,209.7,202.4,206.5,198.4"/>
<path class="st0" d="M261.3,100.8c5.6-10.4,22-56.8,23.2-62c0-0.4,0-0.8,0-1.6c0-3.2-2.4-6-5.6-6c0-14-11.6-25.6-25.6-25.6
	s-25.6,11.6-25.6,25.6s11.6,25.6,25.6,25.6c2.4,0,5.2-0.4,7.2-1.2c-0.4,0.8-1.2,2-1.6,3.2c-3.2,5.6-10.4,19.2-14.4,27.6
	c-6,1.2-35.2,8.8-41.6,10.4c3.2,6.8,6,18.4,4,33.6c14.8-6.4,45.2-22.4,50.4-26C259.3,103.6,260.5,102.4,261.3,100.8"/>
<path class="st0" d="M180.1,92.4c12.8,0,23.6-10.4,23.6-23.6c0-12.8-10.4-23.6-23.6-23.6c-12.8,0-23.6,10.4-23.6,23.6
	C156.5,82,166.9,92.4,180.1,92.4"/>
<path class="st0" d="M74.9,224.8c7.6-3.2,63.6-30.4,68.4-33.6c1.6-0.8,2.8-2,3.6-3.2c4-4.4,33.6-51.2,35.6-56.4
	c0.8-2,1.2-4.4,1.2-6.8c0-10.4-8.4-18.8-18.8-18.8c-7.2,0-13.2,4-16.4,10c-2.4,4-16.4,42-21.2,56.8c-15.6,9.2-57.6,36-60.8,39.6
	c-1.2,1.2-2,3.2-2,5.2c0,4,3.2,7.6,7.6,7.6C73.7,225.2,74.5,224.8,74.9,224.8"/>
<path class="st0" d="M83.6,28.9L67.4,78.8c-0.4,1.8,0.4,3.9,2.2,4.4c0.4,0,0.9,0,0.9,0c1.3,0,2.6-0.9,3.1-2.2
	c0,0,20.1-54.7,20.1-63.9C93.7,3.5,63.9,0,46.9,0C29.3,0,0,3.5,0,17.1C0,25.8,20.1,81,20.1,81c0.4,1.3,1.8,2.2,3.1,2.2
	c0.4,0,0.9,0,0.9,0c1.8-0.4,2.6-2.6,2.2-4.4L11.4,28.9c10.1,4.4,25.4,5.7,36.3,5.7C58.2,34.6,73.6,33.3,83.6,28.9 M47.7,28
	c-21,0-38.5-4.4-38.5-10.5S26.7,7,47.7,7s38.5,4.4,38.5,10.5S68.7,28,47.7,28"/>
</svg>
