<?xml version="1.0" encoding="utf-8"?>
<!-- Generator: Adobe Illustrator 24.2.0, SVG Export Plug-In . SVG Version: 6.00 Build 0)  -->
<svg version="1.1" id="Layer_1" xmlns="http://www.w3.org/2000/svg" xmlns:xlink="http://www.w3.org/1999/xlink" x="0px" y="0px"
	 width="480px" height="480px" viewBox="0 0 480 480" style="enable-background:new 0 0 480 480;" xml:space="preserve">
<style type="text/css">
	.st0{fill:#072163;}
	.st1{fill:#FFFFFF;}
</style>
<rect class="st0" width="480" height="480"/>
<path class="st1" d="M189.2,222.8c19.6,0,35.2-15.6,35.2-35.2s-15.6-35.2-35.2-35.2S154,168,154,187.6S170,222.8,189.2,222.8"/>
<path class="st1" d="M430.4,280.8c4.8-0.8,8.4-4.8,8.4-9.6c0-5.2-4.4-9.6-9.6-9.6h-4c0.4-6,0.8-12,0.8-18h25.6c2,0,3.6-1.6,3.6-3.6
	s-1.6-3.6-3.6-3.6H426c-1.6-91.2-47.6-178-111.2-208.4c-2-0.8-4,0-4.8,1.6l-2,5.2c-0.8,1.6,0,4,1.6,4.8
	c59.2,28.8,102,110.4,103.6,196.8H114.8H93.6c-38.8,0-44.8,1.2-52,4.4c-5.6,2.4-9.6,8-9.6,14.4c0,5.2,2.4,10,6.8,12.8
	c12,7.6,68,30.8,77.6,32.8c4.8,0.8,11.2-9.6,13.6-22.8c1.2-6.8,1.6-12.8,0.8-17.6c18.8-2.8,30-4.4,32.8-5.2c4.8-0.8,8-4.8,8-9.6
	c0,0,0-0.8,0-2h241.6c0,6-0.4,12-0.8,18h-88H238c2.8,12,4.4,30.4,4,48c31.6-4,68.8-12,85.2-15.6c15.2-1.2,56.4-6.4,82.4-10
	c-11.6,70.4-50,132-99.6,156c-1.6,0.8-2.4,2.8-1.6,4.8l2.4,5.2c0.8,2,2.8,2.8,4.8,1.6c54.4-26.4,96-93.6,107.6-169.6
	C426.4,281.6,429.2,281.2,430.4,280.8"/>
</svg>
