<?xml version="1.0" encoding="utf-8"?>
<!-- Generator: Adobe Illustrator 24.2.0, SVG Export Plug-In . SVG Version: 6.00 Build 0)  -->
<svg version="1.1" id="Layer_1" xmlns="http://www.w3.org/2000/svg" xmlns:xlink="http://www.w3.org/1999/xlink" x="0px" y="0px"
	 width="480px" height="480px" viewBox="0 0 480 480" style="enable-background:new 0 0 480 480;" xml:space="preserve">
<style type="text/css">
	.st0{fill:#072163;}
	.st1{fill:#FFFFFF;}
</style>
<rect class="st0" width="480" height="480"/>
<path class="st1" d="M199.6,158.8c13.2-3.6,46.4-15.2,65.2-22.4c4.8,5.2,11.2,11.6,17.6,18.4c10.4-8.8,20.8-17.2,30-18.8
	c1.2-0.4,2.8-0.4,4-0.4c-14.8-8-41.2-22-43.6-23.2s-4.8-1.6-7.2-0.8c-0.8,0-2.4,0.8-2.4,0.8c-8.8,4-66,34-68,35.2
	c-2.4,1.2-4,4-3.2,6.8C192.8,157.2,196.4,159.6,199.6,158.8"/>
<path class="st1" d="M356.4,146c11.6,8,27.2,5.2,35.2-6c8-11.6,5.2-27.2-6-35.2c-11.6-8-27.2-5.2-35.2,6
	C342,122,344.8,137.6,356.4,146"/>
<path class="st1" d="M354,237.6c1.2-0.4,62.4-37.2,63.6-38.4c2-1.6,2.8-4,2.4-6.8c-0.8-4-4.8-6.4-8.4-5.6c-0.4,0-0.8,0.4-1.2,0.4
	c-1.6,0.4-34.4,14.4-53.6,22.4c-4.4-18-11.2-41.2-14.8-50.8c-0.4-0.8-0.8-1.6-1.2-2.4c0-0.4-0.4-0.8-0.4-0.8
	c-4.4-8-14-12.8-23.2-10.8c-11.6,2.4-19.2,14-16.8,25.6c0.4,1.2,0.8,2.4,1.2,3.6c2.8,8,31.2,53.6,36.4,60c2.8,4,7.6,6,12.4,4.8
	C351.6,238.8,352.8,238,354,237.6"/>
<path class="st1" d="M304.8,282.8c-4.8-9.2-36-57.6-46-71.6c-1.2-1.6-2.4-2.8-3.6-3.6c-4.8-4.4-11.6-6.4-18.4-5.6
	c-5.6,0.8-10.8,3.2-14.8,6.8c-5.2,4.4-155.6,140-156.8,141.2c-2,1.6-3.2,4.4-2.8,7.2c0.4,4.8,4.8,8.4,9.6,8c1.6,0,2.8-0.8,4-1.2
	c0.8-0.4,46.8-30.8,91.6-60.4c20.8,0.4,120.4,1.6,124.4,1.2c1.2,0,2.4-0.4,3.6-0.4c8-2,12.8-10.4,10.8-18.4
	C305.6,284.4,305.2,283.6,304.8,282.8 M236.4,258c6,5.6,11.6,11.6,14.4,14c1.6,1.6,3.6,3.2,5.2,4.8c-17.6,1.6-37.6,3.2-55.2,4.8
	C214.4,272.4,226.8,264,236.4,258"/>
</svg>
