<?xml version="1.0" encoding="utf-8"?>
<!-- Generator: Adobe Illustrator 24.2.0, SVG Export Plug-In . SVG Version: 6.00 Build 0)  -->
<svg version="1.1" id="Layer_1" xmlns="http://www.w3.org/2000/svg" xmlns:xlink="http://www.w3.org/1999/xlink" x="0px" y="0px"
	 width="480px" height="480px" viewBox="0 0 480 480" style="enable-background:new 0 0 480 480;" xml:space="preserve">
<style type="text/css">
	.st0{fill:#072163;}
	.st1{fill:#FFFFFF;}
</style>
<rect class="st0" width="480" height="480"/>
<path class="st1" d="M265.6,249.6c-4-6-10.8-10-18.4-10c-11.6,0-21.2,8.8-22,20c0,0.8,0,1.2,0,2c0,5.6,6.4,88,6.8,91.2
	c0,1.6,0.8,3.2,1.2,4.8c1.6,3.6,4.8,6.4,8.4,8c15.6,6,93.2,35.2,104,38.8c0.4,0,1.2,0.4,1.2,0.4c1.6,0.4,3.6,0,5.2-0.8
	c4-2,6-6.8,4-11.2c-0.8-1.6-1.6-2.4-2.8-3.2c-2-1.2-64.8-34.4-90-47.6c0.4-8.4,0.8-20,1.2-32c9.2,13.2,17.2,24.8,18,25.6
	c0,0.4,0.4,0.4,0.4,0.8c2.4,2.8,5.6,4,9.2,4.4c8.4,0.8,88.8,3.6,92.8,3.2c1.6,0,3.2-0.8,4.8-2c3.2-2.8,3.2-7.6,0.4-10.4
	c-0.8-1.2-2-1.6-3.6-2s-62-11.2-84-14.8C292,296,268.8,253.6,265.6,249.6"/>
<path class="st1" d="M320.4,152c5.6-10.4,22-56.8,23.2-62c0-0.4,0-0.8,0-1.6c0-3.2-2.4-6-5.6-6c0-14-11.6-25.6-25.6-25.6
	s-25.6,11.6-25.6,25.6s11.6,25.6,25.6,25.6c2.4,0,5.2-0.4,7.2-1.2c-0.4,0.8-1.2,2-1.6,3.2c-3.2,5.6-10.4,19.2-14.4,27.6
	c-6,1.2-35.2,8.8-41.6,10.4c3.2,6.8,6,18.4,4,33.6c14.8-6.4,45.2-22.4,50.4-26C318.4,154.8,319.6,153.6,320.4,152"/>
<path class="st1" d="M239.2,143.6c12.8,0,23.6-10.4,23.6-23.6c0-12.8-10.4-23.6-23.6-23.6c-12.8,0-23.6,10.4-23.6,23.6
	C215.6,133.2,226,143.6,239.2,143.6"/>
<path class="st1" d="M134,276c7.6-3.2,63.6-30.4,68.4-33.6c1.6-0.8,2.8-2,3.6-3.2c4-4.4,33.6-51.2,35.6-56.4c0.8-2,1.2-4.4,1.2-6.8
	c0-10.4-8.4-18.8-18.8-18.8c-7.2,0-13.2,4-16.4,10c-2.4,4-16.4,42-21.2,56.8c-15.6,9.2-57.6,36-60.8,39.6c-1.2,1.2-2,3.2-2,5.2
	c0,4,3.2,7.6,7.6,7.6C132.8,276.4,133.6,276,134,276"/>
<path class="st1" d="M82,134.4c0.4,0,0.8,0,1.2,0c2-0.4,2.8-2.4,2.4-4.4l-16-50c10,4.4,25.6,5.6,36,5.6s26-1.2,36-5.6l-16,50
	c-0.4,2,0.4,3.6,2.4,4.4c0.4,0,0.8,0,1.2,0c1.6,0,2.8-0.8,3.2-2.4c0,0,20.4-54.8,20.4-63.6c0-13.6-29.6-17.2-46.8-17.2
	c-4.4,0-9.2,0.4-14.4,0.8c-3.2,2.8-6.4,5.2-9.6,8.4c6.8-1.6,15.2-2,24.4-2c21.2,0,38.4,4,38.4,10.4s-17.6,10.4-38.4,10.4
	c-16.8,0-31.6-2.8-36.8-7.2c-2.8,2.8-5.2,5.6-7.6,8.4c5.6,18.8,17.6,52,17.6,52C79.2,133.6,80.4,134.4,82,134.4"/>
</svg>
