<?xml version="1.0" encoding="utf-8"?>
<!-- Generator: Adobe Illustrator 24.2.0, SVG Export Plug-In . SVG Version: 6.00 Build 0)  -->
<svg version="1.1" id="Layer_1" xmlns="http://www.w3.org/2000/svg" xmlns:xlink="http://www.w3.org/1999/xlink" x="0px" y="0px"
	 width="480.1px" height="480.1px" viewBox="0 0 480.1 480.1" style="enable-background:new 0 0 480.1 480.1;" xml:space="preserve"
	>
<style type="text/css">
	.st0{fill:#072163;}
	.st1{fill:#FFFFFF;}
</style>
<rect class="st0" width="480" height="480"/>
<path class="st1" d="M360.1,213.3c-26-2.4-112.8-8-139.2-9.2c0.8,12.4,0.8,24-3.6,42.4c27.2-2,57.6-4,71.6-5.2
	c8.8-0.4,59.2-2.4,82.8-4.4c2,10,7.6,18,21.6,20.8c18.8,3.6,31.6-2.8,34.4-14.8c2.4-8.8,2.4-16.4-1.2-22.4
	c-3.6-5.6-10-9.2-19.2-10.8C394.9,207.3,375.3,211.3,360.1,213.3"/>
<path class="st1" d="M190.5,223.3c-6-5.2-14.4-10.8-22-9.6c-6.8,0.8-10.8,5.2-14.4,8.8c-9.2,10-9.6,26-9.6,27.6
	c-8.4,7.6-18.8,18.4-28.8,27.6c8.8-22.8,16.8-50,17.6-56.4c0.4-1.6,0.4-3.6,0-5.2c-1.2-15.2-13.2-26-28-24.8
	c-4,0.4-7.2,1.2-10.4,2.8c-6.4,3.2-11.2,9.6-13.2,16.4c-2,6.8-1.6,20.4-1.6,33.6c0.4,27.6,1.6,64.8,3.2,74.4s9.6,15.6,19.6,15.2
	c5.2-0.4,10-2.8,13.6-6.4c3.6-4,40-50,48-61.2c0,0,10.8-0.4,16.8-4c3.6-2,11.6-7.2,15.2-13.6C202.5,238.9,198.5,229.7,190.5,223.3"
	/>
<path class="st1" d="M181.7,126.9c-20.4,0-36.8,16.4-36.8,36.8s16.4,36.8,36.8,36.8s36.8-16.4,36.8-36.8
	C218.1,143.3,201.7,126.9,181.7,126.9"/>
</svg>
