<?xml version="1.0" encoding="utf-8"?>
<!-- Generator: Adobe Illustrator 24.2.0, SVG Export Plug-In . SVG Version: 6.00 Build 0)  -->
<svg version="1.1" id="Layer_1" xmlns="http://www.w3.org/2000/svg" xmlns:xlink="http://www.w3.org/1999/xlink" x="0px" y="0px"
	 width="480px" height="480px" viewBox="0 0 480 480" style="enable-background:new 0 0 480 480;" xml:space="preserve">
<style type="text/css">
	.st0{fill:#072163;}
	.st1{fill:#FFFFFF;}
</style>
<rect class="st0" width="480" height="480"/>
<path class="st1" d="M236,197.6c-1.6,4.8-3.6,9.2-5.6,13.6c13.2,2.4,39.2,6.8,40,7.2c0.8,0,1.2,0,1.6,0s0.8,0,1.2,0
	c0.4,0,52.4-0.4,54.8-0.8c0,0,29.6,48,30.4,48.8c1.2,2,0.8,11.2,4,16.4l22,35.6H277.2c-2-18-7.6-61.6-9.6-69.2
	c-1.6-5.2-6.4-9.2-11.6-9.2c-0.8,0-2,0-2.8,0c-2.8,0-22,1.6-35.6,2.8c-13.6,1.6-32.4,3.6-35.6,4.4c-2.4,0.4-5.2,1.6-7.2,3.2
	c-1.6,1.2-3.6,2.8-5.2,5.2c-2,2.8-34,56.4-37.2,63.2H32.8c2.8,20.4,20,36,41.2,36c10.8,0,20.4-4,27.6-10.8
	c7.2,6.8,17.2,10.8,27.6,10.8c10.8,0,20.4-4,27.6-10.8c7.2,6.8,17.2,10.8,27.6,10.8c10.8,0,20.4-4,27.6-10.8
	c7.2,6.8,17.2,10.8,27.6,10.8c10.8,0,20.4-4,27.6-10.8c7.2,6.8,17.2,10.8,27.6,10.8c10.8,0,20.4-4,27.6-10.8
	c7.2,6.8,17.2,10.8,27.6,10.8c10.8,0,20.4-4,27.6-10.8c7.2,6.8,17.2,10.8,27.6,10.8c21.2,0,38.4-15.6,41.2-36h-40.8l-28-45.2
	c-3.2-5.2-11.6-8.8-13.2-10.8c-0.8-1.2-124-200-124-200c-0.8-1.6-2.4-2.4-4.4-2.4s-3.6,0.8-4.8,2c-1.2,1.6-17.2,28-32,52.8
	c-12.8,21.2-24.8,42-25.6,44.4s-1.6,4.8-1.6,7.6c0.4,8.8,8,15.6,16.8,15.2c6.4-0.4,12-4.4,14-9.6c2.4-6,11.6-40,13.6-49.6
	c3.6-6.8,16.4-35.2,22-48.8l82,132.4c-12.8-1.6-38-4.4-46.4-4.8c-6.8-3.6-25.2-12.8-35.6-17.2C238.8,188.4,237.6,193.2,236,197.6
	 M163.2,318.8c9.2-10,21.2-23.6,28.8-32.4c9.6-2.4,37.2-11.2,54.4-16.8c4,14.8,10.4,36.8,14.4,49.6h-97.6V318.8z"/>
<path class="st1" d="M240.4,176c11.2,0,20.4-9.2,20.4-20.4s-9.2-20.4-20.4-20.4s-20.4,9.2-20.4,20.4S229.2,176,240.4,176"/>
</svg>
