<?xml version="1.0" encoding="utf-8"?>
<!-- Generator: Adobe Illustrator 24.2.0, SVG Export Plug-In . SVG Version: 6.00 Build 0)  -->
<svg version="1.1" id="Layer_1" xmlns="http://www.w3.org/2000/svg" xmlns:xlink="http://www.w3.org/1999/xlink" x="0px" y="0px"
	 width="480px" height="480.4px" viewBox="0 0 480 480.4" style="enable-background:new 0 0 480 480.4;" xml:space="preserve">
<style type="text/css">
	.st0{fill:#072163;}
	.st1{fill:#FFFFFF;}
</style>
<rect class="st0" width="480" height="480"/>
<path class="st1" d="M207.6,344.8l-2.8-4l-12-0.8c-2,0-4-1.2-5.2-2.8l-2-2.4c2.4-2,9.2-7.2,11.6-8.8c4-3.2,6.4-7.6,6.4-13.6V312
	l-6.8,0v0.4c0,1.6-0.4,5.6-4,8.4c-2.4,2-9.6,7.2-11.6,9.2h-4c-2,0-4-1.2-5.2-2.8l-7.2-9.2c-9.6,9.2-10.8,24-2.8,34.8
	c8.8,11.6,25.2,13.6,36.8,4.8C202.8,354.4,206,349.6,207.6,344.8"/>
<path class="st1" d="M226.4,256.8c2.8,2.8,57.6,54,60.4,56c3.2,2.8,8,4.8,12.8,5.2c12,0.8,22.4-8.4,23.2-20.4
	c0.4-3.6-0.4-7.2-2-10.4c0,0-24.8-53.2-33.6-71.2c20.4-16.8,60-54.8,62.8-58.4c2.4-2.8,2-6.8-0.4-9.2c-2-2.4-6-2.8-8.8-1.2
	c-2.8,2.4-74.8,53.6-76.8,55.2c-2.8,2.4-4.8,6-4.8,10c0,0.8,0,2,0.4,2.8c1.2,5.2,4.8,21.6,8.8,38.8l-23.2-14
	c-2.8-10.4-21.6-73.6-23.6-80c-0.4-1.6-2.8-4.8-7.2-4.4c-3.6,0.4-5.6,4-5.6,6.8c0.4,4.4,13.2,85.2,14.4,88.4
	C223.6,253.2,224.8,255.2,226.4,256.8"/>
<path class="st1" d="M299.2,146.4c8,0,16-1.6,23.6-5.6c26-12.8,36.8-44.8,23.6-70.8c-9.2-18.4-28-29.2-47.2-29.2
	c-8,0-16,1.6-23.6,5.6c-26,12.8-36.8,44.8-23.6,70.8C261.2,135.6,280,146.4,299.2,146.4 M280.8,56c6-2.8,12-4.4,18.4-4.4
	c16,0,30.4,8.8,37.6,23.2c4.8,10,5.6,21.2,2,32c-3.6,10.4-11.2,19.2-20.8,24c-6,2.8-12,4.4-18.4,4.4c-16,0-30.4-8.8-37.6-23.2
	C251.6,91.2,260,66.4,280.8,56"/>
<path class="st1" d="M164.4,256c1.2,2.4,4,4,7.2,2.8l9.2-4c6,7.2,27.6,32,39.2,43.6c1.6,10,5.6,40.8,6.8,48.4
	c1.6,9.2,10.4,15.6,20.4,12.8c9.2-2.8,12.8-13.2,10.4-20s-18.8-48-19.2-50c-0.8-1.6-2-2.8-2.8-3.6c-0.8-0.8-46.8-41.6-48-42
	c-2-1.6-4.8-2-7.2-1.2l-8.4,3.6l-27.6-61.6c22.8-13.2,31.6-42,19.6-66c-8.8-17.6-26.8-28-45.2-28c-7.6,0-15.2,1.6-22.4,5.2
	c-24.8,12.4-35.2,42.8-22.8,67.6c8.8,17.6,26.8,28,45.2,28c5.2,0,10.4-0.8,15.6-2.4L164.4,256z M119.2,180.8
	c-15.2,0-28.4-8.4-35.2-22c-9.6-19.6-1.6-43.2,17.6-52.8c5.6-2.8,11.2-4,17.6-4c15.2,0,28.4,8.4,35.2,22c9.2,18.4,2.8,40-14.4,50.8
	l-16-35.6c-1.2-2.8-4.4-4-7.2-2.8c-2.8,1.2-4,4.4-2.8,7.2l16,35.6C126.4,180,122.8,180.8,119.2,180.8"/>
<path class="st1" d="M409.2,288.4c-11.6,48.4-38.8,92-73.2,124.4c-29.6,27.6-80,60.8-152,60.8c18,4.4,36.8,6.8,56.4,6.8
	c1.6,0,2.8,0,4,0c37.2-10,71.6-29.2,101.2-56.8c35.2-32.8,62-76.4,74.8-120.4H472c1.2-4.8,2.4-9.6,3.6-14.4h-66.4V288.4z"/>
</svg>
