<?xml version="1.0" encoding="utf-8"?>
<!-- Generator: Adobe Illustrator 25.3.1, SVG Export Plug-In . SVG Version: 6.00 Build 0)  -->
<svg version="1.1"
	 id="svg1422" xmlns:cc="http://creativecommons.org/ns#" xmlns:dc="http://purl.org/dc/elements/1.1/" xmlns:inkscape="http://www.inkscape.org/namespaces/inkscape" xmlns:rdf="http://www.w3.org/1999/02/22-rdf-syntax-ns#" xmlns:sodipodi="http://sodipodi.sourceforge.net/DTD/sodipodi-0.dtd" xmlns:svg="http://www.w3.org/2000/svg"
	 xmlns="http://www.w3.org/2000/svg" xmlns:xlink="http://www.w3.org/1999/xlink" x="0px" y="0px" viewBox="0 0 750 750"
	 style="enable-background:new 0 0 750 750;" xml:space="preserve">
<style type="text/css">
	.st0{fill:#072163;}
	.st1{fill:#FFFFFF;}
</style>
<sodipodi:namedview  bordercolor="#666666" borderopacity="1.0" id="base" inkscape:current-layer="layer1" inkscape:cx="410.36568" inkscape:cy="51.776597" inkscape:document-units="mm" inkscape:pagecheckerboard="true" inkscape:pageopacity="0.0" inkscape:pageshadow="2" inkscape:window-height="705" inkscape:window-maximized="1" inkscape:window-width="1366" inkscape:window-x="-8" inkscape:window-y="-8" inkscape:zoom="0.87673303" pagecolor="#ffffff" showgrid="false" units="px">
	</sodipodi:namedview>
<g id="layer1" transform="translate(0,-230.85415)" inkscape:groupmode="layer" inkscape:label="Layer 1">
	<g id="g1165" transform="matrix(2.9168688,0,0,-2.9169974,66.145833,263.92707)">
		<g>
			<path id="path1167_8_" inkscape:connector-curvature="0" class="st0" d="M234.4-117.2c0-71-57.6-128.6-128.6-128.6
				S-22.7-188.2-22.7-117.2S34.9,11.3,105.9,11.3S234.4-46.2,234.4-117.2"/>
		</g>
	</g>
	<g id="g1169" transform="matrix(2.9169974,0,0,-2.9169974,50.0878,252.24453)">
		<path id="path1171" inkscape:connector-curvature="0" class="st1" d="M177.5-75.8L168.7-86c-0.5,0.2-1.4,0.5-1.7,0.6
			c-13.3,3.8-30.3,2.6-45.7-9.2c-2.5-1.9-4.8-4.1-6.8-6.3c-6.2,4.4-15,10.5-19,13C93.2-83.3,85.2-69,84.1-67.5
			c-0.8,1-1.5,1.8-2.7,2.4c-4.1,2.2-9.2,0.7-11.4-3.3c-1.1-2-1.4-4.2-0.8-6.2c0.2-0.9,0.7-1.8,1.3-2.6c1.8-2.6,12.6-16,16.6-19.5
			c0.2-0.1,0.4-0.3,0.5-0.4c0.4-0.2,0.7-0.4,0.9-0.5c0.9-0.5,12.7-5.5,21.4-9c-1.4-2-2.6-3.9-3.7-5.8h-8.9c-2.4,1.7-9.4,7-12.6,9
			c-0.4,0.3-0.9,0.6-1.2,0.7c-2.2,1.2-7.4,2.2-16.1,3.5c-0.7-3.4-0.9-8.5,1.6-13.2H28.9c9.7-30.3,29.5-45.2,74.4-45.2H114l0-62.2
			c0-0.1,0-0.3,0-0.4c0.1-1.2,0.8-1.8,1.6-1.9c0.1,0,0.4,0,0.5,0c0.6,0,7.8,0,8.3,0c0.3,0,0.5,0,0.6,0.1c0.5,0.1,0.8,0.5,0.6,1.2
			c0,0.1-0.1,0.3-0.1,0.4c0,0-3.7,11.6-4.9,15c1,4.1,7.9,37.5,10.1,47.9c3,0,19.5,0.1,23.3,0.2c0.7-6.1,1.9-15.1,2.5-19.5
			c-3.6-1.8-9.4-4.9-9.4-4.9c-1.1-0.6-1.5-1.5-1.5-2.8v-9.7c0-0.1,0-0.2,0-0.3c0.2-0.7,1-0.9,1.8-0.4c0.7,0.5,12.6,10.2,15.9,13.5
			c0.3,0.3,0.5,0.7,0.7,1c0.1,0.3,0.2,0.7,0.3,1.1c0.5,4.6,1.4,25,1.3,28.4c-0.1,2.6-1.6,4.6-4.2,5.6c-2.5,0.9-12.4,3.1-22.8,5.2
			c3.3,22.2,11.6,30.1,19.7,33.8c2.7-5.7,6.8-14.8,11.1-24.8c0.2-0.6,0.7-1.1,1.5-1c0.9,0.1,5,1,5.5,1.2c0.6,0.2,0.7,0.7,0.8,1.2
			l2.6,53.4C179.8-75.5,178.3-74.9,177.5-75.8"/>
	</g>
	<g id="g1173" transform="matrix(2.9169974,0,0,-2.9169974,27.79021,244.21112)">
		<path id="path1175" inkscape:connector-curvature="0" class="st1" d="M98.5-47.3h-3.8v10.7H74.8v-10.7h-4.1v-4.1h27.8"/>
	</g>
</g>
</svg>
