<?xml version="1.0" encoding="utf-8"?>
<!-- Generator: Adobe Illustrator 24.2.0, SVG Export Plug-In . SVG Version: 6.00 Build 0)  -->
<svg version="1.1" id="Layer_1" xmlns="http://www.w3.org/2000/svg" xmlns:xlink="http://www.w3.org/1999/xlink" x="0px" y="0px"
	 width="480px" height="480px" viewBox="0 0 480 480" style="enable-background:new 0 0 480 480;" xml:space="preserve">
<style type="text/css">
	.st0{fill:#072163;}
	.st1{fill:#FFFFFF;}
</style>
<rect class="st0" width="480" height="480"/>
<path class="st1" d="M82.8,175.2c2,3.6,6,6,10.4,6v-6.4l116.4,10.8c-2.4-12-3.6-23.2-2.8-32L93.2,164v-6.4c-2,0-4,0.4-6,1.6
	c-2.8,1.6-4.8,4.4-5.6,7.2h-70c-0.8,2-1.2,4-2,6.4h72C82,173.6,82.4,174.4,82.8,175.2"/>
<path class="st1" d="M244,90.8c0,0-8.8-2.4-19.6-2.4v49.2L244,130V90.8z"/>
<path class="st1" d="M243.6,165.6c0.4,7.2,5.2,13.2,11.6,16c10.8,4.4,66,24,66.8,24.4c13.2,7.2,56.4,31.6,62.8,34.8
	c1.2,0.8,3.2,1.2,4.8,0.8c3.6-0.8,6.4-4.4,5.6-8c-0.4-1.6-1.2-2.8-2-4c-5.2-4.8-55.2-42-60.4-45.2c-9.6-6.4-55.6-34-62-36.8
	c-2.8-1.2-6-2-9.6-1.6C250.4,146.4,242.8,155.6,243.6,165.6"/>
<path class="st1" d="M217.6,138.4v-50c-15.6,2-19.6,12.4-19.6,25.2C197.6,126,201.6,136.8,217.6,138.4"/>
<path class="st1" d="M262.8,226.8c-6.4-1.6-14.8-0.8-18.4,0c-9.6,1.6-64.8,21.2-78,26c-4.4,1.6-7.2,6-8,10.8
	c-5.2,34.8-9.6,70.4-13.2,105.6c0,1.2,0,2.4,0.8,3.6c1.6,3.6,6,5.2,9.6,3.6c2-0.8,3.2-2.4,3.6-4c1.2-3.6,18.4-64.4,25.6-91.2
	c17.2-1.2,47.6-4.4,65.2-7.6L398,376c1.2,0.8,2.8,1.2,4.4,1.2c4,0,7.2-3.6,7.2-7.6c0-2-0.8-3.6-2-4.8l-134.4-132
	c-1.6-1.6-3.2-2.8-4.8-3.6C266.8,228.4,264.4,227.2,262.8,226.8"/>
</svg>
