<?xml version="1.0" encoding="utf-8"?>
<!-- Generator: Adobe Illustrator 24.2.0, SVG Export Plug-In . SVG Version: 6.00 Build 0)  -->
<svg version="1.1" id="Layer_1" xmlns="http://www.w3.org/2000/svg" xmlns:xlink="http://www.w3.org/1999/xlink" x="0px" y="0px"
	 width="480px" height="480px" viewBox="0 0 480 480" style="enable-background:new 0 0 480 480;" xml:space="preserve">
<style type="text/css">
	.st0{fill:#072163;}
	.st1{fill:#FFFFFF;}
</style>
<rect class="st0" width="480" height="480"/>
<path class="st1" d="M371.6,404c-0.4-1.6-6-16.4-6-16.4l11.2-5.2l-38.4-105.2l11.2-10.8L322.8,250l-94,64.8c-4,2.8-6.8,6.8-7.6,11.2
	l-19.6,69.6c0,0-24.4,5.6-24.8,5.6c-0.4,0-0.4,0-0.8,0c-2,0.8-2.8,2.8-2,4.8c0.4,1.2,1.2,1.6,2.4,2c0.4,0,0.8,0,1.2,0H208
	c0.4,0,0.8,0,1.2,0c0.8-0.4,1.6-0.8,2-1.6c0.8-0.8,7.6-17.6,7.6-17.6l12.8,4.4L254,344l56.4-28.8l45.6,83.2c0,0-15.2,3.6-15.6,3.6
	s-0.4,0-0.8,0.4c-1.6,0.8-2.4,2.8-1.6,4.4c0.4,0.8,1.2,1.6,2,2c0.4,0,0.8,0,1.2,0H368c0.8,0,1.6,0,2-0.4
	C371.2,407.6,372,405.6,371.6,404"/>
<path class="st1" d="M244.4,52.4c0,0-24.8,2.4-26,2.4s-2,0.4-2.8,2c-0.4,1.6-5.2,16-5.2,16L198.8,70l-15.6,45.6l-34,27.6l-10.4-7.6
	l-13.2,23.6l44,37.6c0,0,54.8-8.8,58.8-9.6c2-0.4,4-1.2,6-2c1.6-0.8,2.8-1.6,4.4-3.2c2.8-2.8,55.6-50.4,55.6-50.4s22.4,7.6,22.8,8
	c0.4,0,0.8,0.4,1.2,0.4c2,0.4,3.6-0.8,4-2.8c0.4-1.6-0.4-2.8-1.6-3.6c-0.4,0-0.8-0.4-0.8-0.4s-24-14.8-24.8-15.2
	c-1.2-0.8-2.8-0.8-4,0c-0.8,0.4-15.2,10.4-15.2,10.4l-8.4-10l-48,32.8l-25.2,0.8c0,0,12-12.4,14.4-15.2c1.2-1.6,2-2.8,2.8-4
	c0.8-1.6,1.2-3.2,1.6-4.8c0.8-4,11.6-62.4,11.6-62.4s16.4-5.2,20.8-6.8c0.8,0,0.8-0.4,1.2-0.4c1.2-0.8,2-2.4,1.2-4.4
	c-0.4-1.2-1.6-1.6-2.4-1.6C245.2,52.4,244.8,52.4,244.4,52.4"/>
<path class="st1" d="M311.6,243.2l-59.2-36.8c-3.2-2-7.2-3.2-11.6-3.2c-8,0.4-14.8,4.8-18,11.6l-20.4,41.6l-34,27.6l-15.2-23.6
	c-1.6-2.4-3.6-4-6-5.2l-4.4-2l16.4-50l-39.6-34l-42,74.8c-2.8,4.8-3.6,10.8-1.6,16.4c2.4,7.2,8.8,12.4,16,13.6l42.4,7.2
	c0,0,32,37.2,33.2,38.4c1.2,1.2,2.8,2,4.8,2c3.2-0.4,5.2-2.8,5.2-6c0-0.8-0.4-1.6-0.8-2.4c-0.4-0.8-8-13.6-8-13.6l12.8-7.2l4.8,7.2
	c0,0,34.4-20.8,35.6-21.2c1.2-0.8,2.4-1.6,3.2-2.8c0.8-0.8,13.6-15.6,13.6-15.6l32.4,12L311.6,243.2z"/>
<path class="st1" d="M162.4,226c0,12,9.6,21.6,21.6,21.6s21.6-9.6,21.6-21.6s-9.6-21.6-21.6-21.6C172,204,162.4,214,162.4,226"/>
<path class="st1" d="M115.2,286.8c-12,0-21.6,9.6-21.6,21.6s9.6,21.6,21.6,21.6s21.6-9.6,21.6-21.6S127.2,286.8,115.2,286.8"/>
</svg>
