<?xml version="1.0" encoding="utf-8"?>
<!-- Generator: Adobe Illustrator 24.2.0, SVG Export Plug-In . SVG Version: 6.00 Build 0)  -->
<svg version="1.1" id="Layer_1" xmlns="http://www.w3.org/2000/svg" xmlns:xlink="http://www.w3.org/1999/xlink" x="0px" y="0px"
	 width="480px" height="480px" viewBox="0 0 480 480" style="enable-background:new 0 0 480 480;" xml:space="preserve">
<style type="text/css">
	.st0{fill:#072163;}
	.st1{fill:#FFFFFF;}
</style>
<rect class="st0" width="480" height="480"/>
<path class="st1" d="M362.8,274.8c0,0.8,0,2,0,2.8c0,11.6-4.8,22.4-12,30.4c4,1.2,8.4,1.6,12.8,1.6c10.8,0,20.8-3.6,28.8-9.6
	c8,6,18,9.6,28.8,9.6c12.8,0,24.4-4.8,33.2-13.2C424.8,286.8,394.4,279.6,362.8,274.8"/>
<path class="st1" d="M114.8,253.6c5.2-1.2,60.4-20,86.8-30.4c4.4,8.4,9.6,19.2,15.2,29.2c-66.4,5.2-129.6,22-187.2,48.4
	c8,5.6,17.2,8.8,27.6,8.8C68,309.6,78,306,86,300c8,6,18,9.6,28.8,9.6s20.8-3.6,28.8-9.6c8,6,18,9.6,28.8,9.6s20.8-3.6,28.8-9.6
	c8,6,18,9.6,28.8,9.6c19.6,0,36-12,44.4-28.8c0.4-1.2,1.2-2.4,1.6-3.6c2-6.4,1.6-12.8-1.6-18c-8.8-16-47.2-64.8-56.8-69.6
	c-0.8-0.4-2-0.8-2.8-1.2c-3.2-1.2-6.4-0.8-9.6,0c-6.4,2-94,45.2-97.2,47.2c-2,1.2-3.6,3.2-4,5.6c-1.6,5.2,1.6,10.8,6.8,12.4
	C112,254,113.6,254,114.8,253.6"/>
<path class="st1" d="M358.4,185.2c10.8,0,20.8-3.6,28.8-9.6c6.8,4.8,14.8,8.4,23.6,9.2L368,110c-2.4-4.8-5.2-6.8-10-6.8
	c-4.4,0-7.2,2.4-10,6.8l-42,75.2c8.8-0.8,16.8-4.4,23.6-9.2C337.6,182,347.6,185.2,358.4,185.2"/>
<path class="st1" d="M318.8,245.6c-17.6,0-32,14.4-32,32s14.4,32,32,32s32-14.4,32-32S336.4,245.6,318.8,245.6"/>
</svg>
