<?xml version="1.0" encoding="utf-8"?>
<!-- Generator: Adobe Illustrator 24.2.0, SVG Export Plug-In . SVG Version: 6.00 Build 0)  -->
<svg version="1.1" id="Layer_1" xmlns="http://www.w3.org/2000/svg" xmlns:xlink="http://www.w3.org/1999/xlink" x="0px" y="0px"
	 width="480px" height="480px" viewBox="0 0 480 480" style="enable-background:new 0 0 480 480;" xml:space="preserve">
<style type="text/css">
	.st0{fill:#072163;}
	.st1{fill:#FFFFFF;}
</style>
<rect class="st0" width="480" height="480"/>
<path class="st1" d="M338,284l-9.2-96.8c0-1.6-0.8-2.8-1.6-4L233.6,72L211.2,1.6c-4.8,0.4-9.6,1.2-14.4,2L219.2,74
	c-3.2,4.8-32.8,51.6-38,60c-4,4.4-16.8,16.8-26.8,27.2c13.2-5.2,31.2-11.6,43.2-15.6c1.6-2.8,8.4-21.6,13.6-36
	c-2.8,15.2-6,31.6-7.6,41.6c-15.2,4.8-44.8,15.6-57.2,21.2c-3.6,1.6-6.8,4.8-8.4,8.8c-4,8.8,0,18.8,8.8,22.8c4.4,2,9.2,2,13.6,0
	c4-1.6,52.4-30,58.4-33.6c4-2.4,6-5.6,6.4-9.2c0.4-2.8,4-46.4,6-69.6l83.2,98.8l4.8,51.2c-0.4-0.4-0.8-0.8-1.2-1.2
	c-2-1.6-74-50.4-76.8-52c-1.6-1.2-4.4-2-6.8-2c-5.6-0.4-10.4,2.8-12.8,7.2c-1.6,4-36.8,70.4-38.8,74.4c-2,3.6-2.8,7.2-2.8,11.6
	c0,10.8,7.2,20,17.6,22.8c11.6,3.2,65.6,15.6,86.4,19.6c26.8,14.4,71.6,36.4,84.8,42c1.2,0.4,2,0.8,3.2,0.8c4,0,7.6-3.2,8-7.2
	l37.2,44.8c3.2-3.6,6.4-7.2,9.6-11.2L338,284z M296.4,296c-0.4-0.4-1.2-0.8-1.6-0.8l-66-29.2c5.2-15.2,10-29.6,14.4-44.8
	c26.8,13.6,62,31.2,67.6,33.6c1.2,0.4,2,0.8,2.8,0.8c2.8,0,5.6-1.2,6.8-3.6l3.6,36c0,1.6,0.8,2.8,1.6,4l44.4,52.8L296.4,296z"/>
<path class="st1" d="M153.6,137.6c0-14-11.2-25.2-25.2-25.2s-25.2,11.2-25.2,25.2s11.2,25.2,25.2,25.2
	C142.4,162.8,153.6,151.6,153.6,137.6"/>
</svg>
