<?xml version="1.0" encoding="utf-8"?>
<!-- Generator: Adobe Illustrator 24.2.0, SVG Export Plug-In . SVG Version: 6.00 Build 0)  -->
<svg version="1.1" id="Layer_1" xmlns="http://www.w3.org/2000/svg" xmlns:xlink="http://www.w3.org/1999/xlink" x="0px" y="0px"
	 width="480.1px" height="480.1px" viewBox="0 0 480.1 480.1" style="enable-background:new 0 0 480.1 480.1;" xml:space="preserve"
	>
<style type="text/css">
	.st0{fill:#072163;}
	.st1{fill:#FFFFFF;}
</style>
<rect class="st0" width="480" height="480"/>
<path class="st1" d="M410.5,343.3H23.3c2.4,4.8,4.8,9.6,7.6,14.4h379.6V343.3z"/>
<path class="st1" d="M215.3,268.1c0.8,0,1.6,0,2.4,0c1.6,0,2.8-0.4,4-0.4c11.6-2.4,55.6-14.4,71.2-18.8
	c-9.6-15.2-15.2-29.2-14.4-40.4c-17.6,6.8-51.6,21.6-64,28c-18.4-1.2-62.8-2.4-90.8-2.4c-3.6,0-6,1.6-8,4h-1.6
	c-0.8-14-11.6-24.8-28.8-26.4c-19.2-2-32.4,8.8-34,25.2s9.6,29.6,28.8,31.2c17.2,1.6,29.6-6.8,33.2-20h2c1.2,2.4,3.6,4.4,6.4,4.8
	C126.5,253.7,205.7,267.3,215.3,268.1"/>
<path class="st1" d="M281.7,129.7c-18,0-32.4,14.4-32.4,32.4s14.4,32.4,32.4,32.4s32.4-14.4,32.4-32.4S299.7,129.7,281.7,129.7"/>
<path class="st1" d="M364.9,311.7c-0.4,1.2-0.8,2.4-1.2,4c-0.4,6,4,10.8,10,11.2c3.6,0.4,7.2-1.6,9.6-4.4s50.8-74.4,58.8-88
	c1.6-2.4,2.4-5.2,2.8-8c0.4-7.6-4-14.4-10.8-16.8c-14-6-75.6-28.8-80.4-30.4c-2.4-0.8-4.8-1.2-7.2-1.6c-14-0.8-26,10-27.2,24
	c-0.8,13.2,8.4,24.4,20.8,26.8c18.8,4,40.8,7.6,60.4,10.4C388.9,260.9,376.1,286.9,364.9,311.7"/>
<path class="st1" d="M60.5,186.5c6,0,10.8-4.8,10.8-10.8s-4.8-10.8-10.8-10.8s-10.8,4.8-10.8,10.8C49.7,181.7,54.5,186.5,60.5,186.5
	"/>
</svg>
