<?xml version="1.0" encoding="utf-8"?>
<!-- Generator: Adobe Illustrator 24.2.0, SVG Export Plug-In . SVG Version: 6.00 Build 0)  -->
<svg version="1.1" id="Layer_1" xmlns="http://www.w3.org/2000/svg" xmlns:xlink="http://www.w3.org/1999/xlink" x="0px" y="0px"
	 width="480px" height="480px" viewBox="0 0 480 480" style="enable-background:new 0 0 480 480;" xml:space="preserve">
<style type="text/css">
	.st0{fill:#072163;}
	.st1{fill:#FFFFFF;}
</style>
<rect class="st0" width="480" height="480"/>
<path class="st1" d="M404,91.6c-1.6,0-2.8,0.4-4.8,1.6C364,117.6,282,178.4,243.6,208.8l-31.6,52c-5.2,40.4-14.4,135.6-17.2,180.8
	c0,2.4,0,4.8,0.8,6c2.4,4.4,8,6,12.4,3.6c2.4-1.2,3.6-2.8,4.8-6c2.4-8.4,27.2-113.6,27.2-113.6c10-40.4,18.8-59.6,28-74
	c11.2-17.6,30-36.4,52.4-59.2c0,0,85.6-85.6,90.8-91.6c1.6-2,2.4-4,2.4-6.4C413.2,95.2,408.8,91.6,404,91.6"/>
<path class="st1" d="M125.6,206c-0.4-0.4-0.4-0.8-0.8-1.2c-4,6.4-13.2,24.8-18.8,36.4c-8-16.4-20-38.4-22.4-42
	c-0.4-0.4-0.4-0.8-0.8-1.2c-1.2-1.6-3.2-2-5.2-1.6c-2.4,0.4-4,2.4-4.4,4.8c0,0.8,0,1.6,0,2.4c1.2,5.6,19.6,58,23.6,67.2
	c2,4.8,6.8,6.4,12,5.2c2-0.4,3.2-1.2,5.2-2.8c0.4-0.4,1.2-1.2,2-2.4c6.4-7.2,26.4-33.2,34.8-44c-1.2-0.8-2.4-1.6-3.6-2.4
	C138.8,218.8,130,212.8,125.6,206"/>
<path class="st1" d="M116.8,192.8c1.2,0,23.6-0.8,23.6-0.8l0.8-10.4c0,0-2,0-6.8-0.8c-4.4-0.4-7.2-2.4-9.2-4.8c-0.8-1.2-2-2.4-2.4-4
	c-0.8-1.6-1.6-3.2-2.4-5.2c-1.2-2.4-0.8-4-0.4-5.2s1.2-2.4,4.8-4.4c6-3.2,9.6-4.8,12.4-6.4c1.6-0.8,1.6-1.6,2-2.8
	c0.4-2.4-1.6-5.2-4.4-8.4c-3.2-3.6-5.2-5.2-10-7.2c-5.2-2-8.8-0.8-18.8,4.4c-10.8,5.6-13.2,8-14.8,14.4c-1.6,7.2-0.8,13.6,4,22.4
	C103.6,191.2,111.6,193.2,116.8,192.8"/>
<path class="st1" d="M234,202c0,0-11.6-7.6-12.4-8c-0.4-0.4-3.6-2.4-4.8-2.8c-8.4-5.2-21.2-10-21.2-10l-31.2,50.4
	c0,0,11.2,9.6,18.8,14c3.2,2,4,2.4,5.2,3.2c0.4,0.4,12.4,7.2,12.4,7.2L234,202z"/>
<path class="st1" d="M172.8,177.2c3.6,1.2,6.8,1.2,10.4,0.8c1.6-0.4,3.2-0.8,4.4-1.6s5.6-3.2,11.2-7.2c14-9.2,36-23.6,41.6-28
	c12.8-5.6,58-30,62.8-33.2c0.8-0.8,1.6-1.2,2-2c1.2-2,1.2-4.8,0-6.8s-3.2-2.8-5.6-2.8c-0.4,0-0.8,0-1.6,0.4
	c-8,2.4-110.8,38.4-124,45.2c-6.4,3.2-8,4.8-9.2,6.4c-1.2,1.6-2.4,3.6-3.2,5.6C158.4,163.6,163.2,174,172.8,177.2"/>
</svg>
