<?xml version="1.0" encoding="utf-8"?>
<!-- Generator: Adobe Illustrator 24.2.0, SVG Export Plug-In . SVG Version: 6.00 Build 0)  -->
<svg version="1.1" id="Layer_1" xmlns="http://www.w3.org/2000/svg" xmlns:xlink="http://www.w3.org/1999/xlink" x="0px" y="0px"
	 width="480px" height="480px" viewBox="0 0 480 480" style="enable-background:new 0 0 480 480;" xml:space="preserve">
<style type="text/css">
	.st0{fill:#072163;}
	.st1{fill:#FFFFFF;}
</style>
<rect class="st0" width="480" height="480"/>
<path class="st1" d="M91.2,249.2c1.2,3.2,48,130.8,49.2,133.2c0.8,2,2.8,3.6,5.2,3.6c3.2,0,5.6-2.4,5.6-5.6c0-0.4,0-0.8,0-0.8
	c0-0.8-6-28.8-12.4-59.2c12.4-15.6,30-37.6,30.4-38c1.2-1.6,2-4,2-6.4c0-3.2-1.6-5.6-3.6-7.6c-1.6-1.2-43.2-35.6-48.4-39.2
	c-2.8-2-6.8-3.6-10.8-3.6c-10,0-18,8-18,18C90.4,245.6,90.8,247.6,91.2,249.2 M128,269.6c6,3.2,12,6.8,18.4,10
	c-4,6-8.4,13.2-12.4,19.6C132,288.8,130,278.4,128,269.6"/>
<path class="st1" d="M213.2,269.6c-2.4-2.4-25.2-19.2-34.4-26c-0.8-11.2-3.6-38-4-41.2c0-1.2-0.4-2.4-0.8-3.2
	c-2.8-7.2-10.8-11.2-18-8.4c-6.8,2.8-10.8,10.4-8.8,17.2c1.2,5.2,12.4,38.4,14,43.2c0.8,2.4,2.8,4.4,4.8,5.6l27.2,12.8v20.8
	c0,0.8,0,1.2,0.4,2l7.2,16c-17.2,9.2-28.8,27.6-28.8,48.8c0,30.8,24.8,55.6,55.6,55.6s55.6-24.8,55.6-55.6s-24.8-55.6-55.6-55.6
	c-6.4,0-12.4,1.2-18.4,3.2l-6.8-15.2v-12.4H220c5.2,0,7.2,2,7.2,4.8s-1.6,4.8-7.2,4.8h-2c-2.4,0-4.4,1.6-4.4,4s2,4,4.4,4h3.2
	c11.2,0,14.4-6.8,14.4-12c0-6.8-4.8-13.2-15.6-13.2L213.2,269.6L213.2,269.6z M227.2,403.2c-25.6,0-46.4-20.8-46.4-46.4
	c0-17.2,9.6-32.4,23.6-40.4l18.8,42.4c0.8,1.6,2.4,2.8,4,2.8c0.8,0,1.2,0,2-0.4c2.4-1.2,3.2-3.6,2.4-6l-18.8-42.4
	c4.8-1.6,9.6-2.4,14.8-2.4c25.6,0,46.4,20.8,46.4,46.4C274,382.4,252.8,403.2,227.2,403.2"/>
<path class="st1" d="M200.8,204.8c9.6,0,17.6-8,17.6-17.6s-8-17.6-17.6-17.6s-17.6,8-17.6,17.6S191.2,204.8,200.8,204.8"/>
<path class="st1" d="M162.4,93.6c4.8-1.2,35.6-12,51.2-18c2.4,5.2,6,11.2,8.8,17.2c-39.6,3.2-77.2,13.2-111.6,28.8
	c4.8,3.2,10.4,5.2,16.4,5.2c6.4,0,12.4-2,17.2-5.6c4.8,3.6,10.8,5.6,17.2,5.6s12.4-2,17.2-5.6c4.8,3.6,10.8,5.6,17.2,5.6
	s12.4-2,17.2-5.6c4.8,3.6,10.8,5.6,17.2,5.6c11.6,0,21.6-7.2,26.4-17.2c0.4-0.8,0.8-1.2,0.8-2c1.2-3.6,0.8-7.6-0.8-10.8
	c-5.2-9.6-28-38.8-34-41.6c-0.4-0.4-1.2-0.4-1.6-0.8c-2-0.8-4-0.4-5.6,0c-3.6,1.2-56,26.8-58,28c-1.2,0.8-2,2-2.4,3.2
	c-0.8,3.2,0.8,6.4,4,7.2C160.4,93.6,161.6,93.6,162.4,93.6"/>
<path class="st1" d="M310,106c0,0.4,0,1.2,0,1.6c0,6.8-2.8,13.2-7.2,18c2.4,0.8,4.8,1.2,7.6,1.2c6.4,0,12.4-2,17.2-5.6
	c4.8,3.6,10.8,5.6,17.2,5.6c7.6,0,14.4-2.8,19.6-7.6C346.8,113.2,328.4,108.8,310,106"/>
<path class="st1" d="M283.6,88.8c-10.4,0-19.2,8.4-19.2,19.2c0,10.4,8.4,19.2,19.2,19.2c10.4,0,19.2-8.4,19.2-19.2
	C302.8,97.2,294,88.8,283.6,88.8"/>
<path class="st1" d="M397.6,265.2c1.6,3.2,4.8,5.6,8.4,5.2c2.4-0.4,4.4-1.6,5.6-3.2l32.8-40c1.2-1.6,1.6-4.4,0.4-6.4
	c-1.6-2.4-4.8-3.2-7.2-1.6c-0.4,0.4-0.8,0.4-0.8,0.8c-9.2,8.4-18,16.8-26,24.8c-1.6-8.8-3.6-17.2-5.6-24.4
	c-1.6,11.6-5.2,25.6-9.6,39.6L397.6,265.2z"/>
<path class="st1" d="M374,201.6c-11.2,6-24.4,13.6-36.4,20c-1.6,0.8-2.4,2.4-3.2,4c-0.4,0.8-0.4,1.6-0.8,2.4l-4.8,51.2
	c-0.4,2.4,1.2,5.2,3.6,6c2.8,1.2,6.4-0.4,7.2-3.2c0-0.4,0-0.4,0.4-0.8c3.6-17.2,6.8-32.4,9.6-45.2c12-3.6,24-7.6,34.4-11.2
	c5.6-2,8.8-8,8-14c-1.2-6.8-8-11.2-14.8-10C376,200.8,374.8,201.2,374,201.6"/>
<path class="st1" d="M428,303.6c-2.4-1.2-46.4-26-50.4-27.6c-2-0.8-4.4-1.6-6.4-1.6c-6,0-11.2,3.2-14,8L290,404
	c-0.4,0.8-0.8,1.6-0.8,2.4c0,3.2,2,5.6,5.2,6c2,0,3.6-0.8,4.8-2l75.2-99.6c9.2,3.2,19.6,6.8,29.2,9.6c-13.2,19.6-31.6,49.2-33.6,52
	c-0.4,0.8-0.8,2-1.2,2.8c-0.4,3.2,2.4,6,5.6,6.4c2,0,3.6-0.8,4.8-2c0.8-0.8,50.8-58,51.2-58.8c1.6-1.6,2.4-3.6,2.8-6
	C434.4,310.4,432,306,428,303.6"/>
<path class="st1" d="M404.4,202c9.6,0.4,18-6.8,18.4-16.4c0.4-9.6-6.8-18-16.4-18.4s-18,6.8-18.4,16.4S394.8,201.6,404.4,202"/>
<path class="st1" d="M118.8,356.8c0-30.8-24.8-55.6-55.6-55.6c-19.6,0-37.2,10.4-46.8,26c1.6,3.6,2.8,7.2,4.4,10.8
	c7.2-16.4,23.6-27.6,42.4-27.6c25.6,0,46.4,20.8,46.4,46.4c0,25.2-20.4,46-45.6,46.4c2.8,2.8,5.2,5.6,8,8.4
	C98.4,407.2,118.8,384.4,118.8,356.8"/>
</svg>
