<?xml version="1.0" encoding="utf-8"?>
<!-- Generator: Adobe Illustrator 24.2.0, SVG Export Plug-In . SVG Version: 6.00 Build 0)  -->
<svg version="1.1" id="Layer_1" xmlns="http://www.w3.org/2000/svg" xmlns:xlink="http://www.w3.org/1999/xlink" x="0px" y="0px"
	 width="480px" height="480px" viewBox="0 0 480 480" style="enable-background:new 0 0 480 480;" xml:space="preserve">
<style type="text/css">
	.st0{fill:#072163;}
	.st1{fill:#FFFFFF;}
</style>
<rect class="st0" width="480" height="480"/>
<path class="st1" d="M257.2,258.8c-4,19.2-23.2,31.6-42.4,27.6s-31.6-23.2-27.6-42.4s23.2-31.6,42.4-27.6
	C249.2,220.8,261.2,239.6,257.2,258.8"/>
<path class="st1" d="M246.8,366.4c-1.2,0-2.4,0-3.2,0c-17.6-0.8-36-10-36-30c0-22,20.4-28,32.4-26c17.6,2.4,100.8,28.4,148.8,46
	c-8.4,6.4-19.2,10.4-30.8,10.4c-10.4,0-19.6-3.2-27.6-8c-8,5.2-17.6,8-27.6,8c-10.4,0-19.6-3.2-27.6-8
	C266.4,363.2,257.2,366.4,246.8,366.4"/>
<path class="st1" d="M139.6,250.8c-2.4-18.4-7.2-50.8-11.2-73.2c0.4,0,0.4,0,0.8,0.4c17.2,3.6,34.4-7.2,38-24.8
	c3.6-17.2-7.2-34.4-24.8-38c-17.2-3.6-34.4,7.2-38,24.8c-1.6,7.2-0.4,14,2.4,20l2.4,94.8c0.4,6.8,2.8,14,6.4,18.8l54.8,62
	c0.4-18.8,6.8-37.2,16.4-49.2C170.4,272.8,154.8,260.4,139.6,250.8"/>
</svg>
