<?xml version="1.0" encoding="utf-8"?>
<!-- Generator: Adobe Illustrator 24.2.0, SVG Export Plug-In . SVG Version: 6.00 Build 0)  -->
<svg version="1.1" id="Layer_1" xmlns="http://www.w3.org/2000/svg" xmlns:xlink="http://www.w3.org/1999/xlink" x="0px" y="0px"
	 width="480px" height="480px" viewBox="0 0 480 480" style="enable-background:new 0 0 480 480;" xml:space="preserve">
<style type="text/css">
	.st0{fill:#072163;}
	.st1{fill:#FFFFFF;}
</style>
<path class="st0" d="M480,240c0,132.4-107.6,240-240,240S0,372.4,0,240S107.6,0,240,0S480,107.6,480,240"/>
<path class="st1" d="M430.8,191.2c2.8-0.8,5.2-3.2,5.2-6.4c0-4-2.8-7.6-7.6-7.2c-12.4,0.4-50,2.8-64.8,4
	c-6.8-2.8-27.6-11.2-48.4-20.8c2,9.2,2.4,21.2,0,34.4c20,4.8,44.4,8.8,44.8,8.8s0.8,0,1.6,0c0.8,0,1.6,0,2.4,0
	C382.8,201.2,423.6,192.8,430.8,191.2"/>
<path class="st1" d="M244,182c8,2,16.8-1.2,21.2-8.8c5.6-9.2,2.8-21.2-6.4-26.8c-2.8-1.6-6-2.8-9.2-2.8c-15.6-0.8-36.8-1.6-50.4-1.6
	c-3.2-20.4-8-46.8-10.8-61.6c10.8,0.4,20.4-7.6,22-18.4c2-12-6.4-23.6-18.4-25.6s-23.6,6-25.6,18c-0.8,6,0.4,11.6,3.6,16
	c0,0.4,0,0.8,0,1.2c0,0,3.2,62,5.2,83.6c0.4,5.2,4,9.2,9.2,10.8C191.2,168.4,224.4,177.6,244,182"/>
<path class="st1" d="M287.2,142.4c14,1.2,26.4-9.2,27.2-23.2c1.2-14-9.2-26.4-23.2-27.2c-14-1.2-26,9.2-27.2,23.2
	C262.8,128.8,273.2,141.2,287.2,142.4"/>
<path class="st1" d="M251.6,250.8c-12,26.8-27.6,72-33.2,88.4c-30,15.6-96.8,53.6-98.4,54.8c-2.4,1.6-4,3.6-4.4,6.4
	c-0.8,4.8,2.8,9.2,7.6,10c1.6,0.4,3.2,0,4.8-0.4c4.4-1.6,83.6-31.6,108-42l101.2-6c7.2-0.4,12.4-4.4,14-10.8
	c0.8-3.2,0.4-6.4-0.8-9.2c-2.4-5.2-44.8-80.4-54-94c-4.8-7.2-12.4-12-22-12C264.4,236,255.6,242.4,251.6,250.8 M281.6,299.6
	c10,13.2,18.8,24.8,28,36.4c-17.6,2.8-36.4,5.6-52.8,8C263.2,332.4,271.6,317.2,281.6,299.6"/>
</svg>
