<?xml version="1.0" encoding="utf-8"?>
<!-- Generator: Adobe Illustrator 25.3.1, SVG Export Plug-In . SVG Version: 6.00 Build 0)  -->
<svg version="1.1"
	 id="svg1422" xmlns:cc="http://creativecommons.org/ns#" xmlns:dc="http://purl.org/dc/elements/1.1/" xmlns:inkscape="http://www.inkscape.org/namespaces/inkscape" xmlns:rdf="http://www.w3.org/1999/02/22-rdf-syntax-ns#" xmlns:sodipodi="http://sodipodi.sourceforge.net/DTD/sodipodi-0.dtd" xmlns:svg="http://www.w3.org/2000/svg"
	 xmlns="http://www.w3.org/2000/svg" xmlns:xlink="http://www.w3.org/1999/xlink" x="0px" y="0px" viewBox="0 0 750 750"
	 style="enable-background:new 0 0 750 750;" xml:space="preserve">
<style type="text/css">
	.st0{fill:#072163;}
	.st1{fill:#FFFFFF;}
</style>
<sodipodi:namedview  bordercolor="#666666" borderopacity="1.0" id="base" inkscape:current-layer="layer1" inkscape:cx="410.36568" inkscape:cy="51.776597" inkscape:document-units="mm" inkscape:pagecheckerboard="true" inkscape:pageopacity="0.0" inkscape:pageshadow="2" inkscape:window-height="705" inkscape:window-maximized="1" inkscape:window-width="1366" inkscape:window-x="-8" inkscape:window-y="-8" inkscape:zoom="0.87673303" pagecolor="#ffffff" showgrid="false" units="px">
	</sodipodi:namedview>
<g id="layer1" transform="translate(0,-230.85415)" inkscape:groupmode="layer" inkscape:label="Layer 1">
	<g id="g865" transform="matrix(2.9169974,0,0,-2.9169974,66.145833,263.92707)">
		<g>
			<path id="path867_8_" inkscape:connector-curvature="0" class="st0" d="M234.4-117.2c0-71-57.6-128.6-128.6-128.6
				S-22.7-188.2-22.7-117.2S34.9,11.3,105.9,11.3S234.4-46.2,234.4-117.2"/>
		</g>
	</g>
	<g id="g1493" transform="matrix(2.9169974,0,0,-2.9169974,57.838233,282.2342)">
		<path id="path1495" inkscape:connector-curvature="0" class="st1" d="M205-182.1c-3.1-3.1-7.3-5.1-12-5.1c-4.7,0-9,2-12,5.1
			c-3.1-3.1-7.3-5.1-12-5.1c-4.6,0-8.7,1.8-11.8,4.8c-1.3,3.2-2.1,5.5-2.9,7.4c-0.8,1.8-10.9,22.8-11.8,24.5
			c-0.4,0.6-0.7,1.3-1.2,1.9c-0.5,0.6-1.1,1.2-1.7,1.6c-0.6,0.5-8.6,6.5-17.1,12.4c17.9,13.6,30.3,12.8,37.2,12.7
			c2.3-2.6,11.5-13.4,21.4-25.5c0.4-0.5,1-0.8,1.7-0.5c0.8,0.3,4.6,2.3,5,2.6c0.5,0.4,0.5,0.8,0.4,1.4l-11.9,52.1
			c-0.3,1.1-1.8,1.3-2.3,0.2l-5.1-10.8c-5.7,4-15.4,9.1-29.1,10.7c-5.5,0.7-10.9,0.3-15.7-0.5c-4.2,6.3-13.5,19.8-16.7,23.7
			c-1.6,3.1-11.3,19.2-12.9,21.1c-0.8,1-1.7,1.7-2.8,2.2c-4.2,2.1-9.2,0.4-11.3-3.8c-1.5-2.9-1.1-6.1,0.8-8.8
			c1.9-2.7,8.6-9.9,13-14.5c2-2.1,3.5-3.7,4.1-4.2c1.8-1.7,12.1-11.3,18.6-17.3c-3.3-0.9-6.1-2-8.3-2.9c0,0-15.6,19.2-15.8,19.4
			c-0.7,0.8-1.5,1.4-1.5,1.4c-2.9,2-7.3,2.5-16.2,4.1c-1.4-3-2-6.3-0.5-10.2L39-65.6c-3.8-31.6,8.5-54.9,48.5-72.5
			c1.9-0.8,40.7-17.6,45.1-19.4c3.5-5.1,12.3-17.4,14.6-20.5c0.2-2,0.8-6,1.3-8.8c-1.1-0.3-2.3-0.4-3.6-0.4c-4.7,0-9,2-12,5.1
			c-3.1-3.1-7.3-5.1-12-5.1c-4.7,0-9,2-12.1,5.1c-3.1-3.1-7.3-5.1-12-5.1c-4.7,0-9,2-12,5.1c-3.1-3.1-7.3-5.1-12-5.1
			c-4.7,0-9,2-12,5.1c-3.1-3.1-7.3-5.1-12-5.1s-9,2-12,5.1c-3.1-3.1-7.3-5.1-12.1-5.1c-4.7,0-9,2-12,5.1c-2.1-2.1-4.7-3.7-7.7-4.5
			c2.6-3.5,5.4-7,8.3-10.2h191.3c2.9,3.3,5.7,6.7,8.3,10.2C209.7-185.8,207.1-184.2,205-182.1"/>
	</g>
	<g id="g1497" transform="matrix(2.9169974,0,0,-2.9169974,24.794463,242.1371)">
		<path id="path1499" inkscape:connector-curvature="0" class="st1" d="M87.9-40l7.6-1.6c-0.3-1.4-0.6-2.7-0.9-3.8
			c-0.4-2-0.4-3.5,0.3-5.2c0.3-0.7,1.5-2.8,2.2-3.7l2.8,1.7c0,0-1.8,2.5-2.2,3.8c-0.2,0.6-0.2,1.6,0.1,2.8c0.3,1.2,0.6,2.5,0.9,3.8
			l13.4-2.7c0.3-0.1,0.4,0.3,0.2,0.5c-1.9,2.1-3.7,4.2-3.7,4.2s1.5,10.6-8.4,12.3c-9.6,1.7-11.9-6-12.6-11.4
			C87.5-39.6,87.6-39.9,87.9-40"/>
	</g>
</g>
</svg>
