<?xml version="1.0" encoding="utf-8"?>
<!-- Generator: Adobe Illustrator 24.2.0, SVG Export Plug-In . SVG Version: 6.00 Build 0)  -->
<svg version="1.1" id="Layer_1" xmlns="http://www.w3.org/2000/svg" xmlns:xlink="http://www.w3.org/1999/xlink" x="0px" y="0px"
	 width="480px" height="480px" viewBox="0 0 480 480" style="enable-background:new 0 0 480 480;" xml:space="preserve">
<style type="text/css">
	.st0{fill:#072163;}
	.st1{fill:#FFFFFF;}
</style>
<path class="st0" d="M480,240c0,132.4-107.6,240-240,240S0,372.4,0,240S107.6,0,240,0S480,107.6,480,240"/>
<path class="st1" d="M284.4,108c8,3.6,13.2,5.6,23.6,11.2c0,0.8,0,1.6-0.4,2.8c0,12.8,10,23.6,22.4,23.6c12.8,0,23.2-10,23.2-23.2
	c0-0.8,0-1.6,0-2.4c-0.4-2.4-0.8-4.8-1.6-7.6c-2.4-6.4-8.8-12.8-17.6-14.8c-15.6-3.6-38.8,1.6-49.6,5.2
	C282.4,103.6,282.4,107.2,284.4,108"/>
<path class="st1" d="M279.6,202c2-2,3.2-5.2,3.2-8c0-3.6-2-7.2-4.8-9.2c-18-12.4-39.6-26.4-63.2-40.8c-5.2-3.2-12-4.4-18.8-2.4
	c-10.8,3.6-16.4,15.2-14,25.6c2.4,10.4,46.4,168.4,48,172.8c0.8,2.8,3.6,4.8,6.8,4.8c4,0,6.8-3.2,6.8-6.8v-0.4
	c0-0.8-5.6-41.6-11.2-83.6C251.6,232.8,278,204,279.6,202 M223.6,190.8c10.4,3.6,18.8,6.4,28,9.6c-6.8,8.8-14.4,19.2-22.4,30
	C226.8,215.2,225.2,202.4,223.6,190.8"/>
<path class="st1" d="M302.8,206v11.2c0,0.8,0,1.6,0.4,2.4l9.2,20.8c-21.2,11.6-35.6,34-35.6,60c0,37.6,30.8,68.4,68.4,68.4
	s68.4-30.8,68.4-68.4S382.8,232,345.2,232c-8,0-15.6,1.2-22.4,4l-8.8-20v-4.8c14.4,0,56.8,0,56.8,0c0.4,0,0.8,0,1.2,0
	c2-0.4,4-2,4.8-3.6c0.8-2,6-14.8,8.8-21.6c0.8-2.4-0.4-5.2-2.8-6.4s-5.2,0.4-6.4,2.8l-6.4,16c-6-0.8-41.2-6.4-48.8-7.6
	c-4.4-12.4-16.8-46.4-21.2-56c-4-8.8-12.8-12.8-21.2-9.6c-8.4,3.2-12.8,12.8-9.6,21.2c0.4,0.8,0.4,1.2,0.8,2
	C277.6,163.6,302.8,206,302.8,206 M345.2,357.6c-31.6,0-57.2-25.6-57.2-57.2c0-21.2,11.6-40,29.2-50l23.2,52c0.8,2,2.8,3.2,5.2,3.2
	c0.8,0,1.6,0,2.4-0.4c2.8-1.2,4-4.4,2.8-7.2l-23.2-52c5.6-2,11.6-2.8,18-2.8c31.6,0,57.2,25.6,57.2,57.2
	C402.8,332,376.8,357.6,345.2,357.6"/>
<path class="st1" d="M134.8,232c-37.6,0-68.4,30.8-68.4,68.4s30.8,68.4,68.4,68.4s68.4-30.8,68.4-68.4S172.4,232,134.8,232"/>
</svg>
