<?xml version="1.0" encoding="utf-8"?>
<!-- Generator: Adobe Illustrator 25.3.1, SVG Export Plug-In . SVG Version: 6.00 Build 0)  -->
<svg version="1.1"
	 id="svg1422" xmlns:cc="http://creativecommons.org/ns#" xmlns:dc="http://purl.org/dc/elements/1.1/" xmlns:inkscape="http://www.inkscape.org/namespaces/inkscape" xmlns:rdf="http://www.w3.org/1999/02/22-rdf-syntax-ns#" xmlns:sodipodi="http://sodipodi.sourceforge.net/DTD/sodipodi-0.dtd" xmlns:svg="http://www.w3.org/2000/svg"
	 xmlns="http://www.w3.org/2000/svg" xmlns:xlink="http://www.w3.org/1999/xlink" x="0px" y="0px" viewBox="0 0 750.8 750.8"
	 style="enable-background:new 0 0 750.8 750.8;" xml:space="preserve">
<style type="text/css">
	.st0{fill:#072163;}
	.st1{fill:#FFFFFF;}
</style>
<sodipodi:namedview  bordercolor="#666666" borderopacity="1.0" id="base" inkscape:current-layer="layer1" inkscape:cx="210.74547" inkscape:cy="90.319116" inkscape:document-units="mm" inkscape:pagecheckerboard="true" inkscape:pageopacity="0.0" inkscape:pageshadow="2" inkscape:window-height="705" inkscape:window-maximized="1" inkscape:window-width="1366" inkscape:window-x="-8" inkscape:window-y="-8" inkscape:zoom="1.3753271" pagecolor="#ffffff" showgrid="false" showguides="false" units="px">
	</sodipodi:namedview>
<g id="layer1" transform="translate(0,-230.85415)" inkscape:groupmode="layer" inkscape:label="Layer 1">
	<g id="g1061" transform="matrix(2.9168688,0,0,-2.9168688,66.145834,263.92561)">
		<g>
			<path id="path1063_8_" inkscape:connector-curvature="0" class="st0" d="M234.72-117.36c0-71.1-57.6-128.7-128.7-128.7
				s-128.7,57.6-128.7,128.7s57.6,128.7,128.7,128.7S234.72-46.26,234.72-117.36"/>
		</g>
	</g>
	<g id="g1065" transform="matrix(2.9168688,0,0,-2.9168688,35.985434,253.2878)">
		<path id="path1067" inkscape:connector-curvature="0" class="st1" d="M127.94-79.77c6.9-0.6,13.2,4.5,13.8,11.4
			s-4.5,13.2-11.7,13.8c-6.9,0.6-13.2-4.5-13.8-11.4C115.64-72.87,121.04-79.17,127.94-79.77"/>
	</g>
	<g id="g1069" transform="matrix(2.9168688,0,0,-2.9168688,46.188614,272.57416)">
		<path id="path1071" inkscape:connector-curvature="0" class="st1" d="M164.04-148.19c-0.6,1.2-1.5,2.4-3,3.3
			c-2.7,1.8-37.8,23.1-37.8,23.1c-4.2,3-9.6,2.7-13.5,0c-6.6-4.5-20.1-25.5-29.4-38.7c-7.5-6.3-35.7-31.2-44.1-41.1
			c-1.2-1.5-1.5-3-0.9-4.2c0.6-1.2,1.8-2.4,3-2.7c1.2-0.3,2.4,0,3.3,0.6l47.4,34.5c1.5,1.2,3,2.4,4.5,3.6l25.5,23.1
			c10.5-4.2,25.5-9,32.4-11.1c6.6-11.4,28.8-47.1,30.6-49.5c0.9-1.2,2.1-1.8,3.9-1.5c1.5,0.3,2.7,1.2,3.3,2.4c0.6,1.2,0.6,2.4,0,3.6
			"/>
	</g>
	<g id="g1073" transform="matrix(2.9168688,0,0,-2.9168688,57.199814,255.20422)">
		<path id="path1075" inkscape:connector-curvature="0" class="st1" d="M203.09-86.48c-3,2.1-6.9,3.3-10.8,3.3
			c-5.4,0.3-64.2,0-64.2,0c1.2-3.6,2.4-10.2,2.4-17.1c9.3,1.8,21.9,4.5,26.4,5.7c0.3,0,0.9,0.3,1.2,0.3c3.9,0.3,13.5,1.2,21.6,2.4
			l23.1-12.3c1.8-0.9,4.2,0,4.8,2.1C209.39-94.58,209.69-91.28,203.09-86.48"/>
	</g>
	<g id="g1077" transform="matrix(2.9168688,0,0,-2.9168688,28.319902,255.48129)">
		<path id="path1079" inkscape:connector-curvature="0" class="st1" d="M100.79-87.57c0.6-1.2,1.5-2.1,2.4-3
			c4.2-3.6,10.5-3,14.1,1.2c2.4,2.7,3,6.3,2.1,9.3c-1.8,6.3-10.5,22.8-14.7,29.4c-0.3,0.6-0.6,1.2-0.6,2.1c-0.3,7.5-2.1,24-3.3,31.8
			c1.2-0.3,2.7-0.3,4.2,0c3.9,0.9,6.3,4.5,5.4,8.4c-0.6,3.9-4.5,6.3-8.4,5.4c-3.3-0.6-5.4-3.6-5.7-6.6c-0.9,0-1.8-0.3-2.4-1.2
			c-0.6-0.6-0.9-1.5-0.9-2.4c0-2.4-0.9-33.6-0.6-38.4C92.69-57.57,97.49-80.97,100.79-87.57"/>
	</g>
</g>
</svg>
