<?xml version="1.0" encoding="utf-8"?>
<!-- Generator: Adobe Illustrator 24.2.0, SVG Export Plug-In . SVG Version: 6.00 Build 0)  -->
<svg version="1.1" id="Layer_1" xmlns="http://www.w3.org/2000/svg" xmlns:xlink="http://www.w3.org/1999/xlink" x="0px" y="0px"
	 width="480px" height="480px" viewBox="0 0 480 480" style="enable-background:new 0 0 480 480;" xml:space="preserve">
<style type="text/css">
	.st0{fill:#072163;}
	.st1{fill:#FFFFFF;}
</style>
<path class="st0" d="M480,240c0,132.4-107.6,240-240,240S0,372.4,0,240S107.6,0,240,0S480,107.6,480,240"/>
<path class="st1" d="M244,114c-8.4-11.2-20.8-27.6-22.4-30c-0.4-0.8-1.2-1.6-2-2.4c-2.4-2.8-41.6-42-44-44c-0.8-0.8-1.6-1.2-2.8-1.6
	c-4-1.6-8.4,0.4-10,4.4c-0.8,2.4-0.8,4.4,0.4,6.4c4,6.4,29.2,38.8,38.4,49.6c2.4,4.8,6,12.4,10.8,22.4
	C220.8,113.6,229.6,112,244,114"/>
<path class="st1" d="M188.8,109.6c-14.4-1.6-27.6,8.4-29.6,23.2c-1.6,14.4,8.4,27.6,23.2,29.6c14.4,1.6,27.6-8.4,29.6-23.2
	C214,124.8,203.6,111.6,188.8,109.6"/>
<path class="st1" d="M343.6,346c20-13.6,26-34.4-0.8-38c-6-0.8-15.6,1.2-25.2,7.6c-0.4,0.4-0.8,0.4-0.8,0.4
	c-14.4-17.6-34.4-42.8-42.4-51.6c6.8-7.6,12.8-15.2,17.6-20.8c4-4.4,6.4-10.4,6.4-16.8c0-13.6-11.2-24.8-24.8-24.4
	c-8.8,0-16.4,4.8-20.4,11.2c-4,5.2-41.6,74.4-42.4,76.4c-0.8,1.6-1.6,3.6-2,6c-0.8,4.8-2.4,14.8-4,27.6
	c-66.4-25.2-132.8-40.8-202.4-48c0.8,4.8,1.6,10,2.8,14.8c74.4,8,139.6,25.2,197.6,47.6c-2.4,18-5.2,36.8-6.8,50l-12.8,7.6
	c-7.2,4.4-16.4,5.2-20.8,9.2c-8.8,8,2,22.8,41.2,20.4c9.2-0.4,18.8-3.2,28.8-9.2l60.4-37.6c33.2,17.2,64,34.8,92.8,52.4
	c4-3.2,8-6.4,12-9.6c-27.2-16.4-57.2-34.4-90.4-51.6C307.2,369.2,338.4,349.2,343.6,346 M218.4,374c2.4-8.4,5.2-18,7.6-27.2
	c7.6,3.2,14.8,6.4,22,9.6L218.4,374z M288.4,332.4l-25.6,15.2c-10.8-4.8-22-10-33.2-14.4c3.2-11.2,5.6-21.2,7.2-27.6
	c4.4-4.4,11.2-12,19.2-21.2c8,8.4,27.6,26.8,42.8,41.6C295.6,328.4,292,330.4,288.4,332.4"/>
<path class="st1" d="M375.2,168.4C374,168,320,142.8,316,140.8c-0.8-0.4-2.4-0.8-3.6-1.2c-4-0.8-52.8-11.2-58-12
	c-1.2-0.4-2.8-0.4-4-0.4c-11.2,0.4-20,9.6-19.6,20.4s9.2,19.6,20,19.6c5.6,0,45.2-2,57.6-3.2c12.4,4.4,56,18.8,60.8,19.6
	c1.2,0.4,1.6,0.4,2.8,0.4c4.4,0,8-4,8-8.4C379.6,172.4,378,170,375.2,168.4"/>
<path class="st1" d="M241.6,419.2c-5.2,0.4-9.2,5.6-8.8,11.6c0,6,4,10,9.2,9.6s9.2-5.6,9.2-11.6
	C250.8,422.8,246.4,418.8,241.6,419.2"/>
<path class="st1" d="M342,357.2c-4.8,0.4-8.8,5.6-8.4,11.2c0,5.6,4,9.6,8.8,9.2s8.8-5.6,8.4-11.2C350.4,360.8,346.8,356.4,342,357.2
	"/>
</svg>
