<?xml version="1.0" encoding="utf-8"?>
<!-- Generator: Adobe Illustrator 24.2.0, SVG Export Plug-In . SVG Version: 6.00 Build 0)  -->
<svg version="1.1" id="Layer_1" xmlns="http://www.w3.org/2000/svg" xmlns:xlink="http://www.w3.org/1999/xlink" x="0px" y="0px"
	 width="480px" height="480px" viewBox="0 0 480 480" style="enable-background:new 0 0 480 480;" xml:space="preserve">
<style type="text/css">
	.st0{fill:#072163;}
	.st1{fill:#FFFFFF;}
</style>
<path class="st0" d="M480,240c0,132.4-107.6,240-240,240S0,372.4,0,240S107.6,0,240,0S480,107.6,480,240"/>
<path class="st1" d="M268.4,154c8.4,6.8,20.8,5.2,27.6-3.2c6.8-8.4,5.2-20.8-3.2-27.6c-8.4-6.8-20.8-5.2-27.6,3.2
	C258.4,134.8,259.6,147.2,268.4,154"/>
<path class="st1" d="M243.2,193.2c9.6-5.2,12.8-17.2,7.6-26.8s-17.2-12.8-26.8-7.6s-12.8,17.2-7.6,26.8
	C221.6,194.8,233.6,198.4,243.2,193.2"/>
<path class="st1" d="M134.4,320c-0.4,1.6,0.4,3.6,1.2,5.2c2.4,2.8,6.4,3.6,9.2,1.6c1.2-0.8,2-2,2.4-3.2l25.6-74
	c1.6-4.8,2-11.2-0.4-15.6c-3.6-6-32-51.2-32-51.2c-5.2-8.4-16.4-11.2-25.2-6c-1.6,0.8-4,2.8-5.6,5.6c-12.4,18-80.4,131.2-82,136.4
	c-0.8,2-0.4,4.4,0.8,6.4c2.4,2.8,6.4,3.6,9.2,1.6c0.4-0.4,1.2-0.8,2-2c1.2-1.6,86-104.4,86-104.4c8.4,9.2,16.8,17.6,24.8,25.2
	C144.8,266.8,136,307.2,134.4,320"/>
<path class="st1" d="M308,229.6c-3.2,3.6-5.6,10.4-5.6,16.8l-3.6,74.4c0,2,0.8,4.4,2.8,5.6c2.8,2.4,7.2,1.6,9.2-1.6
	c0.8-0.8,0.8-2,1.2-2.8c5.2-27.6,10.4-54,12.8-74.8c5.2-4,16.4-12.8,26.4-21.2l12,35.6c0.8,2,2,4,3.6,5.2l73.2,59.6
	c2.8,2.4,7.2,1.6,9.2-1.6c2-2.8,1.6-6.4-0.8-8.8c-23.2-25.2-46-49.2-63.2-63.6c-0.4-13.6-2.4-42.4-6-56.4c-1.2-4.8-4.4-8.4-8-10.8
	c-6.8-4-15.2-3.6-21.2,1.6C342.4,194.4,312,224.4,308,229.6"/>
<path class="st1" d="M312,143.2c-10.4,14-20.8,28-29.6,42.4c-11.2,11.6-23.2,26.4-36,42.4c-15.2-2.8-30-5.2-44-6.8
	c2.8-16.4,4.8-33.2,4.4-46.8c0-4.8-2.8-9.6-7.2-12.4c-7.2-4.4-16.4-2-20.8,4.8c-1.6,2.4-2,4.8-2.4,7.6c-0.4,14.8,2.4,35.6,6,56
	c0.4,2.8,1.6,5.2,4.4,6.8c1.6,0.8,3.2,1.2,4.8,1.2c0,0,53.6,0,55.6,0c2.4,0,2.8,0,4.8-1.2l82.8-74.4c2.4-2,4-4.8,4.8-8
	c1.6-8-3.6-16.4-11.6-18C321.2,136,315.6,138.4,312,143.2"/>
</svg>
