<?xml version="1.0" encoding="utf-8"?>
<!-- Generator: Adobe Illustrator 24.2.0, SVG Export Plug-In . SVG Version: 6.00 Build 0)  -->
<svg version="1.1" id="Layer_1" xmlns="http://www.w3.org/2000/svg" xmlns:xlink="http://www.w3.org/1999/xlink" x="0px" y="0px"
	 width="480px" height="480px" viewBox="0 0 480 480" style="enable-background:new 0 0 480 480;" xml:space="preserve">
<style type="text/css">
	.st0{fill:#072163;}
	.st1{fill:#FFFFFF;}
</style>
<circle class="st0" cx="240" cy="240" r="240"/>
<path class="st1" d="M170.8,234c-12.4-22.4-26.8-48-31.2-55.6c-2.8-8.8-34.8-76-38.8-84c-1.6-3.6-5.6-5.6-10-4.8
	c-4.4,1.2-7.2,5.6-6,10.4c2.4,9.2,57.2,167.2,58,166C149.6,252.8,158.8,241.2,170.8,234"/>
<path class="st1" d="M200.4,234.4c15.6,0,28.4-12.8,28.4-28.4s-12.8-28.4-28.4-28.4S172,190.4,172,206S184.8,234.4,200.4,234.4"/>
<path class="st1" d="M202.8,250.4c-12.4-1.6-23.6,7.6-25.2,20c0,1.2,0,2.4,0,3.2c0,6.8,8,40.4,12.8,58.8
	c-27.6,3.6-68.8,12-93.6,17.6c6,6.4,14.4,10,24,10c8.4,0,16.4-3.2,22.4-8.8c6,5.2,13.6,8.8,22.4,8.8c8.4,0,16.4-3.2,22.4-8.8
	c5.2,4.8,12.4,8.4,19.6,8.4c8.4,0,16-4.8,16.8-12.8c2.4-18.4,2-69.2-2.4-82C218.8,257.6,212,251.6,202.8,250.4"/>
<path class="st1" d="M329.6,234c-12.4-22.4-26.8-48-31.2-55.6c-2.8-8.8-34.8-76-38.8-84c-1.6-3.6-5.6-5.6-10-4.8
	c-4.4,1.2-7.2,5.6-6,10.4c2.4,9.2,57.2,167.2,58,166C308,252.8,317.2,241.2,329.6,234"/>
<path class="st1" d="M359.2,234.4c15.6,0,28.4-12.8,28.4-28.4s-12.8-28.4-28.4-28.4s-28.4,12.8-28.4,28.4S343.2,234.4,359.2,234.4"
	/>
<path class="st1" d="M361.6,250.4c-12.4-1.6-23.6,7.6-25.2,20c0,1.2,0,2.4,0,3.2c0,6.8,8,40.4,12.8,58.8
	c-27.6,3.6-68.8,12-93.6,17.6c6,6.4,14.4,10,24,10c8.4,0,16.4-3.2,22.4-8.8c6,5.2,13.6,8.8,22.4,8.8c8.4,0,16.4-3.2,22.4-8.8
	c5.2,4.8,12.4,8.4,19.6,8.4c8.4,0,16-4.8,16.8-12.8c2.4-18.4,2-69.2-2.4-82C377.6,257.6,370.4,251.6,361.6,250.4"/>
</svg>
