<?xml version="1.0" encoding="utf-8"?>
<!-- Generator: Adobe Illustrator 24.2.0, SVG Export Plug-In . SVG Version: 6.00 Build 0)  -->
<svg version="1.1" id="Layer_1" xmlns="http://www.w3.org/2000/svg" xmlns:xlink="http://www.w3.org/1999/xlink" x="0px" y="0px"
	 width="480px" height="480px" viewBox="0 0 480 480" style="enable-background:new 0 0 480 480;" xml:space="preserve">
<style type="text/css">
	.st0{fill:#072163;}
	.st1{fill:#FFFFFF;}
</style>
<path class="st0" d="M480,240c0,132.4-107.6,240-240,240S0,372.4,0,240S107.6,0,240,0S480,107.6,480,240"/>
<path class="st1" d="M329.6,335.2c-6.4,0-11.2,5.2-11.2,11.2c0,6.4,5.2,11.2,11.2,11.2c6.4,0,11.2-5.2,11.2-11.2
	C340.8,340,335.6,335.2,329.6,335.2"/>
<path class="st1" d="M329.6,370.8c-6.4,0-11.2,5.2-11.2,11.2c0,6.4,5.2,11.2,11.2,11.2c6.4,0,11.2-5.2,11.2-11.2
	C340.8,375.6,335.6,370.8,329.6,370.8"/>
<path class="st1" d="M219.6,127.2h14.8c0,2.8,0,5.2,0,7.6c0,4,0.8,6.8,2.8,9.6c0.8,1.2,4,4.8,5.6,6l4.8-4.4c0,0-4.4-4-5.6-6.4
	c-0.8-1.2-0.8-2.8-0.8-5.2s0-5.2,0-7.6h26.4c0.4,0,0.8-0.8,0.4-1.2c-4.4-3.2-8.8-6.4-8.8-6.4s-1.6-20.4-20.8-20
	c-18.8,0.8-20,16-19.2,26.4C218.4,126.4,218.8,127.2,219.6,127.2"/>
<path class="st1" d="M370.4,214.4L334.8,118c-0.8-2-4-2-4.4,0.4l-8,24.8c-13.6-1.2-42.4,2.4-67.6,24c-10.8,9.2-19.6,21.2-25.6,32.4
	c-8.8-3.6-21.2-8-31.2-11.6c7.2-8.4,17.6-20.4,19.6-23.2c1.2-2,2.4-4,2.4-6.4c1.2-8.8-4.8-17.2-13.6-18.4
	c-6.4-0.8-11.6,1.6-15.6,6.8s-22.8,38.4-24,42.8c-0.4,1.6-0.8,3.2-0.8,4.8c0.4,5.2,4,9.6,8.8,10.4c4.8,1.2,30,4.4,48.4,7.2
	c-2,4.4-3.6,8.4-4.8,11.6L182,240.4l-34-48.8c0,0-12.4,4.4-18.4,15.2c-2.4,4.4-3.6,9.6-2.8,16c0.8,4.4,2.4,7.6,5.2,10.8
	c2.4,2.8,11.6,10.8,22.4,19.6l-77.6,36c23.2,25.2,52.4,32.8,84.8,34.4c29.6,1.2,50.8-3.2,86-18c3.2-1.2,52-22.8,73.6-32.8
	c-1.6,9.6-2.8,20.4-3.6,26.4l-20,3.6c-0.4,0-0.8,0-1.2,0.4c-1.2,0.4-2.4,1.6-2.8,2.8c0,0.4-0.4,0.8-0.4,1.2l-5.6,18.8v0.4
	c0,1.2,1.2,2,2.4,2h0.4c0,0,32.8-14.4,36-16c1.2-0.8,2-1.2,2.4-1.6c0.8-0.8,1.2-1.6,1.6-2.4c2.4-6,14.8-44.8,16.4-50
	c0.4-1.6,0.8-4,0.8-6c-0.8-6-5.6-9.2-10-10c-0.4,0-1.6-0.4-4.4,0c-8.4,1.2-29.6,5.2-44,8.8c5.2-36,17.2-51.6,30.8-62
	c9.2,8,23.2,20.8,38,35.2c0.8,0.8,2,1.2,3.6,0.8c1.6-0.8,8-5.6,8.8-6.4C370.8,216.4,370.8,215.6,370.4,214.4"/>
</svg>
