<?xml version="1.0" encoding="utf-8"?>
<!-- Generator: Adobe Illustrator 24.2.0, SVG Export Plug-In . SVG Version: 6.00 Build 0)  -->
<svg version="1.1" id="Layer_1" xmlns="http://www.w3.org/2000/svg" xmlns:xlink="http://www.w3.org/1999/xlink" x="0px" y="0px"
	 width="480px" height="480px" viewBox="0 0 480 480" style="enable-background:new 0 0 480 480;" xml:space="preserve">
<style type="text/css">
	.st0{fill:#072163;}
	.st1{fill:#FFFFFF;}
</style>
<path class="st0" d="M480,240c0,132.4-107.6,240-240,240S0,372.4,0,240S107.6,0,240,0S480,107.6,480,240"/>
<path class="st1" d="M148,216.4c6,5.6,45.2,34.4,50.4,37.2c0,0,3.2,2,7.2,2c2.8,0,6.4-1.6,8-2.4c4.4-2,18-8,18-8
	c-11.2,20.8-18,36.4-20,41.6c-0.8,2.4-1.6,5.6-1.6,8.4c0,13.2,10.4,23.6,23.6,24c9.2,0,15.2-3.2,21.2-12.4c0.8-1.6,2-4,3.6-6.8
	c9.2-20.8,27.2-76,30-86c9.6-22.4,39.6-108.4,42.4-119.6c0.4-1.2,0.4-2,0.4-2.8c0.4-4.4-3.6-8.4-8-8.4c-3.2,0-5.2,1.6-6.8,3.6
	c-0.4,0.4-0.8,1.2-1.2,2c-0.8,1.2-24.4,45.6-48.8,91.2c-13.6,1.6-32.8,3.6-39.6,4.4c-4.8-1.2-14.4-3.6-24-5.6c4,8.8,6.8,18.4,8.4,28
	c10.8-0.4,14-0.8,16.4-1.2c0.4,0,0.8,0,0.8,0c2.8-0.8,16.4-4.4,28.4-8l-10.8,20c-10.8,2.8-23.6,6.4-32.4,8.8c-0.8,0.4-2,0.4-2.8,0.8
	C200.4,214,180,188.8,178,186.8c-3.2-3.6-8-6-13.2-6.4c-11.6-1.2-21.6,7.2-22.8,18.8C140.4,205.6,143.2,212,148,216.4"/>
<path class="st1" d="M77.2,416.4c5.6,5.2,11.2,10,17.2,14.4h291.2c6-4.4,11.6-9.2,17.2-14.4H77.2z"/>
<path class="st1" d="M193.6,165.2c6-4,10-10.4,11.2-18.4c2-14.4-8.4-28-22.8-30c-14.4-2-28,8.4-30,22.8c-1.2,9.2,2.4,18,9.2,23.6
	c3.6,3.2,8.4,5.6,13.6,6C181.6,170.8,188,168.8,193.6,165.2"/>
</svg>
