<?xml version="1.0" encoding="utf-8"?>
<!-- Generator: Adobe Illustrator 24.2.0, SVG Export Plug-In . SVG Version: 6.00 Build 0)  -->
<svg version="1.1" id="Layer_1" xmlns="http://www.w3.org/2000/svg" xmlns:xlink="http://www.w3.org/1999/xlink" x="0px" y="0px"
	 width="480px" height="480px" viewBox="0 0 480 480" style="enable-background:new 0 0 480 480;" xml:space="preserve">
<style type="text/css">
	.st0{fill:#072163;}
	.st1{fill:#FFFFFF;}
</style>
<path class="st0" d="M480,240c0,132.4-107.6,240-240,240S0,372.4,0,240S107.6,0,240,0S480,107.6,480,240"/>
<path class="st1" d="M263.6,258.8c-3.6-5.6-10-9.2-16.8-9.2c-10.4,0-19.2,8-20.4,18.4c0,0.8,0,1.2,0,2c0,5.2,5.6,80.4,6,83.6
	c0,1.6,0.4,2.8,1.2,4.4c1.6,3.6,4.4,6,7.6,7.2c14,5.6,85.2,32,95.2,35.2c0.4,0,1.2,0.4,1.2,0.4c1.6,0.4,3.2,0,4.8-0.4
	c4-1.6,5.6-6.4,3.6-10c-0.8-1.2-1.6-2.4-2.8-3.2c-1.6-1.2-59.2-31.6-82.4-43.6c0.4-7.6,0.8-18.4,1.2-29.2
	c8.4,12.4,15.6,22.8,16.4,23.6l0.4,0.4c2.4,2.4,5.2,3.6,8.4,4c7.6,0.8,81.2,3.2,84.8,2.8c1.6,0,3.2-0.8,4.4-1.6
	c2.8-2.4,2.8-6.8,0.4-9.6c-0.8-0.8-2-1.6-3.2-2c-1.6-0.4-56.8-10.4-77.2-13.6C288,301.6,266.4,262.8,263.6,258.8"/>
<path class="st1" d="M314,169.6c5.2-9.6,20.4-52,21.2-56.8c0-0.4,0-0.8,0-1.2c0-2.8-2.4-5.2-5.2-5.6c0-12.8-10.4-23.2-23.6-23.2
	c-12.8,0-23.6,10.4-23.6,23.6s10.4,23.6,23.6,23.6c2.4,0,4.8-0.4,6.8-0.8c-0.4,0.8-1.2,2-1.6,2.8c-2.8,5.2-9.6,17.6-13.2,25.2
	c-5.6,1.2-32,8-38,9.6c2.8,6,5.6,16.8,3.6,30.8c13.6-6,41.2-20.8,46.4-24C312,172,313.2,170.8,314,169.6"/>
<path class="st1" d="M239.6,162c12,0,21.6-9.6,21.6-21.6s-9.6-21.6-21.6-21.6s-21.6,9.6-21.6,21.6S227.6,162,239.6,162"/>
<path class="st1" d="M143.6,282.8c7.2-2.8,58.4-28,62.8-30.8c1.2-0.8,2.4-1.6,3.2-2.8c3.6-4,30.8-46.8,32.4-51.6
	c0.8-2,1.2-4,1.2-6.4c0-9.6-7.6-17.2-17.2-17.2c-6.4,0-12.4,3.6-15.2,9.2c-2.4,3.6-14.8,38.4-19.2,52c-14.4,8.4-52.8,32.8-55.6,36.4
	c-1.2,1.2-2,2.8-2,4.8c0,3.6,3.2,6.8,6.8,6.8C142,283.2,142.8,283.2,143.6,282.8"/>
<path class="st1" d="M150,103.6l-14.8,45.6c-0.4,1.6,0.4,3.6,2,4c0.4,0,0.8,0,0.8,0c1.2,0,2.4-0.8,2.8-2c0,0,18.4-50,18.4-58.4
	c0-12.4-27.2-15.6-42.8-15.6c-16,0-42.8,3.2-42.8,15.6c0,8,18.4,58.4,18.4,58.4c0.4,1.2,1.6,2,2.8,2c0.4,0,0.8,0,0.8,0
	c1.6-0.4,2.4-2.4,2-4L84,103.6c9.2,4,23.2,5.2,33.2,5.2C126.8,108.8,140.8,107.6,150,103.6 M117.2,102.8c-19.2,0-35.2-4-35.2-9.6
	s16-9.6,35.2-9.6s35.2,4,35.2,9.6S136.4,102.8,117.2,102.8"/>
<polygon class="st1" points="324.8,274.8 347.6,274.8 366.4,258 354.4,239.6 335.6,256.4 329.2,256.4 "/>
<polygon class="st1" points="414,214.8 421.6,214.8 425.6,196.8 402.4,196.8 383.2,213.6 395.2,232 "/>
<polygon class="st1" points="366,196.8 342.4,196.8 338,214.8 345.2,214.8 384,274.8 407.6,274.8 411.6,256.4 404.4,256.4 "/>
<polygon class="st1" points="297.2,208 292.8,225.6 300.8,235.2 288.8,244.8 284.4,263.2 294,274.8 319.2,274.8 323.6,256.8 
	314,256.8 316.8,245.2 328.8,245.2 333.6,225.6 321.2,225.6 324,215.2 332,215.2 336.4,196.8 312,196.8 "/>
<polygon class="st1" points="466.4,208 456.8,196.8 431.6,196.8 427.2,214.8 436.8,214.8 434,225.2 422,225.2 417.6,244.8 
	429.6,244.8 426.8,256.4 417.6,256.4 413.2,274.8 438.8,274.8 453.6,263.6 458,244.8 450.4,235.2 462.4,225.6 "/>
</svg>
