<?xml version="1.0" encoding="utf-8"?>
<!-- Generator: Adobe Illustrator 24.2.0, SVG Export Plug-In . SVG Version: 6.00 Build 0)  -->
<svg version="1.1" id="Layer_1" xmlns="http://www.w3.org/2000/svg" xmlns:xlink="http://www.w3.org/1999/xlink" x="0px" y="0px"
	 width="480px" height="480px" viewBox="0 0 480 480" style="enable-background:new 0 0 480 480;" xml:space="preserve">
<style type="text/css">
	.st0{fill:#072163;}
	.st1{fill:#FFFFFF;}
</style>
<path class="st0" d="M480,240c0,132.4-107.6,240-240,240S0,372.4,0,240S107.6,0,240,0S480,107.6,480,240"/>
<path class="st1" d="M154.8,217.6c19.2-0.4,34.4-16,34-35.2c-0.4-19.2-16-34.4-35.2-34c-19.2,0.4-34.4,16-34,35.2
	C120,202.8,135.6,218,154.8,217.6"/>
<path class="st1" d="M103.2,229.6c-12.4-9.2-29.6-6.8-39.2,5.2c-9.2,12.4-7.2,30,5.6,39.2c18.8,14,69.2,46.8,76.8,50.4
	c3.6,2,7.2,2.8,11.2,2c5.2-0.8,9.6-4,12-7.2c4.8-6.8,59.6-82,59.6-82l19.2-13.2l30-2.8l-36.8,40c-4.8-0.8-10-1.6-14.8-2.4
	l-24.4,33.6l42.4,3.6c1.6,0,2.8,0.4,3.6,0.4c6.4,0,11.6-3.6,14.8-9.2l43.2-75.6l130-13.6c1.2,0,2.4-1.2,2-2.8l-0.8-8.4
	c0-1.2-1.2-2.4-2.8-2l-176.4,18.4c-6,0.8-11.6,2-17.2,4.4l-24.4,11.2c-3.2,1.6-6.8,2.4-10.4,2.8l-100,10.8
	C106.4,232,104.4,230.4,103.2,229.6 M155.2,283.2c-5.2-5.6-11.6-12.4-18.4-19.2l51.6-13.6C177.2,261.2,164.8,273.2,155.2,283.2"/>
</svg>
