<?xml version="1.0" encoding="utf-8"?>
<!-- Generator: Adobe Illustrator 24.2.0, SVG Export Plug-In . SVG Version: 6.00 Build 0)  -->
<svg version="1.1" id="Layer_1" xmlns="http://www.w3.org/2000/svg" xmlns:xlink="http://www.w3.org/1999/xlink" x="0px" y="0px"
	 width="480px" height="480px" viewBox="0 0 480 480" style="enable-background:new 0 0 480 480;" xml:space="preserve">
<style type="text/css">
	.st0{fill:#072163;}
	.st1{fill:#FFFFFF;}
</style>
<path class="st0" d="M480,240c0,132.4-107.6,240-240,240S0,372.4,0,240S107.6,0,240,0S480,107.6,480,240"/>
<path class="st1" d="M271.2,120.8c-4.4,0-9.2-0.8-13.2-1.6c-0.8,8-1.2,14.4-1.6,16.8c-1.2,6.8-9.6,53.6-10,58
	c-0.8,8.4,3.6,16.4,11.6,20c10,4.4,21.2,0,25.6-10c1.2-2.8,1.6-5.6,1.6-8.4c0-6-3.6-52.8-4-58.4c0-2,0-8.4,0-16.8
	C278,120.4,274.8,120.8,271.2,120.8"/>
<path class="st1" d="M294,176.8c0,12.4,10,22.4,22.4,22.4s22.4-10,22.4-22.4s-10-22.4-22.4-22.4C303.6,154.4,294,164.4,294,176.8"/>
<path class="st1" d="M319.2,425.6c0,4.8,4,8.8,8.4,8.8s8-3.2,8.4-7.2l15.2-95.6c0-0.8,0-1.2,0-2c0-5.2-2.8-10-7.2-12.4
	c-20-11.2-70.8-41.2-76-43.6c-3.2-1.6-6.8-2.4-10.4-2.4c-7.6,0-13.6,3.6-19.2,10c-4.4,5.6-34,57.2-43.6,74
	c-15.6,14-68.8,63.6-70.8,65.6c-3.2,3.6-3.2,9.2,0,12.4c3.2,3.2,8,3.6,11.6,0.8l80-57.6c0.4-0.4,0.8-0.8,1.6-1.2
	c0.4-0.4,0.8-0.8,0.8-0.8c11.6-12.4,36-39.6,49.2-55.2c16,6,39.6,14.8,54.8,20.4C321.2,364.4,319.2,416.4,319.2,425.6"/>
<path class="st1" d="M271.2,113.6c26.4,0.4,48-21.2,48-47.6c0.4-26.4-21.2-48-47.6-48c-26.4-0.4-48,21.2-48,47.6
	C223.6,91.6,245.2,113.2,271.2,113.6 M272,58.4c4,0,7.6,3.2,7.2,7.6c0,4-3.2,7.6-7.6,7.2c-4,0-7.6-3.2-7.2-7.6
	C264.4,61.6,267.6,58.4,272,58.4"/>
</svg>
