<?xml version="1.0" encoding="utf-8"?>
<!-- Generator: Adobe Illustrator 25.3.1, SVG Export Plug-In . SVG Version: 6.00 Build 0)  -->
<svg version="1.1"
	 id="svg1422" xmlns:cc="http://creativecommons.org/ns#" xmlns:dc="http://purl.org/dc/elements/1.1/" xmlns:inkscape="http://www.inkscape.org/namespaces/inkscape" xmlns:rdf="http://www.w3.org/1999/02/22-rdf-syntax-ns#" xmlns:sodipodi="http://sodipodi.sourceforge.net/DTD/sodipodi-0.dtd" xmlns:svg="http://www.w3.org/2000/svg"
	 xmlns="http://www.w3.org/2000/svg" xmlns:xlink="http://www.w3.org/1999/xlink" x="0px" y="0px" viewBox="0 0 750 750"
	 style="enable-background:new 0 0 750 750;" xml:space="preserve">
<style type="text/css">
	.st0{fill:#072163;}
	.st1{fill:#FFFFFF;}
</style>
<sodipodi:namedview  bordercolor="#666666" borderopacity="1.0" id="base" inkscape:current-layer="layer1" inkscape:cx="410.36568" inkscape:cy="51.776597" inkscape:document-units="mm" inkscape:pagecheckerboard="true" inkscape:pageopacity="0.0" inkscape:pageshadow="2" inkscape:window-height="705" inkscape:window-maximized="1" inkscape:window-width="1366" inkscape:window-x="-8" inkscape:window-y="-8" inkscape:zoom="0.87673303" pagecolor="#ffffff" showgrid="false" units="px">
	</sodipodi:namedview>
<g id="layer1" transform="translate(0,-230.85415)" inkscape:groupmode="layer" inkscape:label="Layer 1">
	<g id="g1221" transform="matrix(2.9168688,0,0,-2.9169974,66.145833,263.92707)">
		<g>
			<path id="path1223_8_" inkscape:connector-curvature="0" class="st0" d="M234.4-117.2c0-71-57.6-128.6-128.6-128.6
				S-22.7-188.2-22.7-117.2S34.9,11.3,105.9,11.3S234.4-46.2,234.4-117.2"/>
		</g>
	</g>
	<g id="g1225" transform="matrix(2.9169974,0,0,-2.9169974,46.04186,286.9685)">
		<path id="path1227" inkscape:connector-curvature="0" class="st1" d="M163.2-198.9c0.7-0.4,1.6-0.3,2.3,0.2c0.9,0.7,1.1,2.1,0.3,3
			c-0.7,0.8-5.5,5.7-8.8,9l-2.1,9.5l7.9,2.5l-8,32.4c-0.6,2.4-2,4.5-4,6l-30.2,22.3H76.2l-10.7-24.2H82l16.4-18.1
			c-5.4-12.8-16.9-39.8-16.9-39.8c-0.2-0.5-0.2-1.1,0-1.6c0.4-0.9,1.2-1.4,2.1-1.4l19,0c0.9,0,1.7,0.5,2,1.4c0.5,1.1-0.1,2.5-1.2,3
			c-0.1,0.1-0.2,0.1-0.4,0.1l-10.3,2.3l3.3,5.2l8.6-2.6l17.5,30c2.2,3.8,2.1,8.6-0.5,12.4l-1.6,2.6l15.2-8.2
			c2.8-7.4,9.2-23.7,12.4-32c-0.5-1-1.3-2.5-1.3-2.5c-0.1-0.2-0.2-0.5-0.3-0.8c-0.1-0.9,0.4-1.7,1.1-2.2"/>
	</g>
	<g id="g1229" transform="matrix(2.9169974,0,0,-2.9169974,34.35056,257.44552)">
		<path id="path1231" inkscape:connector-curvature="0" class="st1" d="M121.7-94.2c-0.2-0.1-0.3-0.1-0.5-0.2l-26.9-7.9l1.2,9.4h8.1
			c0,0.8,0.4,1.6,1.1,2c0.4,0.2,0.7,0.3,1.2,0.3h14.8c0.7,0,1.4-0.4,1.7-1C123-92.5,122.7-93.7,121.7-94.2 M185.9-69.4
			c-0.1,0.6-0.6,1.2-1.2,1.4c-0.6,0.1-1.1,0-1.5-0.4c-0.1-0.1-0.2-0.2-0.3-0.3c-0.4-0.6-4-5.5-7-9.5l-50.4,21.5c-1.6,0.7-3.2,1-5,1
			h-5.3v-23.7L95.6-55.8h-7.1c-0.9,0-1.9-0.1-2.6-0.3c-4.7-0.9-8.1-4.2-9.8-8.4L64.7-90.6c-0.9-2.2-1.2-4.6-0.7-7.1
			c0.9-4.7,4.5-8.3,8.8-9.3c0.7-0.2,2-0.5,2.4-0.5l5.3-1.1l1-9.2h41.9l6.6,33.7l25.1-6.4l3.2,7.8l20.3-3.3c0.4-0.1,0.8-0.1,1-0.1
			c1.3,0.1,2.5,0.9,3,2.6c0.4,1.8,3.3,13.2,3.3,13.4C185.9-69.9,185.9-69.6,185.9-69.4"/>
	</g>
	<g id="g1233" transform="matrix(2.9169974,0,0,-2.9169974,30.59932,246.79268)">
		<path id="path1235" inkscape:connector-curvature="0" class="st1" d="M108.5-56.5c7.2,0.5,12.7,6.7,12.2,13.9
			c-0.5,7.2-6.7,12.7-13.9,12.2c-7.2-0.5-12.7-6.7-12.2-13.9C95-51.5,101.3-57,108.5-56.5"/>
	</g>
</g>
</svg>
