<?xml version="1.0" encoding="utf-8"?>
<!-- Generator: Adobe Illustrator 24.2.0, SVG Export Plug-In . SVG Version: 6.00 Build 0)  -->
<svg version="1.1" id="Layer_1" xmlns="http://www.w3.org/2000/svg" xmlns:xlink="http://www.w3.org/1999/xlink" x="0px" y="0px"
	 width="480px" height="480px" viewBox="0 0 480 480" style="enable-background:new 0 0 480 480;" xml:space="preserve">
<style type="text/css">
	.st0{fill:#072163;}
	.st1{fill:#FFFFFF;}
</style>
<path class="st0" d="M480,240c0,132.4-107.6,240-240,240S0,372.4,0,240S107.6,0,240,0S480,107.6,480,240"/>
<path class="st1" d="M141.2,223.2C108.8,228,34,239.6,30.8,240c-3.6,0.4-6.4,3.6-6.4,7.6s3.6,8,8,7.6c2,0,113.2-6.4,160.8-9.2
	C178,239.2,154,228.8,141.2,223.2"/>
<path class="st1" d="M207.2,328.4c-3.6,0-6.4,2.8-6.4,6.4s2.8,6.4,6.4,6.4c3.6,0,6.4-2.8,6.4-6.4
	C213.6,331.2,210.8,328.4,207.2,328.4"/>
<path class="st1" d="M240,328.4c-3.6,0-6.4,2.8-6.4,6.4s2.8,6.4,6.4,6.4c3.6,0,6.4-2.8,6.4-6.4C246.4,331.2,243.6,328.4,240,328.4"
	/>
<path class="st1" d="M272.8,328.4c-3.6,0-6.4,2.8-6.4,6.4s2.8,6.4,6.4,6.4s6.4-2.8,6.4-6.4C279.2,331.2,276,328.4,272.8,328.4"/>
<path class="st1" d="M305.2,328.4c-3.6,0-6.4,2.8-6.4,6.4s2.8,6.4,6.4,6.4s6.4-2.8,6.4-6.4C311.6,331.2,308.8,328.4,305.2,328.4"/>
<path class="st1" d="M338,328.4c-3.6,0-6.4,2.8-6.4,6.4s2.8,6.4,6.4,6.4s6.4-2.8,6.4-6.4C344.4,331.2,341.6,328.4,338,328.4"/>
<path class="st1" d="M370.4,328.4c-3.6,0-6.4,2.8-6.4,6.4s2.8,6.4,6.4,6.4s6.4-2.8,6.4-6.4C376.8,331.2,374,328.4,370.4,328.4"/>
<path class="st1" d="M403.2,328.4c-3.6,0-6.4,2.8-6.4,6.4s2.8,6.4,6.4,6.4s6.4-2.8,6.4-6.4C409.6,331.2,406.8,328.4,403.2,328.4"/>
<path class="st1" d="M174.8,328.4c-3.6,0-6.4,2.8-6.4,6.4s2.8,6.4,6.4,6.4c3.6,0,6.4-2.8,6.4-6.4
	C181.2,331.2,178.4,328.4,174.8,328.4"/>
<path class="st1" d="M142,328.4c-3.6,0-6.4,2.8-6.4,6.4s2.8,6.4,6.4,6.4c3.6,0,6.4-2.8,6.4-6.4C148.4,331.2,145.6,328.4,142,328.4"
	/>
<path class="st1" d="M109.6,328.4c-3.6,0-6.4,2.8-6.4,6.4s2.8,6.4,6.4,6.4s6.4-2.8,6.4-6.4C116,331.2,112.8,328.4,109.6,328.4"/>
<path class="st1" d="M76.8,328.4c-3.6,0-6.4,2.8-6.4,6.4s2.8,6.4,6.4,6.4s6.4-2.8,6.4-6.4C83.2,331.2,80.4,328.4,76.8,328.4"/>
<path class="st1" d="M223.6,350.8c-3.6,0-6.4,2.8-6.4,6.4s2.8,6.4,6.4,6.4c3.6,0,6.4-2.8,6.4-6.4C230,354,227.2,350.8,223.6,350.8"
	/>
<path class="st1" d="M256.4,350.8c-3.6,0-6.4,2.8-6.4,6.4s2.8,6.4,6.4,6.4c3.6,0,6.4-2.8,6.4-6.4C262.8,354,260,350.8,256.4,350.8"
	/>
<path class="st1" d="M288.8,350.8c-3.6,0-6.4,2.8-6.4,6.4s2.8,6.4,6.4,6.4s6.4-2.8,6.4-6.4C295.2,354,292.4,350.8,288.8,350.8"/>
<path class="st1" d="M321.6,350.8c-3.6,0-6.4,2.8-6.4,6.4s2.8,6.4,6.4,6.4s6.4-2.8,6.4-6.4C328,354,325.2,350.8,321.6,350.8"/>
<path class="st1" d="M354.4,350.8c-3.6,0-6.4,2.8-6.4,6.4s2.8,6.4,6.4,6.4s6.4-2.8,6.4-6.4C360.8,354,358,350.8,354.4,350.8"/>
<path class="st1" d="M386.8,350.8c-3.6,0-6.4,2.8-6.4,6.4s2.8,6.4,6.4,6.4s6.4-2.8,6.4-6.4C393.2,354,390.4,350.8,386.8,350.8"/>
<path class="st1" d="M191.2,350.8c-3.6,0-6.4,2.8-6.4,6.4s2.8,6.4,6.4,6.4c3.6,0,6.4-2.8,6.4-6.4C197.6,354,194.4,350.8,191.2,350.8
	"/>
<path class="st1" d="M158.4,350.8c-3.6,0-6.4,2.8-6.4,6.4s2.8,6.4,6.4,6.4c3.6,0,6.4-2.8,6.4-6.4C164.8,354,162,350.8,158.4,350.8"
	/>
<path class="st1" d="M125.6,350.8c-3.6,0-6.4,2.8-6.4,6.4s2.8,6.4,6.4,6.4s6.4-2.8,6.4-6.4C132,354,129.2,350.8,125.6,350.8"/>
<path class="st1" d="M93.2,350.8c-3.6,0-6.4,2.8-6.4,6.4s2.8,6.4,6.4,6.4s6.4-2.8,6.4-6.4C99.6,354,96.8,350.8,93.2,350.8"/>
<path class="st1" d="M438.8,215.6c-12.4-1.6-24,7.2-26,19.6c-1.6,12.4,7.2,24,19.6,26c12.4,1.6,24-7.2,26-19.6
	C460,228.8,451.2,217.2,438.8,215.6"/>
<path class="st1" d="M311.6,208c-2-5.6-6.8-10-12.8-11.2c-10-2.4-20,3.6-22.8,13.6c-1.2,4.4-0.4,8.8,1.2,12.8
	c10.4,18.8,22.8,40.4,34.4,60c2,2.8,4.8,5.2,8.4,5.6c30.8,4,65.6,7.2,81.2,8.8c0.4,0,0.4,0,0.8,0c3.2,0,6.4-3.2,6.4-6.8
	c0-2-1.2-4-2.8-5.2l-0.4-0.4c-16-10.4-41.6-27.2-58.8-38c-8.8-12.8-16.8-24-26-35.6c6.4,17.2,11.2,34,15.6,49.6
	c0.4,0.4,0.8,0.4,1.2,0.8c10,4.4,25.2,10,39.6,15.6c-15.2-3.6-32.4-7.2-46.4-10C324.8,247.6,318.8,227.6,311.6,208"/>
<path class="st1" d="M344,218.8c12.4,2,24.4-6.8,26-19.2c2-12.4-6.8-24.4-19.2-26c-12.4-2-24.4,6.8-26,19.2
	C322.8,205.2,331.6,216.8,344,218.8"/>
<path class="st1" d="M74,114.8c-2.4-2-5.6-2.4-8.4-1.2c-4,1.6-6,6.4-4,10.4c0.4,0.8,0.8,1.2,1.2,2c8.4,10.8,62.4,76.4,68,82.8
	c1.6,2,3.2,3.2,6,4.4c6.8,2.8,51.6,22.8,68.4,29.6c1.2,0.4,2.4,0.8,4,1.2c11.6,2.4,23.6-4.8,26-16.8c2.4-11.2-4.4-22.4-15.6-25.6
	c-10.4-2.8-46.8-10.8-70.4-15.6C132,168,99.2,137.6,74,114.8"/>
</svg>
