<?xml version="1.0" encoding="utf-8"?>
<!-- Generator: Adobe Illustrator 24.2.0, SVG Export Plug-In . SVG Version: 6.00 Build 0)  -->
<svg version="1.1" id="Layer_1" xmlns="http://www.w3.org/2000/svg" xmlns:xlink="http://www.w3.org/1999/xlink" x="0px" y="0px"
	 width="480px" height="480px" viewBox="0 0 480 480" style="enable-background:new 0 0 480 480;" xml:space="preserve">
<style type="text/css">
	.st0{fill:#072163;}
	.st1{fill:#FFFFFF;}
</style>
<path class="st0" d="M480,240c0,132.4-107.6,240-240,240S0,372.4,0,240S107.6,0,240,0S480,107.6,480,240"/>
<path class="st1" d="M245.6,176.8c4.4,4.4,11.2,7.2,18,6.4c12-1.2,20.4-12,19.2-24c-0.4-4.4-2.4-8.4-4.8-11.2
	c-4.4-5.6-11.6-8.8-19.2-8c-12,1.2-20.4,12-19.2,24C240,169.2,242,173.6,245.6,176.8"/>
<path class="st1" d="M312.4,179.6c4.8-0.4,8.8-2.8,11.6-6.4c0.8-1.2,1.6-2.4,2.8-4c8-12.4,25.6-42.8,26.8-46c4.4-8,21.2-54.4,22-60
	c0.8-3.2-1.2-6.4-4.4-7.2c-2.8-0.8-5.2,0.8-6.4,2.8c-4,6.8-24.4,44.4-28.8,53.6c-5.2,4.8-34.4,35.2-35.6,36.8c-1.6,1.6-2,2-3.2,4.4
	c-2,2.8-3.2,6.8-2.8,10.8C294.8,173.6,303.2,180.4,312.4,179.6"/>
<path class="st1" d="M192.8,275.2c-2-1.2-24-15.6-32-20c14.4-5.2,32-12,45.6-17.2c6.4-11.2,13.2-22.8,18.8-32c-3.2-1.6-6-2-9.2-0.8
	c-1.2,0.4-2.4,0.8-4.8,2c-13.2,6.4-52,26.8-69.6,36.8c-10.4-5.6-19.6-10-28.8-14.4c-18-8.4-31.2-13.6-36.4-15.6
	c-2-0.8-3.6-0.8-5.2-0.8c-6.4,0-11.2,5.2-11.2,11.6c0,1.6,0.4,3.6,1.2,5.2c2,4,8,13.6,16.8,24.4l-12.8,20.8
	c-0.8,1.6,0.8,3.6,2.4,2.8l24-9.2c20.4,19.6,41.2,37.2,84.4,64c80,48.8,139.6,58,159.2,59.2c2,0,3.2-2,2-3.6
	c-12.8-17.6-42.8-43.2-104.4-86c4.8-4,10.4-8.4,16.4-13.2c0,0,2.8,4,4.4,5.6c1.6,1.6,3.6,3.6,5.6,4.8c10.4,6,26,2.8,31.2-12
	c4.8-14.8,10.8-40.4,12.4-48s-4-15.6-12-17.2c-4.4-0.8-8,0.4-11.6,2.8c-3.2,2.4-17.6,18-17.6,18c-2.8-2.8-5.6-6-8-9.2
	c-7.2,8.4-15.6,18-23.2,26.8c2,3.2,4,6.4,6,9.2c-7.6,8-14.4,15.6-19.6,21.2c-2.8-2-12.8-8.8-14.4-9.6c1.6-1.6,54-62.8,54-62.8
	c-4.8-10.4-9.6-22.8-10.8-32c-0.4,0.4-1.2,1.2-2.4,2.4c-0.8,1.2-3.2,5.2-4.4,6.8C237.6,198.4,196.4,269.2,192.8,275.2"/>
<path class="st1" d="M397.2,406c-5.6,6-13.6,9.6-22.4,9.6S358,412,352.4,406c-5.6,6-13.6,9.6-22.4,9.6s-16.8-3.6-22.4-9.6
	c-5.6,6-13.6,9.6-22.4,9.6s-16.8-3.6-22.4-9.6c-5.6,6-13.6,9.6-22.4,9.6c-8.8,0-16.8-3.6-22.4-9.6c-5.6,6-13.6,9.6-22.4,9.6
	c-8.8,0-16.8-3.6-22.4-9.6c-5.6,6-13.6,9.6-22.4,9.6c-8.8,0-16.8-3.6-22.4-9.6c-5.6,6-13.6,9.6-22.4,9.6S89.2,412,83.6,406
	c-2.8,2.8-6,4.8-9.2,6.8c7.6,7.6,16,14.4,24.8,20.8h283.6c8.8-6.4,17.2-13.2,24.8-20.8C403.2,411.2,400,408.8,397.2,406"/>
</svg>
