<?xml version="1.0" encoding="utf-8"?>
<!-- Generator: Adobe Illustrator 24.2.0, SVG Export Plug-In . SVG Version: 6.00 Build 0)  -->
<svg version="1.1" id="Layer_1" xmlns="http://www.w3.org/2000/svg" xmlns:xlink="http://www.w3.org/1999/xlink" x="0px" y="0px"
	 width="480px" height="480px" viewBox="0 0 480 480" style="enable-background:new 0 0 480 480;" xml:space="preserve">
<style type="text/css">
	.st0{fill:#072163;}
	.st1{fill:#FFFFFF;}
</style>
<path class="st0" d="M480,240c0,132.4-107.6,240-240,240S0,372.4,0,240S107.6,0,240,0S480,107.6,480,240"/>
<path class="st1" d="M357.2,106c-12,0-22,9.6-22,22c0,12,9.6,22,22,22c12,0,22-9.6,22-22C378.8,116,369.2,106,357.2,106"/>
<path class="st1" d="M276.4,174.8c-5.2-21.6-12.8-52-18.4-74c-2.4-10.4-13.2-17.6-24.4-15.6c-8.8,1.6-15.2,9.2-16.4,17.6
	c-2.8,20.8-5.2,45.2-7.2,70.8c-1.2,0.8-2.4,2-3.6,3.2c-11.2-22.4-34.4-38-61.2-38c-37.6,0-68.4,30.8-68.4,68.4s30.8,68.4,68.4,68.4
	s68.4-30.8,68.4-68.4c0-0.8,0-2,0-2.8c6.4-4,12.8-8,18-11.2c2.8-2,5.2-4.8,6.4-8.4l5.2-18.4c2,4.4,3.6,8.8,5.6,13.2
	C243.2,200.4,228,268,228,268c-0.4,1.2-0.4,2.4,0,4c1.2,3.6,5.2,6,9.2,4.8c2.4-0.8,4-2.8,4.8-4.8l33.6-88
	C276.8,180.8,277.2,177.6,276.4,174.8 M144,228.4c-2,1.6-2.8,4.4-2.4,7.2c0.8,4,4.8,6.8,8.8,6.4c0.8,0,1.6-0.4,2.4-0.8
	c0,0,0,0,0.4-0.4l0,0c3.6-2.4,26.8-16,49.2-29.6c-2,30-26.8,53.6-57.2,53.6c-31.6,0-57.2-25.6-57.2-57.2s25.6-57.2,57.2-57.2
	c23.2,0,43.6,14,52.4,34C174.4,202.4,144,228.4,144,228.4"/>
<path class="st1" d="M298.8,189.2c0.8,1.2,34.4,38.4,34.4,38.4l-13.6-2.8c-2.8-0.8-5.6,1.2-6.4,4L301.6,274
	c-3.6-0.8-7.6-1.2-11.6-1.2c-37.6,0-68.4,30.8-68.4,68.4s30.8,68.4,68.4,68.4s68.4-30.8,68.4-68.4c0-30-19.2-55.6-46-64.8l10.4-40
	L348,242c0.4,0,1.2,0.4,1.6,0.4c3.6,0,6.8-3.2,6.8-6.8c0-1.6-0.4-2.8-1.2-4c0,0-34-49.2-36-52c1.2-11.6,3.6-40.8,4.8-53.2
	c0-2.4,0-4.4-0.8-6.8c-3.2-9.2-12.8-14-21.6-10.8c-7.6,2.4-12.4,10-11.6,17.6c0.8,8.8,3.2,32,8,58.4
	C297.2,186,297.6,188,298.8,189.2 M289.6,398.8c-31.6,0-57.2-25.6-57.2-57.2s25.6-57.2,57.2-57.2c3.2,0,6,0.4,8.8,0.8l-14,54.8
	c-0.8,2.8,1.2,6,4,6.8c0.4,0,0.8,0,1.2,0c2.4,0,4.8-1.6,5.2-4l14-55.2c22,8,38,29.2,38,54C347.2,373.2,321.2,398.8,289.6,398.8"/>
<path class="st1" d="M298.8,189.2c0.8,1.2,34.4,38.4,34.4,38.4l-13.6-2.8c-2.8-0.8-5.6,1.2-6.4,4L301.6,274
	c-3.6-0.8-7.6-1.2-11.6-1.2c-37.6,0-68.4,30.8-68.4,68.4s30.8,68.4,68.4,68.4s68.4-30.8,68.4-68.4c0-30-19.2-55.6-46-64.8l10.4-40
	L348,242c0.4,0,1.2,0.4,1.6,0.4c3.6,0,6.8-3.2,6.8-6.8c0-1.6-0.4-2.8-1.2-4c0,0-16.4-23.6-29.2-41.6c-2-3.2-5.2-7.6-7.2-10.4
	c1.2-11.6,3.6-40.8,4.8-53.2c0-2.4,0-4.4-0.8-6.8c-3.2-9.2-12.8-14-21.6-10.8c-7.6,2.4-12.4,10-11.6,17.6c0.8,8.8,3.2,32,8,58.4
	C297.2,186,297.6,188,298.8,189.2 M289.6,398.8c-31.6,0-57.2-25.6-57.2-57.2s25.6-57.2,57.2-57.2c3.2,0,6,0.4,8.8,0.8l-14,54.8
	c-0.8,2.8,1.2,6,4,6.8c0.4,0,0.8,0,1.2,0c2.4,0,4.8-1.6,5.2-4l14-55.2c22,8,38,29.2,38,54C347.2,373.2,321.2,398.8,289.6,398.8"/>
</svg>
