<?xml version="1.0" encoding="utf-8"?>
<!-- Generator: Adobe Illustrator 24.2.0, SVG Export Plug-In . SVG Version: 6.00 Build 0)  -->
<svg version="1.1" id="Layer_1" xmlns="http://www.w3.org/2000/svg" xmlns:xlink="http://www.w3.org/1999/xlink" x="0px" y="0px"
	 width="480px" height="480px" viewBox="0 0 480 480" style="enable-background:new 0 0 480 480;" xml:space="preserve">
<style type="text/css">
	.st0{fill:#072163;}
	.st1{fill:#FFFFFF;}
</style>
<path class="st0" d="M480,240c0,132.4-107.6,240-240,240S0,372.4,0,240S107.6,0,240,0S480,107.6,480,240"/>
<path class="st1" d="M178,190c0.8,24.4,9.2,123.2,11.6,135.6c1.2,6,7.2,7.6,11.6,6c2.8-1.2,4.4-3.6,4.8-6.4
	c0.4-2.8,3.2-56.8,6.4-112.8c4-2.4,32-18.8,37.2-22c4.8-0.8,14.4-3.2,23.6-5.6c-7.6-6-14.4-13.6-20.8-21.6
	c-6.4,3.6-10.4,5.6-13.2,7.6c0,0-0.4,0-0.4,0.4c-5.2,3.6-24.8,20.8-25.2,21.6c0-0.8,0.8-18.4,1.2-25.6c8.8-7.6,27.2-24,28-24.8
	c16.8,6.8,48.4,18.8,53.2,20.4c5.2,1.6,10.8,1.2,16-1.2c8.4-4,13.2-12.4,13.2-20.8c0-2.8-0.8-6-2-8.8c-2.8-6.4-8.8-11.2-16-12.8
	c-12.4-2.4-63.6-7.6-67.2-7.6c-2.4,0-4.4,0.8-5.6,1.2c-1.6,0.8-3.2,2-4.8,3.6c-1.2,1.2-8.4,10.4-12.8,15.6c0.8-20.4,1.2-34.8,0.8-38
	c-0.4-3.6-0.8-6.4-2-9.2c-5.6-12.4-20-17.6-32.4-12c-8.4,4-13.6,11.6-14,22.4c-0.4,9.6,0.8,24.8,2,34.4
	C173.6,154.8,176.8,182.4,178,190"/>
<path class="st1" d="M287.6,189.2c-14.4,4.8-22.4,20.8-17.6,35.6c4.8,14.8,20.8,22.4,35.6,17.6c14.8-4.8,22.4-20.8,17.6-35.6
	C318,192,302.4,184,287.6,189.2"/>
<path class="st1" d="M416.8,402.4c-7.6-0.8-14.4-4-19.2-9.2c-5.6,6-13.6,9.6-22.4,9.6s-16.8-3.6-22.4-9.6c-5.6,6-13.6,9.6-22.4,9.6
	s-16.8-3.6-22.4-9.6c-5.6,6-13.6,9.6-22.4,9.6s-16.8-3.6-22.4-9.6c-5.6,6-13.6,9.6-22.4,9.6c-8.8,0-16.8-3.6-22.4-9.6
	c-5.6,6-13.6,9.6-22.4,9.6c-8.8,0-16.8-3.6-22.4-9.6c-5.6,6-13.6,9.6-22.4,9.6c-8.8,0-16.8-3.6-22.4-9.6c-5.6,6-13.6,9.6-22.4,9.6
	s-16.8-3.6-22.4-9.6c-5.2,5.2-12,8.4-19.2,9.2c6,6.4,12,12.4,18.8,18h316C404.4,414.8,410.8,408.8,416.8,402.4"/>
</svg>
