<?xml version="1.0" encoding="utf-8"?>
<!-- Generator: Adobe Illustrator 24.2.0, SVG Export Plug-In . SVG Version: 6.00 Build 0)  -->
<svg version="1.1" id="Layer_1" xmlns="http://www.w3.org/2000/svg" xmlns:xlink="http://www.w3.org/1999/xlink" x="0px" y="0px"
	 width="480.1px" height="480.1px" viewBox="0 0 480.1 480.1" style="enable-background:new 0 0 480.1 480.1;" xml:space="preserve"
	>
<style type="text/css">
	.st0{fill:#072163;}
	.st1{fill:#FFFFFF;}
</style>
<ellipse class="st0" cx="240.1" cy="240.1" rx="240" ry="240"/>
<path class="st1" d="M397.7,183.3c-4.4-1.2-56.8-18.4-66.8-21.6c-5.6-4.8-27.6-22.8-41.6-34c0,11.2-1.6,25.6-5.6,37.2
	c15.2,7.6,31.6,15.2,38,17.2h0.4c9.2,2.8,68.8,12.8,72.8,13.6c1.6,0,2.8,0,4.4-0.8c3.2-2,4-6,2-9.2
	C400.5,184.5,399.3,183.7,397.7,183.3"/>
<path class="st1" d="M275.7,111.3c13.6,4.4,28.4-3.6,32.4-17.2c4.4-13.6-3.6-28.4-17.2-32.4c-13.6-4.4-28.4,3.6-32.4,17.2
	C254.1,92.5,262.1,107.3,275.7,111.3"/>
<path class="st1" d="M291.3,340.5c-14.4,0-26,11.6-26,26s11.6,26,26,26s26-11.6,26-26S305.7,340.5,291.3,340.5"/>
<path class="st1" d="M108.5,191.3c1.6,0.4,3.2,0,4.8-0.4c7.6-3.2,66.4-32,66.4-32s54.4-8,62.8-10c8.4-2,15.2-7.6,16.8-16
	c2.4-11.2-4.8-22-15.6-24.4c-4.4-0.8-8.4,0-12.4,1.2s-60.4,25.6-60.4,25.6c-0.8,0.4-1.6,0.8-2,1.2l-62.4,42.4
	c-1.2,0.8-2.4,2.4-2.8,4C102.5,186.5,104.9,190.1,108.5,191.3"/>
<path class="st1" d="M248.5,198.9c-8.8-2-18.4,0.8-24.4,8.4c-1.2,1.6-2.4,3.6-3.6,5.6c-6.4,12.4-21.6,47.2-27.6,64.4
	c-5.2-0.8-97.2-14.8-99.6-14.8s-4,0-6,1.2c-4,2.8-5.2,8-2.4,12c1.2,2,3.2,3.2,4.8,3.6l108.4,29.2c6,1.6,12.4-0.8,16.4-6l35.2-49.2
	c11.6,10.8,25.6,22,41.2,33.2l59.6,96.4c1.2,2,3.2,3.2,5.6,3.6c4.4,0.4,8.4-2.4,8.8-6.8c0.4-1.6,0-3.2-0.8-4.4l-50-103.6
	c-0.4-1.2-1.2-2-2-2.8c0,0-46.8-58.4-51.2-62C256.5,202.1,252.9,200.1,248.5,198.9"/>
</svg>
