<?xml version="1.0" encoding="utf-8"?>
<!-- Generator: Adobe Illustrator 24.2.0, SVG Export Plug-In . SVG Version: 6.00 Build 0)  -->
<svg version="1.1" id="Layer_1" xmlns="http://www.w3.org/2000/svg" xmlns:xlink="http://www.w3.org/1999/xlink" x="0px" y="0px"
	 width="480.1px" height="480.1px" viewBox="0 0 480.1 480.1" style="enable-background:new 0 0 480.1 480.1;" xml:space="preserve"
	>
<style type="text/css">
	.st0{fill:#072163;}
	.st1{fill:#FFFFFF;}
</style>
<ellipse class="st0" cx="240.1" cy="240.1" rx="240" ry="240"/>
<path class="st1" d="M383.7,122.1c-12-0.4-22,8.8-22.4,20.8s8.8,22,20.8,22.4s22-8.8,22.4-20.8C404.9,132.9,395.7,122.5,383.7,122.1
	"/>
<path class="st1" d="M308.1,139.7c-3.2,2.8-4.8,7.2-4,11.6c0.4,3.6,2.4,6.8,4.8,9.2l7.2,7.2l-27.2,29.2l38,43.2l32.4-13.2l14.4,13.6
	c3.2,3.2,8,4.4,12.8,3.2c6.8-1.6,10.8-8,10-14.8c0,0-2.4-25.6-3.6-33.6c-0.8-6.4-4-11.6-7.6-14.4c-0.4-0.4-1.6-1.2-2-1.6
	c0,0-39.2-28-45.6-32.4l21.6-25.6c2.8-1.2,4.4-1.6,7.2-2.8c2.4-1.2,4-2,5.6-3.6c5.2-4.8,3.6-9.2,0.8-12.8c-2.4-2.4-4.8-3.2-7.6-2.8
	c-3.6,0.4-6.8,3.2-15.6,14.8l-6,6l-6.4-7.6L308.1,139.7z"/>
<path class="st1" d="M121.3,161.7c-4.4,3.6-7.2,9.6-6,16c0.8,3.6,2.4,6.8,5.2,9.2c1.6,1.6,12.4,9.6,12.4,9.6l-9.2,28.8h59.2
	l13.6-28.4l44.8,32.8c11.2,8.4,17.6,13.2,22.4,19.6c4.8,6.4,7.6,12.8,11.2,22.8l34,96.4l12-2.8l5.2,16c0,0.4,0.4,0.8,0.4,0.8
	c0.4,0.8,1.2,1.2,2,1.2c0.4,0,0.4,0,0.8,0h30h0.4c0.4,0,0.8-0.4,1.2-0.8c0-0.4,0-0.4,0-0.8v-2c0-3.6-1.6-6-5.2-6.8
	c-4-1.2-15.6-4.4-20.8-6l-17.6-100.8l2-18.8l-40.4-44.8l-61.6-32.4l44.4-6.4l-1.2-12l12.4-1.6c2.8,1.2,4.4,1.6,7.2,2.8
	c2.8,0.8,4.4,0.8,6.4,0.8c7.2,0,9.2-4.8,9.2-9.2c0-3.2-1.2-5.6-4-7.2c-3.2-2-7.2-2-22,0.8h-98.8c-5.6-6-10.8-11.6-12.4-13.6
	c-3.2-3.2-6.4-2.8-9.2-1.2c-0.4,0-1.2,0.8-1.6,0.8c-0.4,0-0.4,0.4-0.8,0.4c-0.4,0.4-0.8,0.8-0.4,1.2c0,0.4,0,0.4,0.4,1.2
	c0.4,0.4,7.6,13.2,7.6,13.2s-1.6,0.8-2,1.2C144.5,145.7,126.9,157.3,121.3,161.7"/>
<path class="st1" d="M63.3,368.1c0,0,0,0.4-0.4,0.4c-0.8,1.6,0,3.2,1.2,4c0,0,0.4,0.4,0.8,0.4l27.6,11.2h0.4c0.4,0,1.2,0,1.2-0.4
	c0.4-0.4,0.4-0.4,0.4-0.8c0.4-0.4,0.8-1.6,0.8-1.6c1.2-3.2,0.8-6-2.4-8.4c-2-1.6-7.6-6-12-9.6l71.6-88l32.4,32.4l-12,48.8l14,4.8
	c0,0-4.4,17.6-4.4,18s0,0.8,0,1.2c0,1.6,1.2,3.2,2.4,3.6c0.4,0,0.8,0,1.6,0h32.4c0.4,0,0.8,0,0.8,0c0.4,0,0.8-0.4,1.2-0.8
	c0-0.4,0.4-0.4,0.4-1.2v-2c0-4-2-6.4-6-7.6c-2.8-0.8-15.2-4.4-15.2-4.4s22.4-56.8,23.6-60.8c0.8-2.4,0.8-4.8,0.4-7.2
	c-0.4-2.8-1.2-5.2-2.8-7.6c-1.2-2.4-40.8-56-40.8-56h-60.4l-27.6,28.4h16l-46.4,81.6l10,7.2L63.3,368.1z"/>
<path class="st1" d="M189.7,130.5c12-0.4,21.2-10.8,20.8-22.8s-10.8-21.2-22.8-20.8c-12,0.4-21.2,10.8-20.8,22.8
	S177.7,130.9,189.7,130.5"/>
</svg>
