<?xml version="1.0" encoding="utf-8"?>
<!-- Generator: Adobe Illustrator 24.2.0, SVG Export Plug-In . SVG Version: 6.00 Build 0)  -->
<svg version="1.1" id="Layer_1" xmlns="http://www.w3.org/2000/svg" xmlns:xlink="http://www.w3.org/1999/xlink" x="0px" y="0px"
	 width="480px" height="480px" viewBox="0 0 480 480" style="enable-background:new 0 0 480 480;" xml:space="preserve">
<style type="text/css">
	.st0{fill:#072163;}
	.st1{fill:#FFFFFF;}
</style>
<path class="st0" d="M480,240c0,132.4-107.6,240-240,240S0,372.4,0,240S107.6,0,240,0S480,107.6,480,240"/>
<path class="st1" d="M122.4,369.2c-6,0-11.2,5.2-11.2,11.2c0,6.4,5.2,11.2,11.2,11.2c6,0,11.2-5.2,11.2-11.2
	C133.6,374.4,128.4,369.2,122.4,369.2"/>
<path class="st1" d="M220.4,117.2c13.2,0,24-10.8,24-24s-10.8-24-24-24s-24,10.8-24,24S207.2,117.2,220.4,117.2"/>
<path class="st1" d="M328,215.6c-0.4-6.8-4-12.4-9.6-16.4c-10-6.8-23.6-4-30.4,5.6c-8,10-51.2,70-51.2,70c-0.8,1.6-1.6,3.2-2,4.8
	L204,390.4c-0.4,1.6-0.4,3.2,0,4.8c1.2,4.8,6,7.2,10.8,6c2.4-0.8,4.4-2.4,5.2-4.4c2.8-3.6,35.2-82.4,43.2-104
	c6.4-5.2,18.8-16.4,31.2-28.4c4,17.6,7.6,33.6,7.6,33.6c2,7.2,8.8,12,16,11.6c11.2-0.4,102-2.4,104-2.4c1.6,0,3.2-0.4,4.8-1.2
	c4-2.4,4.8-7.6,2.4-11.6c-1.2-2-3.2-3.2-5.2-3.6c-6-0.8-64-8-92.4-10.8C330,261.2,328.4,227.2,328,215.6"/>
<path class="st1" d="M200,248.4c0,0.4,0,0.8,0,1.2c0,0-88,73.2-92.8,76.8c-2.4,2-4.4,2.8-6.4,2.4c-0.8,0-1.6-0.4-2-1.2
	c-1.6-2.4,0.8-4.8,2-6c2.8-2.4,2.8-6,0.8-8.4s-6-2.8-8.4-0.4c-8.4,6.8-7.6,16-3.6,21.2c2.4,3.2,6,5.6,10,6c1.2,0,2.4,0,3.2,0
	c4-0.4,9.2-3.2,12.8-6c7.6-6.4,192.4-163.2,200.4-170c1.6-1.6,2.8-3.6,3.2-6.4c0.4-2.8-0.4-5.2-1.6-7.2c-6.4-9.2-36.8-39.6-46-45.6
	c-2-1.2-4.4-2.4-7.2-2.8c-10-1.6-19.2,5.6-20.8,15.6c-0.8,6.8,2,13.2,6.8,17.2c5.6,4.4,26.8,16.4,41.2,24
	c-14,15.2-40.8,43.6-45.2,48.4c-0.8,0.8-1.6,2.4-1.6,3.6v0.4c-5.2,4.4-14.4,12-23.6,19.6c8.8-17.6,19.6-40,21.6-46
	c0.8-2.4,2-8,2.4-14c-15.2-12.4-22.8-23.6-26.4-33.6c0,12.8,2,35.2,2.8,44C218.4,191.6,202,241.6,200,248.4"/>
</svg>
