<?xml version="1.0" encoding="utf-8"?>
<!-- Generator: Adobe Illustrator 24.2.0, SVG Export Plug-In . SVG Version: 6.00 Build 0)  -->
<svg version="1.1" id="Layer_1" xmlns="http://www.w3.org/2000/svg" xmlns:xlink="http://www.w3.org/1999/xlink" x="0px" y="0px"
	 width="480px" height="480px" viewBox="0 0 480 480" style="enable-background:new 0 0 480 480;" xml:space="preserve">
<style type="text/css">
	.st0{fill:#072163;}
	.st1{fill:#FFFFFF;}
</style>
<path class="st0" d="M480,240c0,132.4-107.6,240-240,240S0,372.4,0,240S107.6,0,240,0S480,107.6,480,240"/>
<path class="st1" d="M326,176.4c7.2-7.6,6.4-19.6-1.2-26.8s-19.6-6.4-26.8,1.2c-7.2,7.6-6.4,19.6,1.2,26.8
	C306.8,184.8,318.8,184.4,326,176.4"/>
<path class="st1" d="M404.8,286.8c1.2-2.4,2-4.8,2.4-7.6c0.8-8-3.6-15.2-10.8-18.8c-23.6-12-61.6-29.6-67.6-32.4
	c-1.6-0.8-3.2-0.8-4.8-0.8c-4.8,0.4-8.8,3.6-10.4,8c-0.4,1.2-6.4,23.6-11.2,41.2l-66-46.4l113.2-14c2-0.4,4.4-0.8,6-2
	c8-4.4,10.8-14,6.4-22c-3.6-6.4-11.2-9.6-18-8c-0.4,0-0.8,0-0.8,0.4l0,0c-10,2.8-46.8,16.4-59.2,21.6c-12.4,2.4-44.8,10-59.6,14.4
	c-0.4,0-0.8,0.4-1.2,0.4c-2.8,1.6-3.6,4.8-2.4,7.6c0.4,0.8,0.8,1.2,1.6,1.6l77.2,54.8c0,0.8-0.4,1.2-0.4,2h-19.6H260h-28.4
	c1.2-2.4,2-4.8,2.4-7.6c0.8-8-3.6-15.2-10.8-18.8c-23.6-12-61.6-29.6-67.6-32.4c-1.6-0.8-3.2-0.8-4.8-0.8c-4.8,0.4-8.8,3.6-10.4,8
	c-0.4,1.2-6.4,23.6-11.2,41.2l-66-46.4l113.2-14c2-0.4,4.4-0.8,6-2c8-4.4,10.8-14,6.4-22c-3.6-6.4-11.2-9.6-18-8
	c-0.4,0-0.8,0-0.8,0.4l0,0c-10,2.8-46.8,16.4-59.2,21.6c-12.4,2.4-44.8,10-59.6,14.4c-0.4,0-0.8,0.4-1.2,0.4
	c-2.8,1.6-3.6,4.8-2.4,7.6c0.4,0.8,0.8,1.2,1.6,1.6l77.2,54.8c0,0.8-0.4,1.2-0.4,2h-20.8H86.4H27.6c5.2,16.4,20.4,28.8,38.8,28.8
	c11.6,0,22-4.8,29.2-12.4c7.2,7.6,17.6,12.4,29.2,12.4c11.2,0,21.2-4.4,28.4-11.6l66,46.8l4.8-6.8l-40-28.4c10.8-0.4,20.8-4.8,28-12
	c7.2,7.6,17.6,12,28.8,12s21.6-4.8,28.8-12c7.2,7.6,17.6,12,28.8,12c10.8,0,20.8-4.4,28.4-11.6l66,46.8l4.8-6.8l-40-28.4
	c10.8-0.4,20.8-4.8,28-12c7.2,7.6,17.6,12,28.8,12c18.4,0,33.6-12,38.8-28.8C453.2,286.8,404.8,286.8,404.8,286.8z M144.4,286.8
	c3.6-8.4,8-19.6,11.6-28.8c13.2,10.4,28.4,21.6,38.8,28.8H144.4z M318,286.8c3.6-8.4,8-19.6,11.6-28.8
	c13.2,10.4,28.4,21.6,38.8,28.8H318z"/>
<path class="st1" d="M152.8,176.4c7.2-7.6,6.4-19.6-1.2-26.8c-7.6-7.2-19.6-6.4-26.8,1.2c-7.2,7.6-6.4,19.6,1.2,26.8
	C133.6,184.8,145.6,184.4,152.8,176.4"/>
</svg>
