<?xml version="1.0" encoding="utf-8"?>
<!-- Generator: Adobe Illustrator 24.2.0, SVG Export Plug-In . SVG Version: 6.00 Build 0)  -->
<svg version="1.1" id="Layer_1" xmlns="http://www.w3.org/2000/svg" xmlns:xlink="http://www.w3.org/1999/xlink" x="0px" y="0px"
	 width="480.1px" height="480.1px" viewBox="0 0 480.1 480.1" style="enable-background:new 0 0 480.1 480.1;" xml:space="preserve"
	>
<style type="text/css">
	.st0{fill:#072163;}
	.st1{fill:#FFFFFF;}
</style>
<ellipse class="st0" cx="240.1" cy="240.1" rx="240" ry="240"/>
<path class="st1" d="M371.7,118.5c-1.2-2.4-4-3.2-6.4-2.4c-2.4,0.4-54,16-64,19.2c-0.8,0.4-1.2,0.4-1.6,0.4s-0.8,0.4-1.6,0.8
	c-6.8,2.8-31.6,14.8-46,22.8c9.6,3.2,16,10,24.4,23.6c12-9.6,28.4-23.2,33.2-27.6c12.4-5.6,57.6-27.2,60.4-28.8
	C372.5,124.9,373.3,121.3,371.7,118.5"/>
<path class="st1" d="M284.1,53.7l2.8-0.4l26,4l-4-25.2l-23.6,11.6l-2.8,0.4c-2.8,0.4-4.4,2.8-4,5.6
	C278.9,52.1,281.3,54.1,284.1,53.7"/>
<path class="st1" d="M168.5,253.7c2.4,0,4.8-0.8,6.8-2c3.2-1.6,29.6-22,44.8-33.2c4-2.8,6.8-5.2,10-8.4s6-8.4,6-13.6
	c0-10.8-8.8-19.2-19.6-19.2c-3.6,0-7.2,1.2-10,2.8c-0.8,0.4-2.4,2-4,3.6c-5.6,5.6-18,20.4-28,32.4c-5.2-20-12-45.2-13.2-49.6
	c0,0-0.4-0.8-0.4-1.6l4.8-16l-0.4-5.2l14.4-48.8c6,0.8,16.8,0.4,23.6-11.2c7.2-11.6,5.2-23.2,3.6-29.2c-2.4-8-7.2-13.2-14.4-15.6
	c-7.2-2-14.4-0.4-20.8,5.2c-4.8,4-12.4,12.8-12.8,26.4c-0.4,13.6,8,19.6,13.6,22l-14.4,48.8l-2.8,4l-6,20.8
	c-0.4,0.8-0.4,1.6-0.4,1.6c-0.4,8,6,67.6,8.4,77.2C158.5,250.1,162.9,253.7,168.5,253.7 M166.1,70.5c0.4-10.8,6.8-17.6,10.4-20.8
	c4.4-3.6,8.8-4.8,13.6-3.6s8,4.8,9.6,10.4c1.2,4.8,2.8,14-2.8,23.2s-14,8.4-18.8,6.8C173.3,85.3,165.7,81.3,166.1,70.5"/>
<path class="st1" d="M200.1,139.7c0,12.8,10.4,23.6,23.6,23.6c12.8,0,23.6-10.4,23.6-23.6c0-12.8-10.4-23.6-23.6-23.6
	C210.5,116.1,200.1,126.5,200.1,139.7"/>
<path class="st1" d="M269.7,259.7c-1.6-0.8-3.6-2.4-6.8-3.2c-2.4-0.8-4.8-1.2-7.2-1.2c-11.6,0-21.2,8.4-23.2,20
	c-2,11.2-3.6,63.2-3.6,85.2c-21.2,16.4-69.6,56.4-77.6,64c-1.6,1.6-2.4,3.6-2.8,6c0,4.8,3.6,8.4,8,8.4c1.2,0,2.4-0.4,3.6-0.8
	c8-4,90.4-53.6,94.8-57.6c2.4-2,4-4.4,4.8-7.2c0.4-0.8,0.8-2,1.2-3.6c25.6-12.4,64.8-32,68-34.8c3.2-2.4,5.2-5.6,6-9.6
	c0.8-4.8-0.8-9.2-4-12.4C322.5,303.3,282.5,268.1,269.7,259.7 M268.5,339.7c2-9.6,4-19.6,6-28.8c6.4,4,12.8,8.4,18.8,12
	C285.7,328.1,276.9,334.1,268.5,339.7"/>
</svg>
